<?xml version="1.0" standalone="no"?>
<!DOCTYPE svg PUBLIC "-//W3C//DTD SVG 1.1//EN" "http://www.w3.org/Graphics/SVG/1.1/DTD/svg11.dtd" >
<svg xmlns="http://www.w3.org/2000/svg" xmlns:xlink="http://www.w3.org/1999/xlink" version="1.1">
<metadata>
Created by FontForge 20201107 at Mon Mar 20 22:28:20 2023
 By Unknown
Satisar Sharada (c) Vinodh Rajan &#38; Core Sharada Team Foundation. 2021. All Rights Reserved
</metadata>
<defs>
<font id="SatisarSharada" horiz-adv-x="0" >
  <font-face 
    font-family="Satisar Sharada"
    font-weight="400"
    font-stretch="normal"
    units-per-em="2048"
    panose-1="2 0 6 0 0 0 0 0 0 0"
    ascent="1638"
    descent="-410"
    x-height="1098"
    cap-height="1462"
    bbox="-820 -1190 2919 2263"
    underline-thickness="150"
    underline-position="-292"
    unicode-range="U+000D-111DF"
  />
<missing-glyph horiz-adv-x="1024" 
d="M100 0v1434h824v-1434h-824zM150 50h724v1334h-724v-1334zM325 1148q31 28 58 43q53 30 112 30q92 0 148 -47.5t56 -127.5q0 -49 -23 -98.5t-87 -129.5q-63 -80 -99 -132t-36 -99q0 -38 24 -133h-32q-35 97 -35 148q0 76 81.5 218t81.5 217q0 57 -33 90t-91 33
q-38 0 -69 -17q-26 -15 -56 -40v45zM389 334l57 58q11 10 20 10q10 0 22 -11l56 -60q9 -11 9 -20q0 -11 -10 -22l-56 -62q-14 -14 -21 -14q-11 0 -20 10l-61 71q-7 9 -7 18q0 10 11 22z" />
    <glyph glyph-name=".notdef" horiz-adv-x="1024" 
d="M100 0v1434h824v-1434h-824zM150 50h724v1334h-724v-1334zM325 1148q31 28 58 43q53 30 112 30q92 0 148 -47.5t56 -127.5q0 -49 -23 -98.5t-87 -129.5q-63 -80 -99 -132t-36 -99q0 -38 24 -133h-32q-35 97 -35 148q0 76 81.5 218t81.5 217q0 57 -33 90t-91 33
q-38 0 -69 -17q-26 -15 -56 -40v45zM389 334l57 58q11 10 20 10q10 0 22 -11l56 -60q9 -11 9 -20q0 -11 -10 -22l-56 -62q-14 -14 -21 -14q-11 0 -20 10l-61 71q-7 9 -7 18q0 10 11 22z" />
    <glyph glyph-name=".null" 
 />
    <glyph glyph-name="uni000D" unicode="&#xd;" horiz-adv-x="512" 
 />
    <glyph glyph-name="space" unicode="&#xa0;" horiz-adv-x="508" 
 />
    <glyph glyph-name="space" unicode=" " horiz-adv-x="508" 
 />
    <glyph glyph-name="uni200C" unicode="&#x200c;" horiz-adv-x="683" 
 />
    <glyph glyph-name="uni200D" unicode="&#x200d;" horiz-adv-x="683" 
 />
    <glyph glyph-name="uni25CC" unicode="&#x25cc;" horiz-adv-x="1229" 
d="M604 946q-20 0 -34.5 14.5t-14.5 34.5q0 21 14.5 35t34.5 14q21 0 35 -14t14 -35q0 -20 -14 -34.5t-35 -14.5zM406 897q-21 0 -35.5 14.5t-14.5 34.5q0 21 14.5 35t35.5 14q20 0 34.5 -14t14.5 -35q0 -20 -14.5 -34.5t-34.5 -14.5zM803 897q-21 0 -35 14.5t-14 34.5
q0 21 14 35t35 14q20 0 34.5 -14t14.5 -35q0 -20 -14.5 -34.5t-34.5 -14.5zM260 754q-20 0 -34.5 14t-14.5 35q0 20 14.5 34.5t34.5 14.5q21 0 35 -14.5t14 -34.5q0 -21 -14 -35t-35 -14zM946 750q-20 0 -34.5 14t-14.5 35q0 20 14.5 34.5t34.5 14.5q21 0 35 -14.5t14 -34.5
q0 -21 -14 -35t-35 -14zM207 547q-21 0 -35 14t-14 35q0 20 14 34.5t35 14.5q20 0 34.5 -14.5t14.5 -34.5q0 -21 -14.5 -35t-34.5 -14zM1008 547q-21 0 -35.5 14t-14.5 35q0 20 14.5 34.5t35.5 14.5q20 0 34.5 -14.5t14.5 -34.5q0 -21 -14.5 -35t-34.5 -14zM950 354
q-20 0 -34.5 14.5t-14.5 34.5q0 21 14.5 35.5t34.5 14.5q21 0 35 -14.5t14 -35.5q0 -20 -14 -34.5t-35 -14.5zM256 352q-20 0 -34.5 14.5t-14.5 34.5q0 21 14.5 35.5t34.5 14.5t34.5 -14.5t14.5 -35.5q0 -20 -14.5 -34.5t-34.5 -14.5zM805 207q-21 0 -35 14.5t-14 34.5
t14 34.5t35 14.5q20 0 34.5 -14.5t14.5 -34.5t-14.5 -34.5t-34.5 -14.5zM406 205q-21 0 -35.5 14t-14.5 35q0 20 14.5 34.5t35.5 14.5q20 0 34.5 -14.5t14.5 -34.5q0 -21 -14.5 -35t-34.5 -14zM604 150q-20 0 -34.5 14t-14.5 35q0 20 14.5 34.5t34.5 14.5q21 0 35 -14.5
t14 -34.5q0 -21 -14 -35t-35 -14z" />
    <glyph glyph-name="u11180" unicode="&#x11180;" 
d="M166 1644q-2 0 -26.5 24t-57 56.5t-57.5 57t-25 26.5l4 3q99 112 219 193q115 70 249 70l42 -1q151 -17 274 -105q63 -50 119 -106l33 -33q55 -55 110 -113q15 -15 29 -31q-15 16 -29 31q-26 27 -54 52l-7 7q-72 60 -151 93q-98 40 -201 40q-159 0 -288 -97
q-98 -75 -183 -167zM558 1581l-145 146l145 148l146 -148z" />
    <glyph glyph-name="u11181" unicode="&#x11181;" 
d="M0 1740l164 164l164 -164l-164 -164z" />
    <glyph glyph-name="u11182" unicode="&#x11182;" horiz-adv-x="490" 
d="M50 958l170 170l170 -170l-170 -170zM50 535l170 171l170 -171l-170 -170z" />
    <glyph glyph-name="u11183" unicode="&#x11183;" horiz-adv-x="1311" 
d="M940 -51q-13 0 -32 12.5t-41.5 31.5t-45.5 42.5t-43.5 46.5t-37.5 41.5t-26 28.5q-17 19 -26 38t-9 45q0 38 19.5 57t48.5 28t64.5 12t66.5 9v166q-172 3 -344 3q0 -15 2 -34t-0.5 -36.5t-11.5 -29t-31 -11.5q-27 0 -65.5 17.5t-77 43t-70.5 53t-46 48.5q-8 13 -12.5 29
t-4.5 31q0 48 22 75.5t73 27.5q25 0 52 -8v271q-6 -4 -27.5 -18t-46 -29.5t-45.5 -28t-27 -12.5q-5 0 -17.5 11.5t-28.5 28.5t-34 38t-34.5 40t-31 33.5t-22.5 19.5q31 9 67 29.5t71 46.5t66 54t52 53q-12 0 -31 13.5t-41 33.5t-44.5 43t-43.5 43t-38 33.5t-26 13.5h961
q10 0 27 -13.5t37.5 -33.5t42.5 -43t42 -43t36 -33.5t25 -13.5h-221l-1 -871h-1v-77.5t-1 -77.5l4 -2l-4 -2v-24l1 -47v-24q0 -45 -9 -86.5t-42 -74.5q-18 -18 -39 -18zM855 690v562h-338v-557q157 -1 338 -5z" />
    <glyph glyph-name="u11184" unicode="&#x11184;" horiz-adv-x="1311" 
d="M1030 325h-4h3q41 -23 81 -79q27 -31 36 -48v1q24 -31 34 -63.5t10 -72.5q0 -41 -15 -78t-41 -64.5t-62 -43.5t-78 -16h-2q-56 0 -108.5 30.5t-99 74.5t-84.5 95t-65 91q30 43 50 43q21 0 33 -23v-1q6 -8 14 -17.5t17 -23.5q32 -35 63.5 -67t69.5 -61q8 -3 17.5 -4
t18.5 -1q32 0 60 14.5t49 38.5t33 54t12 61q0 8 -0.5 15t-1.5 15q-40 -1 -79 -1.5t-79 -1.5q-14 0 -51 48q-7 9 -16.5 22.5t-18.5 26.5t-17 23.5t-11 14.5l80 -1v181q-172 3 -344 3q0 -15 2 -34t-0.5 -36.5t-11.5 -29t-31 -11.5q-27 0 -65.5 17.5t-77 43t-70.5 53t-46 48.5
q-8 13 -12.5 29t-4.5 31q0 48 22 75.5t73 27.5q25 0 52 -8v271q-6 -4 -27.5 -18t-46 -29.5t-45.5 -28t-27 -12.5q-5 0 -17.5 11.5t-28.5 28.5t-34 38t-34.5 40t-31 33.5t-22.5 19.5q31 9 67 29.5t71 46.5t66 54t52 53q-12 0 -31 13.5t-41 33.5t-44.5 43t-43.5 43t-38 33.5
t-26 13.5h961q10 0 28 -14t39 -35.5t44 -46t44 -46t37.5 -35.5t25.5 -14h-57l3 -3h-30l4 -1h-150v-7v-849h-1v-57zM855 690v562h-338v-557q157 -1 338 -5z" />
    <glyph glyph-name="u11185" unicode="&#x11185;" horiz-adv-x="1117" 
d="M175 1110q-1 16 -9 32.5t-19 28.5q-9 9 -24.5 27t-30.5 38t-27 39t-13 29q-2 7 -2 13.5v14.5q0 47 13.5 86t39.5 67t63.5 44t85.5 16q46 0 87.5 -13.5t81.5 -33.5t78.5 -43t77.5 -43t79.5 -33.5t83.5 -13.5q37 0 71 15t59.5 40t40.5 58.5t15 70.5l2 -4l1 -1q1 0 0.5 3
t-1 5.5t-1.5 2.5t-1 -6q8 -21 30 -39t46 -40t42.5 -51t18.5 -73q0 -24 -7.5 -47.5t-18.5 -44.5q-24 -46 -70 -64.5t-95 -18.5q-43 0 -84 13.5t-81 33.5t-78.5 44t-77.5 44t-78 33.5t-79 13.5q-48 0 -77 -20.5t-49.5 -52.5t-38 -72t-42.5 -79zM763 350q-79 0 -153.5 27.5
t-143 73.5t-130 107t-114.5 128t-96.5 135.5t-75.5 130.5q60 -44 113.5 -96.5t103.5 -107.5q15 -17 30 -33.5t32 -30.5q36 -29 82 -57t96.5 -49.5t102 -34.5t98.5 -13q23 0 40.5 1t33 5.5t31 12.5t34.5 23q96 69 96 189q0 31 -6 59q-17 6 -34 9.5t-34 3.5q-71 0 -119 -40.5
t-79 -101.5q0 7 -19.5 28.5t-43 46.5t-42.5 47.5t-18 31.5q32 64 82.5 103.5t124.5 39.5q30 0 56.5 -13t50 -33t43.5 -43.5t37 -43.5q22 -25 44.5 -52.5t40.5 -56.5t29 -61t11 -68q0 -33 -8 -65.5t-24 -61t-39.5 -51t-54.5 -37.5q-18 -9 -40.5 -18t-46.5 -16.5t-47.5 -12.5
t-43.5 -5z" />
    <glyph glyph-name="u11186" unicode="&#x11186;" horiz-adv-x="1150" 
d="M330 1494l-164 157l164 157l167 -157zM704 1494l-166 157l166 157l166 -157zM683 62q0 4 -5 9v-6l-49 41v-1l-142 121v1l-297 260l314 322v442h-323l-131 181h919l131 -181h-417v-1189z" />
    <glyph glyph-name="u11187" unicode="&#x11187;" horiz-adv-x="1488" 
d="M1064 -20q-86 0 -163.5 34t-144.5 85q-56 43 -118.5 107t-127 140t-129 159t-124 165t-112.5 157.5t-95 135.5l57 55q100 -117 188.5 -243t179.5 -243q14 -17 28 -36.5t28 -35.5l3 -6q27 -31 63 -69.5t76.5 -75.5t82.5 -68t81 -46q9 -3 13.5 -6t10 -4.5t14.5 -2.5t26 -1
q77 0 144.5 33t117.5 87.5t79.5 124.5t29.5 144q0 27 -3 52.5t-11 51.5q-26 5 -49.5 9.5t-50.5 4.5q-29 0 -57.5 -3.5t-57.5 -8.5q-11 -2 -25.5 -6t-25.5 -4q-4 0 -17.5 13t-31 33.5t-37 45t-37 47t-30.5 40.5t-17 25q58 97 115 191.5t114 191.5h-639l-127 180h891l96 -137
q13 -18 25.5 -36t12.5 -42q0 -10 -13 -37t-33.5 -62.5t-44.5 -75.5t-46 -76t-39 -62.5t-23 -36.5q48 -22 81.5 -58.5t65.5 -76.5q5 -6 20 -23t31.5 -36t29.5 -35.5t14 -20.5l-1 -2q42 -47 64 -113t22 -128q0 -81 -27 -153t-76.5 -126t-118 -85t-152.5 -31z" />
    <glyph glyph-name="u11188" unicode="&#x11188;" horiz-adv-x="1864" 
d="M1423 -398q-15 0 -85.5 5t-191.5 48q-21 11 -52 77q-8 14 -13.5 22t-14.5 28q-32 70 -45 76q83 -28 182 -43q45 -7 93 -7q51 0 122.5 11.5t144 76.5t107.5 196q20 72 20 145q0 66 -15 135q-10 10 -25 18q-81 53 -163 53h-3q-54 0 -109 -21v-39q0 -118 -60 -225.5
t-175 -149.5q-63 -20 -119 -20q-49 0 -126 21.5t-170 97t-172 171.5q-121 147 -234 302q-108 150 -264 381l-5 4l45 57q2 0 19.5 -22t40.5 -51q67 -83 98 -127q329 -431 391 -501q141 -160 271 -160q98 0 142 50q57 72 117 185q45 82 45 179q0 46 -12 104l-11 3
q-40 11 -77 11h-12q-65 -2 -157 -24q-7 0 -31.5 30t-54.5 70.5t-52.5 71t-22.5 31.5l219 381h-610l-122 180h852l91 -136q39 -43 39 -77q0 -10 -6 -23t-22 -43l-164 -283q66 -32 138 -133l17 -21q53 -62 69 -84q37 9 72 9q49 0 113.5 -24.5t129.5 -101.5q63 -72 122 -174
t77 -206q10 -48 10 -95q0 -93 -36.5 -203.5t-143.5 -177.5q-103 -58 -211 -58zM1732 336l-7 17q7 -14 7 -16v-1z" />
    <glyph glyph-name="u11189" unicode="&#x11189;" horiz-adv-x="1588" 
d="M1108 10q-20 0 -77 5t-138 43q-46 24 -82 56t-70 69l-8 7q-18 20 -39 39q-68 63 -115 135q-51 91 -68 198.5t-24 216.5l-9 95q-19 189 -27 379h-215l-186 180h1303l185 -180h-29l1 -1h-6q-4 1 -863 1q3 -312 37 -622q5 -47 10 -99q5 -71 14.5 -143.5t30.5 -139.5
q72 -24 144 -24q46 0 131 17.5t172 97.5q1 0 26 -12t60 -32.5t66.5 -47.5t46.5 -56q6 -13 6 -27q0 -16 -10 -31q-46 -72 -130 -101q-65 -23 -137 -23z" />
    <glyph glyph-name="u1118A" unicode="&#x1118a;" horiz-adv-x="1619" 
d="M1147 39q-11 0 -63 2t-133 36q-46 20 -83 49.5t-71 64.5q-4 3 -7 6l-41 37q-70 57 -119 125q-53 86 -75.5 189.5t-32.5 206.5l-12 93q-31 201 -46 404q-127 0 -130 1h-94l-190 180h1330l189 -180h-64l4 -1h-540q10 -150 35 -298l9 -57q7 -83 35 -161q38 -11 78 -11
q115 0 193 73q1 0 17 -6t38 -17.5t42 -26t29 -31.5q5 -8 5 -16t-5 -16q-52 -78 -174 -78q-63 0 -120 23q-55 26 -97 67l-29 26q-44 35 -75 75q-33 52 -47 113.5t-21 122.5q-3 29 -7 55q-12 81 -22 163h-200q14 -318 64 -632q7 -45 12 -94q8 -69 21 -138.5t37 -133.5
q62 -18 124 -18q55 0 142 22t169 102q2 0 27 -11q136 -60 174 -126q9 -15 9 -27q0 -13 -9 -28q-44 -71 -123 -102q-69 -27 -147 -27h-6z" />
    <glyph glyph-name="u1118B" unicode="&#x1118b;" horiz-adv-x="1461" 
d="M1124 2q-94 0 -178 62q-85 77 -169 161l-20 20q-33 32 -60 69t-38 83q-7 36 -7 68q0 89 61 161t186 102q58 12 114 39t77 87q11 36 11 69q0 17 -3 35q-40 11 -81 11h-13q-115 -9 -218 -61h-2q-14 0 -40.5 28.5t-58.5 69.5q-28 34 -49 57.5t-30 23.5h-1q89 45 192 61v106
l-236 -1v-1251v1q0 6 -12 18q-30 30 -60 53q-15 12 -20 17.5t-19 14.5q-22 19 -45.5 41.5t-23.5 35.5v1071l-48 -1h-111l-172 180h1191l170 -180l-37 1v0l-396 -1v-140q78 -48 142 -119l39 -37q43 -39 81 -87q43 -53 43 -116q0 -64 -31.5 -113.5t-100.5 -72.5
q-31 -10 -64 -17q-56 -13 -107.5 -33t-87.5 -65q-38 -50 -55 -113q-8 -28 -8 -58q0 -40 15 -81q49 -19 101 -19h11q151 11 257 119q2 -1 91 -87t89 -93q-91 -91 -214 -114q-28 -5 -55 -5z" />
    <glyph glyph-name="u1118C" unicode="&#x1118c;" horiz-adv-x="1930" 
d="M1123 7q-94 0 -178 63q-89 75 -169 163l-19 21q-33 33 -60.5 71t-38.5 84q-7 37 -7 69q0 90 61 163.5t187 104.5q57 12 112.5 39.5t77.5 88.5q12 37 12 71q0 18 -3 35q-44 12 -89 12h-6q-115 -9 -218 -63h-2q-14 0 -40.5 29.5t-58.5 70.5q-27 34 -48.5 58t-29.5 24h-1
q89 47 192 63h-1v79h-237q2 -11 2 -16v-1260q0 11 -42 46q-45 38 -50 43.5t-18 16.5q-71 58 -71 77l2 1093h-29q-31 0 -34 1h-99l-170 179h1718l112 -179h-93q-51 -120 -134 -295q-24 -56 -69 -95q-22 -18 -46 -18q-57 0 -163 125q-6 7 -8 10q-99 126 -177 272h-214v-115
q78 -49 142 -121q12 -11 38 -38q45 -40 82 -88q43 -56 43 -118q0 -65 -31.5 -116t-99.5 -74q-32 -9 -65 -17q-56 -13 -107 -34t-87 -66q-38 -51 -54 -114q-8 -31 -8 -61v-6q0 -30 9 -59l5 -16q52 -20 107 -20h6q149 10 255 121q6 -4 92.5 -90t88.5 -94q-92 -92 -215 -115
q-27 -5 -54 -5zM1424 967q58 0 103 87q21 40 39 84q23 56 51 116h-253q-30 -1 -82 -1h-47q14 -17 114 -190l54 -94q10 -2 21 -2z" />
    <glyph glyph-name="u1118D" unicode="&#x1118d;" horiz-adv-x="1664" 
d="M448 0l-170 140v1113h-32l-196 180h1370l194 -180h-298l1 -7v-1v1h-1q2 -40 2 -85q0 -54 -5.5 -138t-35.5 -181.5t-99 -156.5q-83 -68 -171 -68q-9 0 -61 4t-137 88q-198 198 -352 447zM831 838q16 0 34 2q252 64 272 413h-667q70 -175 173 -332l16 -11q26 -26 72 -48
q48 -23 100 -24z" />
    <glyph glyph-name="u1118E" unicode="&#x1118e;" horiz-adv-x="1664" 
d="M1367 1612h-1142l-162 180h1141zM448 0l-170 134v1119h-32l-196 180h1370l194 -180h-298l1 -7v-1v1h-1q2 -40 2 -85q0 -54 -5.5 -138t-35.5 -181.5t-99 -156.5q-83 -68 -171 -68q-9 0 -61 4t-137 88q-198 198 -352 447zM831 838q16 0 34 2q252 64 272 413h-667
q70 -175 173 -332l16 -11q26 -26 72 -48q48 -23 100 -24z" />
    <glyph glyph-name="u1118F" unicode="&#x1118f;" horiz-adv-x="1532" 
d="M431 6q-1 2 -6 7l-20 22q-40 43 -128 147q0 1 -2 2l-13 17q-9 11 -10 14q-8 322 -8 541q0 245 12 497h-28l-178 180h1252l180 -177v-3h-199v-1q-8 -8 -8 -12q-65 -110 -116 -209l-16 -31l28 -30q6 -3 30 -28q49 -53 102 -119q22 -27 22 -33v0q80 -97 104 -200
q10 -52 10 -101q0 -124 -67 -230q-123 -180 -328 -180q-51 0 -109 18q-125 41 -217 138q-53 56 -107 120q-67 78 -81 98q-60 68 -102 148q0 -320 8 -594zM876 292q26 0 51 4q125 21 213.5 112.5t109.5 222.5q5 33 5 66v8q0 47 -10 93l-2 9q-3 15 -8.5 30t-16.5 23
q-24 13 -52 13q-51 0 -98 -50q-41 -36 -68 -84l-2 -3q-66 77 -80 92q0 1 -1 1l-11 13q-44 50 -70 81l-19 22v1q7 18 16 32.5t16 30.5q67 111 124 179l49 65h-563q7 -189 33 -418q23 -240 109 -418q26 -52 80 -74q102 -51 195 -51z" />
    <glyph glyph-name="u11190" unicode="&#x11190;" horiz-adv-x="1922" 
d="M244 134l1 1118l-73 1l-122 180h1636q47 -42 94 -88.5t92 -90.5l-166 -1q24 -30 38 -61.5t14 -71.5q0 -29 -10 -60t-29 -56.5t-45 -42t-59 -16.5q-30 0 -64.5 20t-67 48.5t-59.5 60.5t-41 56q-33 55 -39 122h-75q-12 -27 -29.5 -59t-36.5 -65t-38 -65t-34 -59l27 -30
q5 -2 18 -14.5t29.5 -30t34.5 -38t33.5 -39.5t26 -33.5t11.5 -20.5q56 -66 85 -137.5t29 -158.5q0 -82 -30 -155t-82.5 -128t-124 -86.5t-155.5 -31.5q-28 0 -54.5 5.5t-52.5 13.5q-55 18 -98.5 43.5t-81 58t-71.5 70.5t-70 80q-50 57 -97 115t-83 126v-150.5v-156t0.5 -156
t1.5 -150.5zM1502 1057q38 0 65 19t44 48t24.5 64t7.5 66l-186 -1l6 -4h-16q2 -24 2.5 -47.5t2.5 -47t6 -46.5t13 -46q17 -5 31 -5zM875 310q78 0 145.5 34t117 90t77.5 127t28 146q0 12 -1.5 36t-6 49t-12 46.5t-18.5 28.5q-11 8 -24.5 10t-26.5 2q-30 0 -53 -14t-44 -34
l-17 -17t-21.5 -23.5t-19 -25t-10.5 -20.5q-46 51 -90 102.5t-90 102.5v1q0 4 7 16t9 16q5 8 8.5 15l7.5 15q23 45 56 91t66 85q13 16 25.5 31.5t23.5 32.5h-557q3 -63 6.5 -132.5t10 -142t16 -146t24 -143.5t35 -135.5t48.5 -121.5q16 -32 49.5 -55t73.5 -38t82 -22t75 -7z
" />
    <glyph glyph-name="u11191" unicode="&#x11191;" horiz-adv-x="1670" 
d="M1011 956q3 -1 28.5 -10.5t64.5 -26t86.5 -40t94.5 -54t89.5 -67t71.5 -79.5t39.5 -92t-6.5 -104q-14 -46 -37.5 -77t-53 -49.5t-63.5 -26t-69 -7.5q-41 0 -81 8t-73.5 18.5t-57.5 20.5t-33 14v-384l-180 135v152q-14 0 -47.5 3.5t-79.5 17t-100 41t-109 75.5
t-106.5 120.5t-91.5 175.5q19 50 82 98q27 21 66.5 43t94 44t126.5 42.5t165 37.5l3 268h-582l-202 180h1383l182 -180h-604v-297zM1011 504l24 -3t39 -2q29 0 63.5 6t68 23t62 49t45.5 84q-8 43 -43 76q-15 14 -37 27t-53.5 22.5t-73 14.5t-95.5 3v-300zM488 587
q20 -38 44 -62.5t50.5 -39t54.5 -20.5t54 -6q27 0 51 4.5t43 10t32 11t17 7.5v288q-111 -29 -178.5 -62.5t-105.5 -62.5q-43 -34 -62 -68z" />
    <glyph glyph-name="u11192" unicode="&#x11192;" horiz-adv-x="1681" 
d="M1296 493v-24t-1 -24v54q-59 -14 -116.5 -29.5t-118.5 -15.5q-38 0 -78.5 6.5t-74.5 23.5q-33 17 -68 42.5t-65.5 56.5t-54 66.5t-34.5 72.5q-14 45 -18.5 89t-4.5 92q0 52 1 104t3 104v13l1 25q0 26 -0.5 51.5t-5.5 51.5h-226v-1260l-180 142v1118h-42l-163 180l1422 1
l159 -180h-153l-1 -757h-1l-1 -496l-179 134v359zM741 1252q31 -29 52 -55t23 -44q8 -67 10 -137.5t2 -138.5q0 -35 -3 -69.5t-3 -69.5q0 -24 0.5 -49.5t8 -47.5t24 -36t47.5 -14q32 0 61.5 7t58.5 16q31 9 60.5 19.5t57 24t52 32t44.5 45.5q25 32 42 68.5t17 78.5v132
l2 239z" />
    <glyph glyph-name="u11193" unicode="&#x11193;" horiz-adv-x="1484" 
d="M1128 1l-180 133l-1 1119h-331l-9 -767l-352 450h194v317h-319l-130 180h1292l142 -180h-307z" />
    <glyph glyph-name="u11194" unicode="&#x11194;" horiz-adv-x="1289" 
d="M1187 2l-179 132v481q-9 -7 -30 -12.5t-44 -9t-44.5 -5.5t-32.5 -2q-24 0 -48.5 13.5t-48 33.5t-44.5 43t-38 42q-8 -32 -24.5 -60t-38.5 -48.5t-48.5 -32t-53.5 -11.5q-25 0 -43.5 5.5t-34.5 15.5t-31.5 24t-34.5 32q-32 30 -68.5 70t-70 86t-60.5 95t-41 97
q-13 45 -20 92.5t-10 95.5q-5 66 -17 129.5t-32 124.5q11 -27 36 -52.5t53.5 -52.5t55 -55.5t40.5 -60.5q20 -45 30.5 -99t17.5 -111t13 -113.5t15 -106.5q84 -5 124.5 6.5t55 38.5t11.5 68.5t-6 96.5q-3 68 -3 137q0 36 1.5 72t3.5 73q29 -34 51 -65t54 -61q7 -7 18 -17.5
t21.5 -22t18.5 -24t11 -23.5q14 -59 18 -123t4 -124q29 -3 61.5 1t65 14.5t61.5 27.5t51 40q21 23 38.5 65.5t29.5 90.5t18.5 94.5t6.5 77.5v48t-1.5 53.5t-4.5 55t-8 51.5h180z" />
    <glyph glyph-name="u11195" unicode="&#x11195;" horiz-adv-x="1804" 
d="M1427 197q-61 0 -124 25.5t-123.5 63t-117 80t-105.5 77.5l-160 127q-48 40 -103 73.5t-118 47.5q2 -12 3 -23.5t1 -23.5q0 -38 -15 -57t-57 -19q-27 0 -50.5 13.5t-44 33t-39.5 40.5t-37 36q-2 2 -11 9.5t-19 16t-18 16t-8 8.5l1 -1q-10 12 -17.5 26.5t-7.5 30.5
q0 14 12.5 25t30 18t35.5 10.5t29 3.5q14 0 26 -3l-20 405h-139q-9 0 -23 10t-28 24t-26.5 28t-18.5 21q-20 25 -43 46.5t-42 47.5h1236q3 -4 13.5 -19t25 -34.5t30.5 -41.5t31 -40.5t26 -31t16 -13.5h-294l-158 -295l-186 295l-165 1l-5 2h-72q5 -101 9 -201t8 -201
l278 -195l144 -109q46 -29 101 -48t110 -19q15 0 32 3t32 6.5t27 6.5t16 3q8 0 17.5 -1t17.5 -2q17 -2 34 -25.5t33.5 -56.5t33 -70t32 -67.5t30.5 -49.5t29 -15q-51 -18 -105 -18z" />
    <glyph glyph-name="u11196" unicode="&#x11196;" horiz-adv-x="1787" 
d="M1737 1253h-291q1 -198 1 -361q0 -69 0.5 -137t0 -124t-1 -96t-1.5 -52q-2 -26 -5.5 -62.5t-18.5 -76t-46.5 -77.5t-89.5 -68q-1 0 -21.5 -7t-52 -13t-68.5 -8t-71 6q-46 12 -87.5 36t-82 52.5t-81 55.5t-85.5 45q-26 11 -57 19.5t-63 5.5q-1 -28 -5 -58.5t-12.5 -55.5
t-21.5 -42t-33 -18q-21 -1 -42 6.5t-41.5 20t-38 27.5t-31.5 30q-9 9 -18 23t-16.5 30.5t-11.5 34t-1 33.5q8 54 39.5 83.5t73.5 38.5h1q5 57 4 124.5t-5 137.5v447h-194l-213 180h1474zM1268 1253h-626v-758h-2q40 -23 82.5 -49.5t87 -51t90 -43.5t90.5 -26.5t89.5 0
t86.5 35.5q25 17 43.5 33t30.5 34.5t19 40.5t9 52v733zM1024 979v-15q-1 5 -1 15h1z" />
    <glyph glyph-name="u11197" unicode="&#x11197;" horiz-adv-x="1577" 
d="M1105 847q76 0 145.5 -36.5t121 -102t78.5 -154.5t19 -194q-4 -57 -29 -99t-62.5 -70.5t-83 -42.5t-91.5 -14q-24 0 -52 5q-37 9 -79.5 32.5t-83 53t-74 60.5t-51.5 56q-17 -20 -29.5 -39.5t-31.5 -41.5q-22 -26 -48.5 -49t-56 -39.5t-61.5 -26t-64 -9.5q-29 0 -58 8.5
t-57 27.5q-33 22 -66.5 52.5t-63.5 65t-55.5 71.5t-41.5 73q-24 53 -27.5 111t11 112.5t44.5 102t74 80.5q36 27 75.5 40t80.5 13q48 0 95 -18t89 -54q15 -14 31.5 -29.5t36.5 -29.5l-5 491h-509l-176 180h1221l168 -180h-519l9 -469q16 17 37 29t44.5 19.5t48 11t46.5 3.5z
M721 504q20 32 42.5 71t42.5 74q-47 23 -95 34t-96 11q-65 0 -121 -22t-93 -69q-36 -46 -55.5 -110.5t-8.5 -132.5q3 -16 15 -25.5t28.5 -15t34 -7t30.5 -1.5q87 0 154.5 52.5t121.5 140.5zM1174 333q34 4 63.5 26t52.5 54.5t38.5 69.5t21.5 71t2 59.5t-20 34.5
q-6 9 -21 15.5t-33 10.5t-35 6t-26 2q-22 0 -48.5 -6.5t-52.5 -18t-48.5 -26t-36.5 -30.5q-44 -52 -78 -108t-70 -113q17 -5 38 -13.5t48.5 -17t62 -14.5t78.5 -6q15 0 31 1t33 3z" />
    <glyph glyph-name="u11198" unicode="&#x11198;" horiz-adv-x="1804" 
d="M1604 81q-117 1 -238 83q-118 80 -232 163l-190 135q-121 86 -147 108q-118 99 -221 121q4 -23 4 -47q0 -9 -1.5 -30t-25.5 -36q-24 -10 -45 -10q-26 0 -63.5 23.5t-72.5 63.5l-27 29q-4 3 -8 7q-28 18 -53 47q-1 1 -2 1.5t-1 1.5l1 -1q-25 31 -25 57q0 23 37 40t70 17
q14 0 26 -3l-20 405h-139q-15 0 -44.5 28t-51.5 55q-13 16 -20 21.5t-24 23.5q-21 21 -41 49h1562l36 -49q9 -13 14.5 -19t17.5 -24.5t27 -37.5t28 -34t19 -16h-290q2 -28 2 -48t3 -34v-13l1 -32h-1l1 -20q0 -15 1 -20l9 -222q-1 9 -52 34q-21 10 -42 19.5t-27.5 13.5
t-24 13.5t-38.5 20.5q-54 29 -55 36l-3 72q-4 60 -6 117l-1 29l3 -44l-3 78h-170q1 -14 1.5 -26.5t1 -23t0.5 -17.5t0.5 -14t0.5 -13t0.5 -10.5t0.5 -19.5q-1 0 -1 -2l1 -12q0 -13 1.5 -17.5t1.5 -11t1 -15.5l2 -69q4 -68 7 -136q-1 7 -56 34q-59 29 -68 33l-62 35
q-52 29 -57 35q-2 70 -5 138t-4 74v5q1 -2 1 -8.5t0.5 -14t1 -13.5t0.5 -7h1l-4 77h-202q-3 0 -5 2h-72q1 -3 17 -402l278 -195q46 -33 97 -70q109 -81 224 -155q71 -45 151 -61q30 -6 60 -6q51 0 106 19h1q6 0 35 -3.5t71 -88.5l76 -155q21 -41 39 -41q3 0 6 1
q-52 -18 -105 -18z" />
    <glyph glyph-name="u11199" unicode="&#x11199;" horiz-adv-x="1730" 
d="M558 -7q-18 0 -31 11l-386 317h286v932h-213l-164 180h1472l158 -180h-274q11 -40 16.5 -81t5.5 -83q0 -27 -2.5 -54t-5.5 -54q-6 -55 -35.5 -108.5t-74 -94.5t-99 -66.5t-111.5 -25.5q-43 0 -88.5 16.5t-91.5 44t-90.5 63t-84.5 73.5t-75.5 76t-62.5 70v-992
q0 -21 -14.5 -32.5t-34.5 -11.5zM920 849q16 0 32 1.5t32 6.5q69 19 118.5 58t81 92t46.5 116t15 130h-638v-122q0 -14 9.5 -25.5t16.5 -22.5q29 -45 54 -87t56.5 -75t73.5 -52.5t103 -19.5z" />
    <glyph glyph-name="u1119A" unicode="&#x1119a;" horiz-adv-x="1650" 
d="M644 0l-180 134v1118h-214l-199 180h1283l198 -180h-372l17 -199q106 -20 222 -132q60 -57 110 -114q91 -103 91 -231q0 -19 -2 -39q-18 -118 -85 -212t-160.5 -172t-194.5 -146q-2 0 -11 7q-63 55 -63 132v2q0 2 1 42t67 97q283 215 283 448q0 70 -28 137
q-60 24 -122 24q-48 0 -95 -15q1 -3 1 -14q1 -3 1 -7q1 -18 2 -46v-6q0 -16 -5 -31q-8 -25 -44 -25q-26 0 -61 36q-13 13 -41 36q-32 26 -65 60.5t-43 69.5l-1 11q0 45 91 76l-18 211h-363v-1252z" />
    <glyph glyph-name="u1119B" unicode="&#x1119b;" horiz-adv-x="1301" 
d="M837 133q-72 0 -128.5 19.5t-104 53.5t-89.5 78.5t-85 95.5q-61 72 -95 150.5t-52 161.5t-23.5 169t-9.5 173l-11 219h-39l-150 180h1053l148 -180h-266l-81 -212q-3 -9 -9.5 -23t-15.5 -27.5t-19.5 -23t-22.5 -9.5q-10 0 -18 9t-14 22t-11 26t-10 21l-135 217h-237
q4 -8 7.5 -37.5t5.5 -72.5t4 -97t3 -110.5t2 -112t1.5 -102.5t0.5 -81.5v-49.5q0 -74 6.5 -119.5t29.5 -70.5t68.5 -33.5t123.5 -8.5q38 0 75.5 2.5t75.5 7.5q18 2 35.5 6.5t35.5 4.5q8 0 21.5 -14.5t30 -37t35 -49.5t36 -52t34 -44t28.5 -26q-118 -23 -234 -23z" />
    <glyph glyph-name="u1119C" unicode="&#x1119c;" horiz-adv-x="1177" 
d="M774 344q-115 0 -232 47.5t-202 123.5l-42 38q-60 54 -115 113t-88 131q-45 98 -45 204q0 85 39 167q93 181 270 236q66 20 129 20q114 0 228 -62q49 -31 86 -85q17 -23 35 -44l48 -40l-3 1q34 -28 63 -65q71 -95 126.5 -218t55.5 -246q0 -4 -1 -69.5t-104 -164.5
q-93 -81 -222 -86zM615 517q95 0 175.5 39.5t123.5 126.5q40 90 40 192q0 6 -1 62t-39 149q-42 97 -134 138q-67 27 -138 28q-9 1 -18 1q-19 0 -36 -3q-190 -26 -297 -190q-45 -71 -64 -152q-8 -43 -9 -88v-10q0 -33 6 -67q13 -74 46.5 -120.5t104.5 -70.5q110 -35 226 -35
h14z" />
    <glyph glyph-name="u1119D" unicode="&#x1119d;" horiz-adv-x="1348" 
d="M893 0q-9 0 -33 21.5t-52 49.5t-54.5 53.5t-40.5 33.5q68 20 129 61.5t106.5 97.5t72.5 123.5t27 140.5q0 53 -14.5 103.5t-39.5 96.5q-43 24 -90.5 37.5t-97.5 13.5q-32 0 -64 -6q0 -37 8 -72.5t8 -71.5q0 -12 -1 -23t-5 -19.5t-12 -13.5t-22 -5q-18 0 -36.5 11
t-36.5 26.5t-34 32t-29 27.5q-17 14 -39.5 34.5t-42.5 44t-34 48.5t-14 49q0 21 10 39t25.5 32t34.5 24.5t37 15.5q-5 63 -9 124t-9 124h-375l-116 180h1137l111 -180h-588l19 -255q52 -15 100.5 -46t88.5 -67q61 -56 123.5 -118.5t111.5 -128.5q39 -54 56 -111.5t17 -123.5
q0 -76 -25 -140.5t-69.5 -116t-105.5 -88.5t-133 -58z" />
    <glyph glyph-name="u1119E" unicode="&#x1119e;" horiz-adv-x="1633" 
d="M1430 135q-50 0 -106.5 10t-116.5 26.5t-120.5 39t-118 47.5t-110 51t-96.5 50q-40 23 -76.5 44.5t-81.5 34.5q0 -27 -3.5 -56t-14.5 -52.5t-32 -39t-56 -15.5q-26 0 -47 17.5t-38 33.5q-38 35 -77 70.5t-74 73.5q-12 13 -20.5 29.5t-8.5 34.5q0 23 12 41t31 31t41 19.5
t42 6.5q14 0 24.5 -3.5t23.5 -5.5q1 20 2.5 41t-0.5 41l-61 548h-160l-138 180h1382l132 -180h-1042l90 -728q30 -18 72.5 -39t91 -42.5t101 -42.5t103 -38t95.5 -29.5t80 -17.5q-23 25 -46.5 52.5t-49.5 50.5q-1 0 3 -2q-18 23 -28.5 49.5t-10.5 55.5v16.5t1 17.5
q1 20 21 36t47 28t54.5 18.5t44.5 6.5q40 0 72.5 -13t61 -33.5t55.5 -45t55 -47.5q26 -22 51.5 -45t49.5 -48q30 -32 48 -69t18 -83q0 -39 -14.5 -64t-38.5 -38.5t-55 -18.5t-64 -5zM1221 313q29 1 61.5 10t60 26t45.5 43t18 61l-1 3q-2 1 -5 1l-12 1q-32 0 -62.5 -8.5
t-54.5 -26t-38.5 -44t-15.5 -61.5z" />
    <glyph glyph-name="u1119F" unicode="&#x1119f;" horiz-adv-x="1890" 
d="M543 561q-3 0 -32 12t-95 47.5t-136.5 85.5t-120.5 108q-54 65 -85 152q-24 66 -24 133q0 20 6 74.5t77 119.5q84 70 180 70q83 0 165 -38.5t149 -103.5q61 -59 116 -118q30 -28 30 -31l-1 -1q2 0 3 -0.5t4 -5.5v13q0 20 -2 39l-3 25q-2 20 -2 39q0 87 56 153
q63 72 145 76q63 -2 113 -42.5t91 -88.5l33 -36q97 -98 187 -201q0 2 9 16l85 122q100 146 111 166q17 31 40 55q39 -41 83 -77q21 -19 33.5 -29.5t33.5 -27.5q48 -41 48 -56l-1 -3l-22 -32l-87 -128q-11 -16 -21 -32q-22 -32 -43.5 -64t-43.5 -64t-43 -64q0 1 -4 4
l-156 155q-27 25 -33 33q-104 123 -115 137q-14 20 -31 37q-27 25 -73 25q-41 0 -75 -20q-101 -63 -115 -181q-5 -41 -5 -82q0 -26 3.5 -74.5t29.5 -110.5l-3 5l-20 19q-62 54 -115 117q-25 32 -49 65q-36 48 -74 94q-42 49 -94 82q-61 38 -139 38q-129 0 -198 -88
q-66 -91 -66 -198q0 -108 56 -160q39 -37 91 -68l92 -56q58 -33 58 -35zM999 756q1 0 1 -1q1 -1 1 -2z" />
    <glyph glyph-name="u111A0" unicode="&#x111a0;" horiz-adv-x="1070" 
d="M701 22l-21 1q-147 12 -260.5 73.5t-222.5 157.5q-13 11 -13 16q0 4 8 4q15 0 78 -15q76 -18 180 -35q31 -4 63 -4q67 0 149.5 25t139.5 118q26 42 39 91q7 26 7 53q0 57 -34 122q-55 51 -120 85q-53 27 -111 27l-24 -1q-84 -33 -89 -33q-19 0 -103 115q-6 7 -11 15
q-29 33 -59 66q43 27 85 33q170 71 238 177q32 47 32 106q0 15 -2 34h-451l-149 180h774l152 -180h-263l7 -14l35 -40q54 -65 65 -141q2 -15 2 -29q0 -63 -40 -123q-48 -67 -111 -107q36 -34 65 -67q97 -100 186 -207q36 -40 65.5 -88t32.5 -105q0 -144 -102 -230
q-93 -80 -217 -80z" />
    <glyph glyph-name="u111A1" unicode="&#x111a1;" horiz-adv-x="1513" 
d="M1208 -11l-180 153v315q0 -8 -1 -12v54q-59 -14 -116.5 -29.5t-118.5 -15.5q-38 0 -79 6.5t-74 23.5t-68 42.5t-65.5 56.5t-54 66.5t-34.5 72.5q-14 46 -19 91t-5 93q0 64 3 128t3 128q0 23 -0.5 45.5t-5.5 45.5h-181l-162 180h1250l163 -180h-253zM473 1253
q10 -8 22 -20t23 -25.5t19 -27.5t11 -27q3 -16 5 -41t3 -52t1.5 -53t1.5 -44l469 -9q1 75 1.5 149.5t0.5 149.5h-557zM560 870q0 -33 -3 -66t-3 -66q0 -24 0.5 -49.5t8 -47.5t24 -36t47.5 -14q32 0 61.5 7t58.5 16q30 9 60 19.5t57.5 24t52 32.5t44.5 45q20 27 36.5 58.5
t21.5 65.5z" />
    <glyph glyph-name="u111A2" unicode="&#x111a2;" horiz-adv-x="1617" 
d="M1390 136q-33 0 -64 7.5t-60 19t-58.5 24.5t-59.5 25q-57 22 -114.5 41t-114.5 40q-32 12 -73 26.5t-84 27.5t-84.5 23t-74.5 13q1 -5 1.5 -11t0.5 -11q0 -24 -9.5 -46t-26 -39.5t-38 -28t-45.5 -10.5t-49.5 13t-50 32t-46.5 39t-40 33q-15 11 -32.5 24.5t-32 29.5
t-24.5 34.5t-10 39.5q0 25 13 41.5t32.5 26t42.5 13t42 3.5q14 0 27.5 -1t27.5 -4q-2 33 -6.5 65t-10.5 64l-66 563h-104l-148 180h1229l213 -180h-999l90 -690l292 -96q44 -14 89.5 -33.5t92.5 -37t94.5 -30t94.5 -12.5q16 0 33 12t32 30t26 39.5t15 39.5q-9 9 -12 15
q3 -5 5 -5t3.5 3t3 5t2 2.5t0.5 -5.5q0 -5 -2 -15q12 -12 30 -27t37 -29t36 -26t25 -17q16 -10 31.5 -21t28 -24.5t20 -30t7.5 -37.5q0 -34 -17 -58.5t-43.5 -39.5t-57.5 -22t-60 -7z" />
    <glyph glyph-name="u111A3" unicode="&#x111a3;" horiz-adv-x="1537" 
d="M1014 140q-57 0 -103 19.5t-88 50.5q-91 67 -159.5 138t-116.5 150.5t-75.5 168.5t-37.5 191q-1 17 -3 48t-3.5 69.5t-3.5 80.5t-4.5 80t-5.5 69t-6 48h-171l-186 180h1243l193 -181l-285 1q9 -37 16.5 -89t14 -111t11 -121.5t8 -122t5 -111.5t1.5 -90q0 -37 -1 -86
t-7.5 -101t-21 -102.5t-41.5 -90t-69 -64t-104 -24.5zM824 320q43 0 86.5 20.5t68.5 51.5q32 39 49 90t25 106.5t9.5 110.5t1.5 101q0 22 -0.5 58t-1.5 79t-3 89.5t-4.5 89.5t-5.5 79t-7 58h-462q5 -42 10.5 -98.5t11.5 -120t12.5 -130.5t13 -130t13 -119.5t13.5 -98.5
l10 -64t15 -64q17 -61 50 -84.5t95 -23.5z" />
    <glyph glyph-name="u111A4" unicode="&#x111a4;" horiz-adv-x="1289" 
d="M985 0l-180 134v564h-352l-160 180h512v374h-595l-160 181h1039l150 -181l-254 1v-1253z" />
    <glyph glyph-name="u111A5" unicode="&#x111a5;" horiz-adv-x="1214" 
d="M932 469v-12t-1 -12v54q-58 -14 -116 -29.5t-119 -15.5q-52 0 -97.5 12t-85 34.5t-75 54.5t-67.5 72q-24 29 -38.5 62.5t-22.5 69t-10.5 72.5t-2.5 73q0 65 3 129t3 129q0 30 -2 59.5t-10 58.5q-18 4 -36.5 3.5t-36.5 -0.5q-8 0 -20.5 10t-27.5 25t-31.5 33t-32.5 34.5
t-30.5 29t-25.5 17.5q6 1 12.5 1h12.5q28 0 54.5 -5.5t51.5 -18.5q15 -7 40 -25t54.5 -41t60 -50t55.5 -53t42 -48.5t19 -38.5q9 -68 11 -137t2 -138q0 -39 -3.5 -78t-3.5 -79q0 -22 1.5 -45t9.5 -42t24 -31t45 -12q31 0 61 7t59 16q30 9 60 19t57.5 24t52 33t44.5 45
q24 32 41.5 69t17.5 78q0 139 1 275.5t2 275.5h180l-2 -1444q-2 7 -16.5 19.5t-34.5 27t-42.5 30.5t-42 30.5t-32 26.5t-12.5 19v327z" />
    <glyph glyph-name="u111A6" unicode="&#x111a6;" horiz-adv-x="1564" 
d="M761 127q-29 0 -66.5 10t-75 25.5t-71 33.5t-53.5 33q-14 11 -30.5 28t-32.5 36.5t-31 38.5t-26 33q-47 61 -73.5 130t-26.5 142q0 19 1.5 53t4.5 75.5t7 86t8.5 86t10 75t11.5 51.5q15 48 31.5 93.5t16.5 95.5h-209l-107 180l1288 1l176 -181h-1003q7 -26 11 -42t6 -30
t2.5 -31t0.5 -44q0 -16 -1.5 -47t-4 -69.5t-6.5 -80.5t-8.5 -80t-9.5 -68.5t-10 -46.5q-23 -66 -38.5 -133t-15.5 -136q0 -34 6.5 -67.5t17.5 -66.5q3 -2 11.5 -3.5t18.5 -2t19 -1t13 -0.5q25 0 52 2t53 7.5t50 15.5t42 26q30 26 57 63t54.5 76.5t57 78.5t64.5 70t77 50
t95 19q40 0 72.5 -15t59.5 -37.5t49.5 -49t43.5 -50.5q23 -26 48 -52t45 -55q10 -14 16 -33.5t9 -40t4 -40.5t1 -36q0 -3 -4 -9.5t-8.5 -14t-9 -14.5t-6.5 -9q-34 -46 -101 -46q-35 0 -73 21t-73 50.5t-63.5 62t-45.5 55.5l-13 17q-27 -35 -58 -84.5t-69 -95t-84 -77.5
t-104 -32zM1230 343q35 0 60 14.5t41.5 37t24.5 49.5t8 51q-5 1 -10.5 1.5t-10.5 0.5q-32 0 -62 -9t-56.5 -24t-49 -34.5t-40.5 -39.5q12 -10 21 -19t19 -15t23 -9.5t32 -3.5z" />
    <glyph glyph-name="u111A7" unicode="&#x111a7;" horiz-adv-x="1170" 
d="M546 1253h-336l-95 180h899l106 -180l-394 2q2 -59 3 -133.5t2.5 -157t2.5 -168.5t2 -168.5t1.5 -157t0.5 -133.5q0 -111 -51 -165.5t-165 -54.5q-38 0 -78.5 10t-73.5 30q-30 18 -73 52.5t-86.5 74.5t-80 80.5t-54.5 68.5q-25 41 -25 85q0 60 30.5 105.5t77 76.5t103 47
t107.5 16q45 0 93 -11t89 -31q-1 27 -1.5 69.5t-1 92.5t-0.5 104t-0.5 104t-0.5 92.5t-1 69.5zM556 520q0 14 0.5 25.5t-2.5 20t-11 13t-26 4.5q-40 0 -80 -9.5t-75.5 -28.5t-63.5 -47t-45 -66q-8 -17 -15 -41.5t-7 -42.5q0 -20 8.5 -32.5t22 -19.5t30 -9.5t32.5 -2.5
q116 0 174 62t58 174z" />
    <glyph glyph-name="u111A8" unicode="&#x111a8;" horiz-adv-x="1304" 
d="M1007 146q-55 0 -108 17.5t-103 46t-97 66.5t-90.5 79.5t-83 83t-74.5 78.5l2 1q12 -4 25 -15t26.5 -24t26 -26t22.5 -22q23 -20 58.5 -38.5t75 -33t78.5 -23.5t69 -9q12 0 24.5 1t24.5 3q43 6 77.5 31.5t59 61.5t37.5 79t13 83q0 59 -24 114.5t-54 104.5
q-26 17 -59 29.5t-68 21.5t-70.5 13.5t-65.5 4.5q-41 0 -80.5 -7t-77.5 -18q5 -48 9.5 -94t4.5 -94q0 -18 -1 -31.5t-6 -23t-17 -14t-33 -4.5q-20 0 -31.5 2.5t-28.5 13.5q-24 15 -47 36.5t-45.5 46t-43 49.5t-40.5 46l2 -1q-14 20 -22.5 43.5t-8.5 48.5q0 27 10.5 51.5
t28 45t40 35.5t47.5 22q-2 56 -0.5 113t-2.5 113l-221 -1l-115 181h843l179 -180h-505q2 -51 2 -105v-96q74 -4 150.5 -27t138.5 -65q41 -28 74.5 -63t68.5 -70q23 -23 46.5 -44t44.5 -45q27 -31 56 -75t52.5 -92.5t38.5 -98t15 -91.5q0 -47 -21.5 -89.5t-56 -75t-79 -51.5
t-90.5 -19z" />
    <glyph glyph-name="u111A9" unicode="&#x111a9;" horiz-adv-x="1337" 
d="M1287 1433v-1433l-180 138l-2 537h-413q2 -28 -2 -59t-16 -57t-34.5 -43.5t-58.5 -17.5q-22 0 -50.5 10t-57.5 26.5t-57 38.5t-50 46.5t-35.5 50t-13.5 49.5q0 26 16 48v2q27 34 57.5 44.5t72.5 10.5q47 38 71 80t24 102q0 43 -13.5 87t-40.5 77q-15 19 -37.5 34
t-47.5 26t-51.5 17t-50.5 6h-140q-7 6 -27.5 24t-42.5 37.5t-39.5 36t-17.5 18.5l19 12q38 24 81.5 38t88.5 14q71 0 134 -34q62 -33 111 -80t85.5 -103.5t61 -120.5t37.5 -132q5 -29 10 -50t5 -51v-15.5t-1 -15.5h425v603z" />
    <glyph glyph-name="u111AA" unicode="&#x111aa;" horiz-adv-x="1392" 
d="M1191 0l-180 134v335q-87 -71 -188 -71q-25 0 -102.5 12t-180.5 106q-30 27 -69 67q-12 2 -56 58q-49 56 -84 121q-30 55 -31 108q0 8 2.5 41.5t69.5 80.5q58 42 129 44q41 -1 82 -9l40 -8q9 -6 16 -6q8 0 14 9q-8 11 -38 38q-80 81 -206 165q-14 10 -25 28h-178
q-16 0 -63 66l-30 38q-18 27 -46 60q-11 12 -20 16h1132q19 0 70 -74l53 -70q27 -36 39 -36h2h-4h-145zM695 531q119 6 199.5 81.5t99.5 205.5q13 94 17 191v173l-7 71h-459q169 -151 328 -300l-86 -79q-109 28 -159 28q-47 0 -91.5 -20t-78 -59.5t-33.5 -95.5
q0 -52 26 -103q15 -12 32 -23q111 -70 207 -70h5z" />
    <glyph glyph-name="u111AB" unicode="&#x111ab;" horiz-adv-x="1264" 
d="M682 5q-13 0 -26 1t-21 12l-494 598h414v638h-414q-6 0 -19.5 24.5t-28.5 56t-27.5 60.5t-15.5 38h1079q5 -12 16.5 -39t24 -56.5t25 -53.5t19.5 -30q-45 0 -90 -0.5t-90 -0.5l-120 -2q-45 0 -90 -0.5t-90 -0.5v-1200q0 -22 -16 -33.5t-36 -11.5z" />
    <glyph glyph-name="u111AC" unicode="&#x111ac;" horiz-adv-x="1661" 
d="M1219 0l-180 134v761v2l-2 4q-27 9 -55 9q-43 0 -79.5 -18t-62.5 -48t-40.5 -69t-14.5 -80q0 -33 9 -65t25 -61q-12 13 -23.5 27t-24.5 26q-27 26 -53 51.5t-42 59.5q-11 23 -24.5 48.5t-29.5 46.5q-9 12 -31.5 22.5t-48.5 18t-51.5 12t-40.5 4.5q-55 0 -96 -20
t-68.5 -54.5t-41 -80t-13.5 -95.5q0 -40 12.5 -80.5t32.5 -78.5t45.5 -73t51.5 -64q-16 15 -23.5 22.5l-13.5 13.5t-13 14t-22 24q-37 40 -73.5 82.5t-65.5 88.5t-47.5 97t-18.5 109q0 51 14.5 95t42.5 76.5t69 51t94 18.5q56 0 103.5 -20.5t88.5 -53t77.5 -72.5t70.5 -78v7
l-1 15q0 39 11.5 80.5t35 75.5t57.5 56t79 22q35 0 61.5 -11t49.5 -28t44.5 -37.5t45.5 -39.5v305h-793l-5 5h-37q-6 0 -18.5 12.5t-28 31t-32.5 40.5t-31.5 41t-26.5 31.5t-17 12.5h9l-8 6h988v1h64l1 -1h313l194 -180h-392v-1252z" />
    <glyph glyph-name="u111AD" unicode="&#x111ad;" horiz-adv-x="1808" 
d="M1758 1253h-140v-4q0 -15 -3 -40t-7 -52t-8 -52.5t-6 -42.5q-2 -16 -4 -34t-5.5 -36.5t-9.5 -35t-17 -29.5q-38 -43 -96 -43q-39 0 -88.5 19.5t-102.5 51t-107 71.5t-102.5 81t-88.5 79.5t-65 66.5q-23 0 -45.5 -0.5t-45.5 0.5h-107l19 -255q52 -15 100.5 -46t88.5 -67
q61 -56 123.5 -118.5t111.5 -128.5q39 -54 56 -111.5t17 -123.5q0 -76 -24.5 -144.5t-68.5 -124.5t-104.5 -96.5t-132.5 -61.5h-1q-6 0 -19 12t-30.5 30.5t-36.5 40.5t-37.5 42.5t-34 36t-24.5 20.5q68 20 129 61.5t106.5 97.5t72.5 123.5t27 140.5q0 53 -14.5 103.5
t-39.5 96.5q-43 24 -90.5 37.5t-97.5 13.5q-32 0 -64 -6q0 -37 8 -72.5t8 -71.5q0 -12 -1 -23t-5 -19.5t-12 -13.5t-22 -5q-18 0 -36.5 11t-36.5 26.5t-34 32t-29 27.5q-17 14 -39.5 34.5t-42.5 44t-34 48.5t-14 49q0 21 10 39t25.5 32t34.5 24.5t37 15.5q-5 63 -9 124
t-9 124h-375q-5 0 -14.5 11.5t-21 29t-24 39t-24 41.5t-20 36t-12.5 23h1061q68 1 135 1h135q51 0 103.5 2t103.5 -3q10 -1 24 -14.5t31 -33t34.5 -42t33 -42.5t28 -33.5t19.5 -14.5zM1403 1253h-105h-238h-114q26 -17 49.5 -34t42.5 -42q12 -16 24.5 -34t27.5 -31
q14 -12 36 -24t47 -22t49.5 -16.5t42.5 -6.5q38 0 63.5 21.5t41 53.5t23 68.5t10.5 66.5z" />
    <glyph glyph-name="u111AE" unicode="&#x111ae;" horiz-adv-x="1191" 
d="M929 0l-180 134v127q-122 45 -249 110q-62 35 -116 86.5t-102 107.5q-58 58 -58 108q0 6 5 33.5t48 65t99 64.5q49 24 97 48t97 49t98 48l96 47l3 -1v226h-581q-15 0 -58 70q-8 14 -12 19t-13 20t-19 30q-27 41 -34 41h956q6 0 17 -13t40 -56q8 -13 11 -16.5t34 -53.5
q25 -41 33 -41h-212v-398h5l-5 -3v-852zM749 410v398l-212 -106q-52 -26 -91.5 -60t-57.5 -89l48 -18q56 -20 162 -62q140 -55 151 -63z" />
    <glyph glyph-name="u111AF" unicode="&#x111af;" horiz-adv-x="1343" 
d="M1046 -8l-180 142v547h-421v-199l-383 367h204v403h-104q-32 43 -57 89t-55 91h269v1h911q2 0 6 -9.5t8.5 -22t8 -24t4.5 -15.5q8 -28 16 -55.5t20 -53.5h-243zM445 849h421v403h-421v-403z" />
    <glyph glyph-name="u111B0" unicode="&#x111b0;" horiz-adv-x="1210" 
d="M1108 0l-179 134v323q0 -8 -1 -12v54q-59 -14 -116.5 -29.5t-118.5 -15.5q-37 0 -78.5 6.5t-74.5 23.5q-33 18 -68 43t-65.5 56t-54 66.5t-34.5 72.5q-14 46 -19 91t-5 93q0 64 3 128t3 128q0 32 -2 60t-10 58q-19 4 -36.5 3.5t-36.5 -0.5q-7 0 -19.5 9.5t-27.5 23.5
t-31.5 31t-32.5 33t-30 27.5t-24 15.5q6 1 12.5 1h12.5q28 0 54.5 -5.5t51.5 -18.5q15 -8 39.5 -25t53.5 -39t59 -47t55 -50t41.5 -47.5t19.5 -38.5t4.5 -38t3 -47t2.5 -52t1 -53l468 -12v67l3 279v136h179zM461 870q-1 -33 -3.5 -66t-2.5 -66q0 -24 0.5 -49.5t8 -47.5
t24 -36t47.5 -14q32 0 61.5 7t58.5 16q30 9 60 19t57.5 24t52 33t44.5 45q20 27 36 58t21 66z" />
    <glyph glyph-name="u111B1" unicode="&#x111b1;" horiz-adv-x="1354" 
d="M931 134v547h-486v-199l-383 367h204v403h-104l-112 180h337q24 0 41 -27.5t17 -66.5v-489h486v403h-72q-7 0 -27 70l-11 39q-20 72 -25 72h445l63 -180h-193v-1261z" />
    <glyph glyph-name="u111B2" unicode="&#x111b2;" horiz-adv-x="1551" 
d="M931 996q60 0 125.5 -15.5t129 -44.5t120.5 -70.5t100.5 -92.5t69 -111t25.5 -127q0 -66 -22.5 -123.5t-58.5 -108t-81.5 -95t-92.5 -83.5l-212 121l14 11q42 33 85 73.5t77.5 87t56.5 99t22 110.5q0 25 -5.5 53.5t-16.5 55.5t-27 50.5t-36 39.5q-3 3 -17.5 7t-31 7.5
t-31.5 6.5t-20 3q-42 0 -81 -5.5t-77 -27.5q-69 -41 -115 -105t-81 -135q-2 -4 -2 -6q-8 -16 -27 -16q-3 0 -23 9t-51 24.5l-70 35t-80 40.5t-80.5 42t-72.5 38t-56 28.5t-30 15.5q-19 10 -31.5 29.5t-12.5 40.5q0 9 13.5 38t34.5 69.5t45.5 86t47.5 86.5t40 72.5t23 42.5
h-182l-186 180h1268l179 -180h-879l-221 -418l161 -112q25 50 59 99t77 87.5t94.5 62.5t112.5 24h30z" />
    <glyph glyph-name="u111B3" unicode="&#x111b3;" horiz-adv-x="685" 
d="M516 1433l119 -180h-477l1 -2v-474l-179 182v294h-176l-119 180h831z" />
    <glyph glyph-name="u111B4" unicode="&#x111b4;" horiz-adv-x="681" 
d="M526 0l-180 134v1120h-177l-119 180h270q-14 23 -27.5 50.5t-24.5 57t-18 59t-7 56.5q0 56 20.5 100.5t55.5 75.5t82 48t100 17q78 0 150 -32t137.5 -81t123 -108t105.5 -112q14 -15 28.5 -29.5t26.5 -31.5v-75q-17 14 -32.5 29t-30.5 29q-40 39 -78.5 74.5t-81.5 63.5
t-94.5 44.5t-117.5 16.5q-50 0 -94.5 -5t-77.5 -21.5t-52.5 -47.5t-19.5 -82q0 -48 14 -96h477l119 -180h-479l2 -2v-1252z" />
    <glyph glyph-name="u111B5" unicode="&#x111b5;" horiz-adv-x="506" 
d="M246 0l-180 134l1 1119h-448l-119 180h169q-16 18 -55 46q-76 53 -76 73v3l9 29q28 90 71.5 176.5t118.5 147.5q71 55 152 65l25 1q69 0 134 -42q56 -39 114.5 -98.5t85.5 -123.5q22 -63 22 -124q0 -8 -1 -46.5t-20 -106.5h87l120 -180h-211l2 -3zM99 1433q-12 13 -12 22
q0 2 6 19q51 147 51 231q0 70 -24 129q-34 11 -69 11q-17 0 -35 -3q-98 -19 -162.5 -83.5t-105 -151t-67.5 -174.5h418z" />
    <glyph glyph-name="u111B6" unicode="&#x111b6;" 
d="M541 134v-552l-541 418h361v134h180z" />
    <glyph glyph-name="u111B7" unicode="&#x111b7;" 
d="M764 134v-198l-690 -245l-24 51l534 254v138h180z" />
    <glyph glyph-name="u111B8" unicode="&#x111b8;" 
d="M484 -290h-5q-75 0 -152 53q-74 51 -153 101q-156 99 -174 270h180v-58q0 -150 40 -212l14 -11q24 -20 57 -27q36 -7 76 -8q120 7 185 102q34 58 34 115q0 44 -18 92q8 -12 41 -39l34 -28q61 -45 61 -131q0 -115 -98 -183q-62 -35 -122 -36z" />
    <glyph glyph-name="u111B9" unicode="&#x111b9;" 
d="M553 -290h-4q-54 0 -114 53q-67 51 -146 101q-157 101 -180 270h180v-55q0 -153 46 -215l14 -11q24 -19 57 -27q29 -7 61 -8q88 7 133 95q18 47 18 104q0 10 -2 34q-2 14 -2 47q0 5 -1 28v8h95v-52q0 -153 25 -215l8 -11q12 -20 30 -27q19 -7 40 -8q86 7 134 102
q24 58 24 115q0 44 -12 92q6 -13 30 -39l25 -28q43 -45 43 -131q0 -115 -70 -183q-46 -35 -88 -36h-2q-57 0 -105 53q-41 46 -82 101q-15 -73 -66 -121q-45 -35 -89 -36z" />
    <glyph glyph-name="u111BA" unicode="&#x111ba;" 
d="M1074 -414q-47 0 -94.5 10.5t-83.5 30.5q-24 13 -59.5 34t-71.5 44.5t-68 46t-50 38.5q-25 23 -35 47t-10 51q0 29 16 55.5t45 49.5q31 24 72 37.5t84 22.5t84.5 17t74.5 21.5t53 36t20 59.5q0 11 -3 23q-23 5 -46.5 5.5t-47.5 0.5q-25 0 -53.5 -3.5t-58 -8.5t-57 -12
t-49.5 -15h-2q-14 0 -39.5 18.5t-53 40t-51.5 40t-35 18.5q45 14 93 24t99 15v97l-236 -1v-843q0 5 -13 13.5t-33 20t-43.5 23.5t-43.5 23.5t-33.5 21.5t-13.5 17v725q-20 -1 -38.5 -1h-38.5h-82l-172 138h1191l170 -138h-9l-19 1h-9l-396 -1v-119q42 -16 74.5 -35.5
l67.5 -40.5q25 -15 53.5 -32.5t53 -37t40.5 -41.5t16 -46q0 -41 -21 -65t-55 -38t-77 -21.5t-86.5 -16t-83.5 -21t-68 -35.5q-27 -22 -45 -52t-18 -59q0 -14 4 -27t11 -25q53 -13 112 -13q35 0 70.5 6t69 16.5t63.5 24.5t54 30q6 -3 21.5 -12.5t35.5 -21.5t41.5 -26
t39.5 -26t30 -20.5t12 -10.5q-53 -34 -123.5 -56t-145.5 -22z" />
    <glyph glyph-name="u111BB" unicode="&#x111bb;" 
d="M1073 -401q-94 0 -178 40q-87 49 -169 105l-19 13q-33 21 -60.5 46t-38.5 54q-7 24 -7 45q0 57 61 104.5t187 67.5q57 7 112.5 25t77.5 58q12 23 12 45q0 12 -3 22q-44 8 -89 8h-6q-115 -5 -218 -39h-2q-14 0 -41 17.5t-58 44.5q-28 23 -49 38t-29 15h-1q89 31 192 42h-1
v67h-237q2 -23 2 -27v-811q0 7 -42 30q-45 25 -50 28.5t-18 10.5q-71 37 -71 50l2 719h-29q-31 0 -34 1h-99l-170 152h1718l112 -152h-93q-51 -94 -134 -207q-24 -36 -69 -61q-22 -11 -46 -11q-57 1 -163 80q-6 4 -8 6q-99 81 -177 192h-214v-91q78 -31 142 -79
q12 -5 38 -23q45 -26 82 -57q43 -35 43 -75q0 -42 -31.5 -75t-99.5 -48q-32 -7 -65 -12q-56 -8 -107 -21.5t-87 -42.5q-39 -32 -54 -72q-7 -20 -8 -40v-4q0 -19 9 -38l5 -10q52 -13 107 -13h6q149 7 255 79q6 -3 92.5 -58.5t88.5 -61.5q-92 -58 -215 -73q-27 -3 -54 -3z
M1374 216q58 0 103 56q21 26 39 54q23 36 51 92h-253q-30 -1 -82 -1h-47q15 -26 114 -138l54 -62q10 -1 21 -1z" />
    <glyph glyph-name="u111BC" unicode="&#x111bc;" 
d="M162 1618l-162 180h1141l163 -180h-1142z" />
    <glyph glyph-name="u111BD" unicode="&#x111bd;" 
d="M162 1805l-162 180h1141l163 -180h-1142zM235 1430l-162 180h1141l163 -180h-1142z" />
    <glyph glyph-name="u111BE" unicode="&#x111be;" 
d="M1063 1433q-16 64 -52 124q-46 19 -94 23q-9 1 -21 1q-29 0 -79 -6.5t-105 -80.5l-63 54q-98 68 -98 84v1q7 24 10 48q2 14 2 29q0 47 -18 91l-6 7q-14 5 -27 6l-19 1q-164 -6 -245 -145v0q0 11 -70 58q-92 68 -92 83v1q82 137 221 137q14 0 28 -1q89 -8 169 -73
q3 -1 7 -5q91 -69 159 -151q101 16 142 16h11q48 -4 117 -37t133.5 -86.5t119.5 -112.5q28 -29 50 -66v-30h-180v30z" />
    <glyph glyph-name="u111BF" unicode="&#x111bf;" horiz-adv-x="704" 
d="M335 958q-74 0 -160 294l-280 1l-183 180l493 -1q-15 64 -57 123q-45 19 -87 23q-9 1 -20 1q-28 0 -83 -6.5t-104 -80.5l-57 54q-111 68 -111 84v1q6 24 9 48q1 14 1 28q0 47 -15 92l-4 7q-13 5 -25 6l-17 1q-170 -6 -243 -145v0q0 11 -86 58q-82 67 -82 83v1
q73 137 219 137q14 0 28 -1q102 -9 174 -73q3 -1 6 -5q83 -69 165 -151q91 16 134 16h12q55 -4 119.5 -37t132 -87.5t117.5 -111.5q27 -31 53 -65h91l179 -180h-184q-56 -294 -128 -294h-7z" />
    <glyph glyph-name="u111C0" unicode="&#x111c0;" horiz-adv-x="843" 
d="M320 -406q-65 80 -131.5 156.5t-137.5 151.5q-18 19 -37 37.5t-36 38.5q-6 8 -15 19.5t-10 21.5q-2 24 -2.5 45t0 41.5t0.5 41.5v46q-2 245 -4 488t-4 488q0 20 -1 42t-5 42l-242 1q-8 6 -20.5 21t-27 35t-29.5 41.5t-28.5 39.5t-24.5 30t-16 13l396 -1q0 12 -1 33.5
t2 42t12.5 35.5t30.5 15q53 -1 80.5 -1.5t40.5 -11t14.5 -36.5t1.5 -77l374 1q5 0 15.5 -13t23.5 -32.5t27.5 -42.5t27.5 -43t23.5 -34t16.5 -16h-512l9 -1267q0 -6 9 -26.5t23 -48t30.5 -59t31.5 -60t26 -49.5t14 -27l14 -28t16.5 -32.5t15 -32.5t9.5 -29z" />
    <glyph glyph-name="u111C1" unicode="&#x111c1;" horiz-adv-x="702" 
d="M232 6q-22 0 -43.5 1.5t-42.5 5.5l-96 125q48 -12 99 -12q47 0 93 12t82 36.5t58 63t22 92.5q0 51 -18 98t-39.5 93.5t-39.5 94.5t-18 100q0 50 19.5 85t52 59t73.5 38t84 20l134 -120q-32 -3 -67.5 -10t-65 -22t-49 -41t-19.5 -67q0 -43 17.5 -88.5t38.5 -92.5
t38.5 -96.5t17.5 -101.5q0 -71 -27.5 -122.5t-73.5 -85t-106 -49.5t-124 -16z" />
    <glyph glyph-name="u111C2" unicode="&#x111c2;" horiz-adv-x="1191" 
d="M949 572h-180l-1 1l-384 166q-26 17 -51 35t-51 36q-8 6 -18 13t-19 16t-15 19.5t-6 21.5q0 26 16.5 40t36.5 26q23 13 48 23.5t51 18.5q15 5 48.5 16.5t76 25.5t88.5 29t84.5 27.5t64.5 20t29 6.5v140h-581q-7 0 -18 13t-24.5 33t-28 43t-27 43t-23 34t-15.5 14h899
v-861zM749 671v298l-203 -89q-18 -8 -28 -11.5t-23.5 -9t-35 -15t-63.5 -29.5q29 -10 54 -21t48 -21.5l46 -21t48 -20.5l36 -13.5t41.5 -15.5t42 -15.5t37.5 -15.5z" />
    <glyph glyph-name="u111C3" unicode="&#x111c3;" 
d="M156 1564q-60 1 -97.5 35t-51 82t-2 102t48.5 95q54 60 125 89.5t143 29.5t134 -29.5t99 -89.5q39 39 95 62q18 8 40 17t45 16t46 10.5t42 -1.5q46 -10 79.5 -35.5t54.5 -60t30 -76.5t5 -85t-20 -85.5t-45 -77.5l-331 -1q1 1 2 1t2 1zM475 1691q0 28 -3.5 55.5t-11.5 53
t-22.5 48.5t-36.5 42q-30 26 -72 47t-83 21q-30 0 -55 -16t-40 -56q-8 -21 -14 -44.5t-7.5 -48t3 -48.5t17.5 -45q2 -3 8 -11zM895 1694q5 19 1 44.5t-21 60.5q-7 15 -24 39.5t-39.5 48t-48 40t-51.5 16.5q-29 0 -50.5 -23t-36 -55t-22.5 -66t-11 -56q1 -12 0.5 -24.5
t-2.5 -26.5z" />
    <glyph glyph-name="u111C4" unicode="&#x111c4;" horiz-adv-x="1495" 
d="M337 1616q-2 0 -26.5 24t-57 56.5t-57.5 57t-25 26.5l4 3q99 112 219 193q115 70 249 70l42 -1q151 -17 274 -105q63 -50 119 -106l33 -33q55 -55 110 -113q15 -15 29 -31q-15 16 -29 31q-26 27 -54 52l-7 7q-72 60 -151 93q-98 40 -201 40q-159 0 -288 -97
q-98 -75 -183 -167zM729 1553l-145 146l145 148l146 -148zM426 1h-3l-2 -1q-2 5 -11.5 14.5t-13.5 14.5q-7 8 -20.5 24t-30.5 35t-34.5 40t-32 38t-23.5 29t-9 14q-8 131 -7.5 261.5t0.5 261.5q0 130 3 257.5t8 257.5h-26q-44 45 -86.5 90t-87.5 90h1221l174 -177h-27l3 -3
h-170q-1 -2 -4.5 -6.5t-2.5 -6.5q-32 -60 -65 -119.5t-64 -120.5l27 -30q8 -4 30.5 -28.5t47.5 -55t46.5 -58t26.5 -37.5v-1q27 -35 47.5 -69.5t34.5 -70.5t21.5 -75t7.5 -84q0 -84 -28.5 -159t-80 -131t-123.5 -89t-158 -33q-68 0 -127 25t-110.5 65t-96 89t-83.5 97
q-50 60 -96.5 118.5t-81.5 127.5v-55q0 -136 3.5 -269.5t3.5 -269.5zM1225 690q0 12 -2 36.5t-6 50.5t-11 48t-18 29t-25.5 10t-27.5 3q-27 0 -50 -15q-10 -6 -28 -22t-35.5 -34.5t-31.5 -36.5t-16 -29q-44 53 -87.5 105t-88.5 104q-1 -1 -1.5 -0.5t0.5 1.5q17 42 40.5 81.5
t50.5 77.5t55 75t54 73h-548q3 -93 9.5 -203.5t21 -222.5t40 -218t67.5 -192q14 -28 32 -44.5t45 -29.5q42 -20 88 -35.5t93 -15.5q83 0 152.5 33t120 89t79 129t28.5 153z" />
    <glyph glyph-name="u111C5" unicode="&#x111c5;" horiz-adv-x="388" 
d="M100 134v1119l181 -140l7 -1113z" />
    <glyph glyph-name="u111C6" unicode="&#x111c6;" horiz-adv-x="758" 
d="M470 145v1119l181 -140l7 -1113zM100 134v1119l181 -140l7 -1113z" />
    <glyph glyph-name="u111C7" unicode="&#x111c7;" horiz-adv-x="428" 
d="M50 780l164 164l164 -164l-164 -164z" />
    <glyph glyph-name="u111C8" unicode="&#x111c8;" horiz-adv-x="285" 
d="M50 -451v448l178 -116l7 -477z" />
    <glyph glyph-name="u111C9" unicode="&#x111c9;" horiz-adv-x="819" 
d="M182 -596q-22 0 -43.5 1t-42.5 3l-96 82q24 -4 49 -6t50 -2q47 0 93 7.5t82 24t58 42t22 61.5q0 34 -18 65t-39.5 61t-39.5 61t-18 65q0 33 19.5 56t52 39t73.5 25t84 13l134 -78q-32 -2 -67.5 -6.5t-65 -14.5t-49 -27.5t-19.5 -44.5q0 -29 17.5 -58.5t38.5 -60.5
t38.5 -63.5t17.5 -66.5q0 -47 -27.5 -80.5t-73.5 -55t-106 -32t-124 -10.5z" />
    <glyph glyph-name="u111CA" unicode="&#x111ca;" 
d="M642 1095l-146 -148l-145 148l145 146z" />
    <glyph glyph-name="u111CB" unicode="&#x111cb;" 
d="M0 1422v647l178 -116l7 -676z" />
    <glyph glyph-name="u111CC" unicode="&#x111cc;" 
d="M0 -545l35 239l512 -617l-35 -241z" />
    <glyph glyph-name="u111CD" unicode="&#x111cd;" horiz-adv-x="1396" 
d="M717 897q31 -10 46 -37.5t7 -58.5q-9 -32 -37 -47t-59 -7q-32 9 -47.5 37t-6.5 59q5 20 19 33.5t32 19.5v267l45 -70zM864 740q14 -9 17.5 -24.5t-4.5 -29.5q-11 -19 -33 -19q-11 0 -20 6q-14 9 -17.5 24.5t4.5 29.5q11 19 33 19q11 0 20 -6zM567 740q14 -9 17.5 -24.5
t-4.5 -29.5q-11 -19 -33 -19q-11 0 -20 6q-14 9 -17.5 24.5t4.5 29.5q11 19 33 19q11 0 20 -6zM716 635q15 -4 27 -14t19.5 -23t9.5 -28.5t-2 -30.5q-8 -26 -28.5 -41t-46.5 -15q-10 0 -21 3q-32 9 -47.5 36.5t-6.5 59.5q7 26 28 41t46 15q12 0 22 -3zM436 635
q32 -9 47.5 -37t6.5 -59q-8 -26 -28.5 -41t-46.5 -15q-22 0 -41 12t-29 32h-214l-81 45h288q0 13 7 25t18.5 21t25 14.5t26.5 5.5q11 0 21 -3zM1003 634q23 -7 37 -23.5t18 -38.5h206l82 -45h-293q-12 -26 -38 -38.5t-54 -4.5q-32 9 -47.5 37t-6.5 59q4 15 14 27t23 19.5
t28.5 9.5t30.5 -2zM522 427q14 -9 17.5 -24.5t-4.5 -29.5q-11 -19 -33 -19q-11 0 -20 6q-14 9 -17.5 24.5t4.5 29.5q11 19 33 19q11 0 20 -6zM901 421q14 -9 17.5 -24.5t-4.5 -29.5q-11 -19 -33 -19q-11 0 -20 6q-14 9 -17.5 24.5t4.5 29.5q11 19 33 19q11 0 20 -6zM716 350
q15 -4 27 -14t19.5 -23t9.5 -28.5t-2 -30.5q-6 -20 -20 -33.5t-32 -19.5l1 -268l-47 67v202q-31 9 -46 36.5t-6 58.5q7 26 28 41t46 15q12 0 22 -3z" />
    <glyph glyph-name="u111CE" unicode="&#x111ce;" horiz-adv-x="450" 
d="M831 1433l119 -180h-477l1 -2v-679l-179 182v499l1 180h535z" />
    <glyph glyph-name="u111CF" unicode="&#x111cf;" 
d="M558 2074l146 -146l-146 -148l-145 148zM166 2011q85 -92 183 -167q129 -97 288 -97q103 0 201 40q79 33 151 93l7 7q28 25 54 52q14 15 29 31q-14 -16 -29 -31q-55 -58 -110 -113l-33 -33q-56 -56 -119 -106q-123 -88 -274 -105l-42 -1q-134 0 -249 70q-120 81 -219 193
l-4 3q0 2 25 26.5t57.5 57t57 56.5t26.5 24z" />
    <glyph glyph-name="u111D0" unicode="&#x111d0;" horiz-adv-x="722" 
d="M361 948q65 0 121.5 -24.5t98.5 -67t66.5 -99t24.5 -120.5t-24.5 -121t-66.5 -99t-98.5 -66.5t-121.5 -24.5q-64 0 -121 24.5t-99 66.5t-66.5 99t-24.5 121t24.5 120.5t66.5 99t99 67t121 24.5z" />
    <glyph glyph-name="u111D1" unicode="&#x111d1;" horiz-adv-x="1089" 
d="M614 1374q14 -6 27.5 -22.5t25.5 -36t22.5 -39t18.5 -31.5q4 -6 13.5 -28t21 -46t22.5 -44t17 -22q-69 27 -146 27q-51 0 -101 -12t-95 -35t-83.5 -57t-66.5 -78q-42 -65 -58 -140.5t7 -152.5q7 -23 4.5 -27t-10.5 3t-19 22t-19 30t-11.5 26t2.5 11q7 0 24 -14
q44 -35 95 -60t108 -29q76 -5 149.5 19.5t133.5 71t102 111.5t54 141q7 43 7 86.5t-15 85.5q23 -64 42 -89.5t24 -25.5q4 0 -4.5 12.5t-34.5 31.5q-27 22 -60 39t-68 28.5t-71.5 17.5t-70.5 6q-20 0 -41 -2t-42 -6q-13 -2 -30 18t-35 52t-36.5 70t-33.5 70t-26.5 53.5
t-16.5 20.5q25 6 48.5 8.5t46.5 2.5q68 0 129 -22t115 -59.5t101.5 -88t87.5 -107.5t72.5 -118t57.5 -119q21 -48 31.5 -99t9 -101t-17 -99t-46.5 -94q-28 -41 -65.5 -77.5t-81 -64.5t-92 -44t-100.5 -16q-58 0 -110.5 18t-98 48.5t-85.5 71t-73 85.5q-34 46 -68 96.5
t-63.5 104t-51.5 110t-31 113.5q-9 61 2 116t38 102t67.5 85t89.5 65t103.5 41.5t110.5 14.5q38 0 75.5 -7t72.5 -22z" />
    <glyph glyph-name="u111D2" unicode="&#x111d2;" horiz-adv-x="1063" 
d="M344 928q13 -12 24.5 -32.5t22 -42.5t19.5 -40.5t18 -25.5q-74 60 -125.5 146.5t-73.5 178.5q-15 66 5 124t62.5 101.5t101 68.5t119.5 25q33 0 65.5 -8.5t61.5 -25.5q66 -39 116 -94t82.5 -118.5t46 -131.5t7.5 -133t-33 -124t-76 -105q66 -45 116 -118q16 -24 35.5 -52
t36 -58.5t27.5 -62t10 -60.5q-1 -76 -30.5 -137t-78 -104t-111 -66t-130.5 -23q-85 0 -163 35.5t-146 91t-126 122.5t-103 131q-4 6 -17 27t-26 44t-22.5 41t-7.5 18q1 0 11 -13q39 -54 96.5 -116.5t126.5 -115.5t146.5 -88t155.5 -35q47 0 92 15t89 48q18 14 44.5 41
t51.5 61t43.5 71.5t19.5 73t-20.5 64.5t-75.5 47q-45 15 -85 21.5t-81 6.5q-28 0 -60 -3q-34 -9 -76 -12q-8 -1 -17.5 12t-19.5 32t-20 40.5t-18 38.5q-5 8 -10 15t-10 15q41 9 82 12q37 8 73 21.5t68.5 33t59 45.5t44.5 59q16 29 29.5 64.5t20.5 72.5t5.5 72.5t-15.5 65
t-42.5 50.5t-75.5 29q-20 3 -41 5t-44 2q-48 0 -95.5 -12.5t-82.5 -47.5q-13 -12 -29.5 -33t-32.5 -46t-28 -53t-16.5 -55.5t2 -52t28.5 -43.5z" />
    <glyph glyph-name="u111D3" unicode="&#x111d3;" horiz-adv-x="944" 
d="M886 746q10 -40 6.5 -80t-18 -76t-40.5 -67.5t-61 -54.5q-20 -14 -41 -26t-43 -20q14 -24 26 -48t19.5 -48.5t9.5 -48t-3 -46.5q-13 -55 -42.5 -96t-70 -68t-89 -40t-99.5 -13q-72 0 -141.5 25t-120.5 75q-25 25 -46 58.5t-41 65.5q-10 15 -16 32t-17 34l-2 3.5t-4 7.5
t-1.5 6t5.5 -2q55 -46 127.5 -74t147.5 -28q59 0 114 20t99 66q18 19 36.5 42.5t26.5 49.5q-38 -7 -76 -12.5t-77 -10.5q-4 -3 -5.5 -1.5t-6.5 -0.5q2 2 -3.5 1.5t-7.5 -1.5q-3 0 -6 0.5t-5 -0.5q-7 -1 -18.5 12.5t-22.5 31.5t-20.5 34.5t-12.5 22.5q-1 2 -10.5 19t-20.5 37
q-12 24 -28 53q16 1 31 2t33 3q23 2 42.5 3.5t39 4t39 7t41.5 12.5q49 13 93 33.5t78 51t56.5 71.5t27.5 94q-17 6 -36 8t-38 2q-38 0 -73 -7.5t-70 -20.5q-20 -9 -40 -17t-41 -16q-5 -2 -16.5 11.5t-25 35.5t-28 48t-26.5 49t-19.5 38l-7.5 15q17 8 37 16l40 16
q33 15 66.5 34.5t62 43.5t49.5 52.5t28 61.5q-5 2 -8.5 3t-8.5 1q-24 2 -48.5 1t-47.5 -9q-57 -21 -101 -56.5t-87 -78.5q1 1 -8.5 14.5t-24.5 33t-32 42.5t-30 43.5t-20.5 37t-2.5 21.5q23 26 50 52.5t57.5 48.5t64.5 36t71 14q42 0 75.5 -15.5t60.5 -40.5t49.5 -56.5
t42.5 -63.5q19 -31 36 -62.5t26.5 -64t8 -66t-18.5 -68.5q20 -22 37 -48t32 -50q22 -37 47 -75t36 -80z" />
    <glyph glyph-name="u111D4" unicode="&#x111d4;" horiz-adv-x="957" 
d="M555 958q17 -5 35.5 -6t38.5 -1q36 0 73 0.5t71 -10.5q10 -3 23.5 -18.5t26 -35t21 -38.5t8.5 -30v-3l2 -2v-1l16 -50q6 -11 2 -7t-8 4q-5 -2 -9 -1t-9 1q-16 0 -31.5 2t-31.5 1l-1 1h-10l-4 2q-83 -2 -167 0t-167 8l5 -118l-2 2q-4 0 -6 2.5t-4 5.5q-31 39 -60 73.5
t-55.5 70t-50 74.5t-43.5 86l105 -7q-4 74 -20.5 147t-30.5 145l-111 4q-4 0 -13 11.5t-20.5 29t-23.5 38.5t-23 40.5t-19 34.5t-12 21h758q4 0 12 -12.5t18 -32.5t21 -43.5t20.5 -45t17 -38.5t10.5 -23h-355q-27 0 -54.5 3.5t-55.5 1.5q17 -68 36 -136t28 -138z" />
    <glyph glyph-name="u111D5" unicode="&#x111d5;" horiz-adv-x="836" 
d="M71 1437q-4 -13 6.5 -31.5t29 -40t41.5 -45.5t43.5 -47.5t34 -46t13.5 -42.5q0 -11 -4.5 -29.5t-10 -40t-10 -43.5t-4.5 -40q0 -26 7.5 -59t25.5 -53q32 -11 64 -20.5t66 -9.5q28 0 56.5 10t54.5 26.5t47.5 37.5t35.5 44q-3 66 -6.5 132.5t-7.5 132.5l32 -36
q30 -41 63.5 -87.5t62.5 -97t48 -103t19 -105.5q0 -32 -9 -60t-25 -52q14 -183 26.5 -365t15.5 -367q0 20 -12 41t-30 43t-39.5 44.5t-40.5 45.5t-33 47t-17 48q-11 89 -17 178t-11 179q-28 -7 -60 -7q-29 0 -57.5 7t-54.5 21q-82 44 -149 114.5t-115 156t-74 180t-26 186.5
q0 79 21 154z" />
    <glyph glyph-name="u111D6" unicode="&#x111d6;" horiz-adv-x="1173" 
d="M152 1260q-18 7 -31 30t-23.5 49.5t-21.5 50t-26 31.5q129 -47 250.5 -110.5t231.5 -143.5t207 -176.5t177 -209.5q27 -38 58 -85t59.5 -99t51 -108t32 -111t2.5 -108t-36 -100q-54 -85 -115.5 -121.5t-125.5 -36.5q-60 0 -118 27.5t-108.5 74t-89.5 106.5t-60.5 124.5
t-23 129t24 119.5t80.5 96t146 59q7 2 17 -10t20.5 -31t21 -41.5t19.5 -41.5t15.5 -31.5t9.5 -12.5q-33 -8 -65.5 -21t-61 -32t-51 -44.5t-36.5 -60.5q-13 -25 -17.5 -51.5t-7.5 -55.5q5 -12 9.5 -23t10.5 -22.5t15 -24.5t23 -28q35 -23 71.5 -35t72.5 -12q52 0 100.5 27.5
t86.5 88.5q53 84 61 165.5t-18.5 158.5t-81.5 148.5t-127.5 136t-156 121t-167.5 103t-163 82.5t-141 59z" />
    <glyph glyph-name="u111D7" unicode="&#x111d7;" horiz-adv-x="603" 
d="M164 1310q2 -26 21.5 -52t43 -52.5t43.5 -53.5t22 -56q4 -47 -4 -66t-24 -19q-14 0 -32 12.5t-37.5 32.5t-39 44t-35.5 46.5t-28 41t-16 26.5q-27 51 -27.5 89.5t17 64.5t49.5 39t70 13q48 0 99.5 -21t91.5 -63q24 -25 55 -64.5t58.5 -84t45.5 -89.5t15 -81
q-5 -60 -26 -108.5t-47 -94.5t-53 -92t-44 -100q-8 -26 -17.5 -61t-17.5 -75t-13.5 -81.5t-5.5 -80.5t7 -72.5t23 -56.5q29 -41 56 -81.5t50 -83.5q18 -33 12 -33q-5 0 -24 25q-49 68 -99.5 143t-89 155.5t-58.5 166t-9 173.5q8 65 24 128t51 121q17 27 39 58.5t43 64.5
t36.5 67.5t18.5 67.5q-4 9 -9 14.5t-9 9.5t-7.5 7t-5.5 9q-22 6 -45 6q-31 0 -63 -12q-16 -9 -36.5 -22t-36.5 -30t-22.5 -37.5t6.5 -44.5q-31 45 -59.5 89t-57.5 89q16 -10 29 -14t24 -4q27 0 39 24t9 59z" />
    <glyph glyph-name="u111D8" unicode="&#x111d8;" horiz-adv-x="1232" 
d="M714 1038q46 -12 88.5 -33.5t81.5 -51t72.5 -65t61.5 -75.5q49 -69 63 -130.5t2 -113.5t-47 -93.5t-85 -70t-111.5 -44t-126.5 -15.5q-30 0 -60.5 3t-60.5 11q-26 6 -48 31.5t-42 54.5t-40.5 54t-44.5 31q30 -7 64.5 -11t71.5 -4q59 0 119 11.5t110.5 37.5t86.5 68.5
t47 104.5q6 35 4 66t-13 63q-12 8 -30.5 14t-43.5 7q-53 2 -98 -2.5t-92 -23.5q-4 -2 -19 8.5t-35 28t-42 38.5t-40 40.5t-30 34t-11 18.5q5 58 35 115.5t69 109.5h-368q-13 0 -26.5 13t-27 33t-26.5 43t-25.5 43t-24 33t-22.5 13h977q14 0 28 -13t27 -33t26 -43t25.5 -43
t24.5 -33t24 -13h-347q9 -11 6 -15q-24 -42 -58.5 -94t-68.5 -108z" />
    <glyph glyph-name="u111D9" unicode="&#x111d9;" horiz-adv-x="1545" 
d="M177 1074q8 -2 23.5 -22t34.5 -49t40 -63t40.5 -65t35.5 -55t25 -32q2 -2 8.5 -10t15.5 -19t20.5 -23.5t23.5 -24.5q41 -39 90.5 -74.5t104 -64t112.5 -47t116 -22.5q-3 5 -5.5 9t-5.5 9q-19 30 -42 65.5t-43.5 73.5t-34 76.5t-13.5 75.5q0 44 24.5 83.5t62 68.5t82.5 46
t85 17q73 0 127 -48q34 -30 63 -66.5t55 -75.5t49.5 -80t44.5 -81q26 -47 41.5 -98t15.5 -105q0 -61 -26.5 -106.5t-69 -76.5t-96.5 -46.5t-109 -15.5q-75 0 -152 26t-140 64q-79 46 -133.5 83.5t-98.5 78t-85 89.5t-92 119q-22 33 -57 78.5t-67.5 96t-56 101t-23.5 92.5
q0 5 1.5 10.5t6.5 7.5h2zM1214 771q0 32 -6 63l-20 -6zM965 551q10 -2 19.5 -11.5t19.5 -24.5q42 11 78 30t64 48t45.5 67t21.5 86q-14 4 -28 6.5t-26 2.5q-45 0 -93 -12t-83 -41q-32 -26 -58 -61.5t-37 -76.5q19 -5 42 -8.5t36 -4.5h-1zM801 617q4 0 8 -3l-1.5 4.5
t-0.5 3.5zM1132 305q-4 -1 -8 -1h-8h-7q13 -19 24 -19z" />
    <glyph glyph-name="u111DA" unicode="&#x111da;" horiz-adv-x="2969" 
d="M1163 601l7 651l-160 1l4 -6q37 -58 37 -118q0 -13 -6 -56t-55 -100q-80 -91 -227 -91q-81 0 -177 44q-175 80 -536 507h11q32 -29 60 -62l147 -168q14 -18 51 -59q32 -27 66 -50q83 -56 183 -78q37 -9 74 -9q62 0 122 25q78 35 126 106q35 52 35 113q0 22 -6 46l-20 22
q-30 6 -63 6q-52 0 -125 -15q-9 0 -58 52q-46 47 -65 71h1489l304 1q-19 -24 -65 -71q-49 -52 -58 -52q-73 15 -125 15q-41 0 -78 -9q-11 -35 -11 -65q0 -61 35 -113q48 -71 126 -106q60 -25 122 -25q37 0 74 9q100 22 183 78q34 23 66 50q37 41 51 59l147 168q28 33 60 62
h11q-361 -427 -536 -507q-96 -44 -177 -44q-147 0 -227 91q-49 57 -55 100t-6 56q0 60 37 117l-164 1l-2 -790l-188 134l7 657l-255 2l-2 -784z" />
    <glyph glyph-name="u111DB" unicode="&#x111db;" horiz-adv-x="1633" 
d="M1069 599q-31 24 -56 54.5t-43 60.5t-27.5 56.5t-9.5 41.5q0 44 24.5 83.5t62 68.5t82.5 46t85 17q73 0 127 -48q34 -30 63 -66.5t55 -75.5t49.5 -80t44.5 -81q26 -47 41.5 -98t15.5 -105q0 -61 -26.5 -106.5t-69 -76.5t-96.5 -46.5t-109 -15.5q-75 0 -152 26t-140 64
q-52 31 -117.5 84t-136 119t-142 139t-135.5 144t-117.5 134.5t-87.5 110.5q-22 33 -57 78.5t-67.5 96t-56 101t-23.5 92.5q0 5 1.5 10.5t6.5 7.5h2q8 -2 23.5 -22t34.5 -49t40 -63t40.5 -65t35.5 -55t25 -32q1 -1 17.5 -19t42.5 -47t59 -66.5t68.5 -77t70 -78t63 -70
t48.5 -53t26 -27.5q44 -41 97 -78.5t111 -66.5t120 -46.5t123 -17.5q104 0 169.5 17t102 43t50.5 56t15.5 56t-4 44t-7.5 19q-14 10 -22.5 15t-14.5 7t-11.5 2.5t-14.5 1.5q-45 5 -92.5 -13.5t-82.5 -47.5q-10 -8 -28 -21t-37 -27.5t-35.5 -29t-23.5 -25.5z" />
    <glyph glyph-name="u111DC" unicode="&#x111dc;" horiz-adv-x="1404" 
d="M212 1253l-162 180h1141l163 -180h-1142z" />
    <glyph glyph-name="u111DD" unicode="&#x111dd;" horiz-adv-x="664" 
d="M300 942q-36 -39 -69 -80.5t-53 -89.5l436 -526l-35 -241l-399 494l-4 4q-29 28 -51 53t-41 61v1q-11 23 -19 48t-12 51q-6 45 1 90t30 88q11 20 29.5 44t36.5 46q21 25 45 50q25 28 49.5 56.5t44 60t33 66t16.5 73.5q3 42 -5.5 81.5t-25.5 76.5q-8 17 -19 33t-22 30
q-5 7 -10 12.5t-11 12.5q-14 14 -28 27t-29 25q29 -23 56 -47.5t56 -48.5q0 -1 1 -2q9 -8 13.5 -12.5t3.5 -3.5q50 -45 81.5 -96.5t41.5 -118.5q7 -45 -1 -90t-30 -87q-21 -40 -50 -74t-60 -67zM298 396q2 -2 4.5 -3.5t4.5 -3.5q-2 2 -4.5 3.5t-4.5 3.5z" />
    <glyph glyph-name="u111DE" unicode="&#x111de;" horiz-adv-x="1608" 
d="M749 754q-34 32 -70 62.5t-75.5 55t-82.5 41t-92 20.5q-51 4 -101 -6t-96 -33q-31 -14 -58 -34t-52 -43q-17 -17 -33.5 -34.5t-30.5 -37.5q27 37 58 71.5t63 69.5q22 23 21 23q67 71 143.5 114.5t175.5 43.5q89 0 171 -43q25 -13 55.5 -36.5t57.5 -46.5q31 -26 63 -56
q35 -31 71 -61.5t75 -55.5t82 -41.5t92 -20.5q51 -4 101 6.5t96 32.5q21 11 41 24t38 27q8 6 15.5 12.5t15.5 13.5q17 17 33.5 35t31.5 37q-28 -37 -59 -71t-61 -69q-1 0 -2 -1q-11 -12 -16.5 -17.5t-4.5 -4.5q-63 -69 -142.5 -113.5t-175.5 -44.5q-56 0 -102.5 15t-88 39.5
t-80 57.5t-77.5 69zM742 305q-34 32 -70.5 62t-75.5 55t-82 41.5t-92 20.5q-51 4 -101 -6.5t-96 -32.5q-21 -11 -41 -24t-38 -27q-8 -6 -15.5 -12.5t-15.5 -13.5q-17 -17 -33.5 -35t-31.5 -37q28 37 59 71t61 69q1 0 2 1q11 12 16.5 17.5t4.5 4.5q63 69 142.5 113.5
t175.5 44.5q55 0 102 -15t89 -40t80.5 -57.5t76.5 -68.5q34 -32 70 -62.5t75.5 -55t82.5 -41t92 -20.5q51 -4 101 6t96 33q31 14 58 34t52 43q17 17 33.5 34.5t30.5 37.5q-27 -37 -58 -71.5t-63 -69.5q-22 -23 -21 -23q-33 -35 -68.5 -64t-74.5 -50t-82.5 -32.5t-93.5 -11.5
q-56 0 -103 15t-88.5 40t-79.5 58t-76 69z" />
    <glyph glyph-name="u111DF" unicode="&#x111df;" horiz-adv-x="1124" 
d="M50 752l512 499l512 -499l-35 -196l-477 468l-477 -468zM50 189l512 500l512 -500l-35 -195l-477 467l-477 -467z" />
    <glyph glyph-name="uni0951" unicode="&#x951;" 
d="M0 1779v448l178 -116l7 -477z" />
    <glyph glyph-name="uni0952" unicode="&#x952;" 
d="M503 -729l-162 180h800l163 -180h-801z" />
    <glyph glyph-name="uni1CDA" unicode="&#x1cda;" 
d="M0 1779v448l178 -116l7 -477zM364 1779v448l178 -116l7 -477z" />
    <glyph glyph-name="uni1CDC" unicode="&#x1cdc;" 
d="M0 -1045v448l178 -116l7 -477z" />
    <glyph glyph-name="uni1CDD" unicode="&#x1cdd;" 
d="M291 -742l-146 -148l-145 148l145 146z" />
    <glyph glyph-name="uniA8F3" unicode="&#xa8f3;" horiz-adv-x="1179" 
d="M754 1261l-146 -148l-145 148l145 146zM216 1344q85 -92 183 -167q129 -97 288 -97q103 0 201 40q79 33 151 93l7 7q28 25 54 52q14 15 29 31q-14 -16 -29 -31q-55 -58 -110 -113l-33 -33q-56 -56 -119 -106q-123 -88 -274 -105l-42 -1q-134 0 -249 70q-120 81 -219 193
l-4 3q0 2 25 26.5t57.5 57t57 56.5t26.5 24zM436 542l35 239l512 -617l-35 -241z" />
    <glyph glyph-name="chandra.alt" 
d="M166 1644q-2 0 -26.5 24t-57 56.5t-57.5 57t-25 26.5l4 3q99 112 219 193q115 70 249 70l42 -1q151 -17 274 -105q63 -50 119 -106l33 -33q55 -55 110 -113q15 -15 29 -31q-15 16 -29 31q-26 27 -54 52l-7 7q-72 60 -151 93q-98 40 -201 40q-159 0 -288 -97
q-98 -75 -183 -167zM558 1581l-145 146l145 148l146 -148z" />
    <glyph glyph-name="vs-aa.alt" horiz-adv-x="933" 
d="M765 1433l118 -180h-477l1 -2v-474l-179 182v294h-359l-119 180h1015z" />
    <glyph glyph-name="u11235.alt" horiz-adv-x="983" 
d="M619 -426q-65 81 -131.5 158t-137.5 152q-18 20 -37.5 37.5t-36.5 37.5q-6 8 -14.5 19.5t-9.5 21.5q-2 25 -2 46t0.5 41.5t1 42t0.5 47.5q-2 246 -4 489.5t-4 489.5v48.5t-3 48.5h-348q-8 6 -20 22t-26 35.5t-29 41t-28.5 39.5t-24 30t-15.5 12h497q0 12 -1.5 31.5
t1 37.5t12 31t31.5 13q35 0 58.5 0.5t38.5 -0.5t23 -6t11 -17.5t3.5 -34t0.5 -55.5h379q6 0 16.5 -13t23 -32.5t26 -42t26 -42.5t22.5 -34t15 -16h-514v-1q0 -1 0.5 -1t0.5 -1l2 -10q1 -1 1 -3l7 -1229q0 -6 9 -29.5t23 -55.5t30.5 -69t31.5 -69.5t26 -56.5t14 -31
q3 -8 12 -25t18 -36.5t16.5 -37t8.5 -24.5z" />
    <glyph glyph-name="shrd-vs-i.alt" horiz-adv-x="681" 
d="M526 0l-180 134v1120h-177l-119 180h270q-14 23 -27.5 50.5t-24.5 57t-18 59t-7 56.5q0 56 20.5 100.5t55.5 75.5t82 48t100 17q78 0 150 -32t137.5 -81t123 -108t105.5 -112q14 -15 28.5 -29.5t26.5 -31.5v-70h157l119 -180h-824l2 -2v-1252zM1066 1434q-15 13 -29 26.5
t-28 26.5q-40 39 -78.5 74.5t-81.5 63.5t-94.5 44.5t-117.5 16.5q-50 0 -94.5 -5t-77.5 -21.5t-52.5 -47.5t-19.5 -82q0 -48 14 -96h659z" />
    <glyph glyph-name="shrd-vs-i.short" horiz-adv-x="681" 
d="M526 0l-180 134v1120h-177l-119 180h270q-14 23 -27.5 50.5t-24.5 57t-18 59t-7 56.5q0 56 20.5 100.5t55.5 75.5t82 48t100 17q78 0 150 -32t137.5 -81t123 -108t105.5 -112q14 -15 28.5 -29.5t26.5 -31.5v-75q-17 14 -32.5 29t-30.5 29q-40 39 -78.5 74.5t-81.5 63.5
t-94.5 44.5t-117.5 16.5q-50 0 -94.5 -5t-77.5 -21.5t-52.5 -47.5t-19.5 -82q0 -48 14 -96h477l119 -180h-479l2 -2v-1252zM646 -1088l-512 619l35 239l512 -617z" />
    <glyph glyph-name="vs-ii-alt" horiz-adv-x="834" 
d="M574 0l-180 134l1 1119h-776l-119 180h497q-16 18 -55 46q-76 53 -76 73v3l9 29q28 90 71.5 176.5t118.5 147.5q71 55 152 65l25 1q69 0 134 -42q56 -39 114.5 -98.5t85.5 -123.5q22 -63 22 -124q0 -8 -1 -46.5t-20 -106.5h87l120 -180h-211l2 -3zM427 1433
q-12 13 -12 22q0 2 6 19q51 147 51 231q0 70 -24 129q-34 11 -69 11q-17 0 -35 -3q-98 -19 -162.5 -83.5t-105 -151t-67.5 -174.5h418z" />
    <glyph glyph-name="vs-u.alt" 
d="M713 -407q-81 0 -177 44q-175 80 -536 507q22 28 41 28q13 0 24 -13l177 -204q19 -16 52 -55q34 -31 65 -58q71 -61 159 -115q37 -9 74 -9q62 0 122 25q78 35 126 106q35 52 35 113q0 30 -11 65q-37 9 -78 9q-52 0 -125 -15q-9 0 -58 52q-46 47 -65 71h226
q54 -25 112 -93q61 -56 61 -61q15 -15 27 -32q37 -58 37 -118q0 -13 -6 -56t-55 -100q-80 -91 -227 -91z" />
    <glyph glyph-name="vs-uu.alt" 
d="M946 -649h-1q-8 0 -50 72q-34 59 -42 59q114 31 222.5 104t125.5 200l1 29q0 27 -5 51l-10 4q-22 9 -44 16q-38 6 -77 6q-71 0 -141 -20q14 -42 14 -81q0 -65 -51.5 -137.5t-168.5 -87.5l-33 -3q-117 0 -217.5 67.5t-178.5 173.5q-148 201 -275 412l48 33q22 -35 47 -70
l170 -241q77 -110 210 -194q48 -32 79 -38q23 -4 44 -4q99 0 171 95q53 59 53 141q0 18 -1 28q-79 28 -161 28l-38 -1q-15 5 -80 107l-21 31l221 -36q44 -29 84 -90q72 18 144 18q8 0 53 -1.5t112 -62.5q57 -65 106 -144l13 -21q28 -45 28 -100v-4q0 -19 -8 -67t-56 -104
q-58 -66 -131 -105t-156 -63zM1223 -157q0 5 -13 14q10 -14 13 -14z" />
    <glyph glyph-name="vs-u.alt.1" 
d="M713 -407q-81 0 -177 44q-175 80 -361 308q28 32 46 32q12 0 19 -17l2 -5q19 -16 52 -55q34 -31 65 -58q71 -61 159 -115q37 -9 74 -9q62 0 122 25q78 35 126 106q35 52 35 113q0 30 -11 65q-37 9 -78 9q-52 0 -125 -15q-9 0 -58 52q-46 47 -65 71h226q54 -25 112 -93
q61 -56 61 -61q15 -15 27 -32q37 -58 37 -118q0 -13 -6 -56t-55 -100q-80 -91 -227 -91z" />
    <glyph glyph-name="vs-uu.alt.1" 
d="M946 -649h-1q-8 0 -50 72q-34 59 -42 59q114 31 222.5 104t125.5 200l1 29q0 27 -5 51l-10 4q-22 9 -44 16q-38 6 -77 6q-71 0 -141 -20q14 -42 14 -81q0 -65 -51.5 -137.5t-168.5 -87.5l-33 -3q-117 0 -217.5 67.5t-178.5 173.5l-85 116l56 38l19 -20q93 -97 210 -194
q48 -32 79 -38q23 -4 44 -4q99 0 171 95q53 59 53 141q0 18 -1 28q-79 28 -161 28l-38 -1q-15 5 -80 107l-21 31l221 -36q44 -29 84 -90q72 18 144 18q8 0 53 -1.5t112 -62.5q57 -65 106 -144l13 -21q28 -45 28 -100v-4q0 -19 -8 -67t-56 -104q-58 -66 -131 -105t-156 -63z
M1223 -157q0 5 -13 14q10 -14 13 -14z" />
    <glyph glyph-name="shrd-vs-vocr.alt" 
d="M437 -290q-58 9 -127 53q-65 42 -136 101q-174 144 -174 270h174v11v-66q0 -153 46 -215l14 -11q20 -20 46 -27q30 -7 62 -8q97 7 149 102q28 58 28 115q0 44 -14 92q6 -11 33 -39l27 -28q50 -45 50 -131q0 -115 -79 -183q-44 -37 -86 -37q-6 0 -13 1z" />
    <glyph glyph-name="shrd-vs-vocrr.alt" 
d="M548 -133q-3 -21 -10 -48t-20 -51.5t-32 -41t-45 -16.5q-11 0 -22 4.5t-21.5 11t-20 14.5t-16.5 15q-28 27 -55.5 52.5t-58.5 48.5q-71 52 -103 121.5t-35 156.5l180 1q0 -69 2.5 -135t14.5 -133q20 -20 44.5 -33t53.5 -13q25 0 41.5 24t26 56t13.5 65t4 51v29l-3 57v28
v3h96q0 -11 -0.5 -33.5t-1 -51t-0.5 -59.5t1 -58.5t3.5 -49t6.5 -30.5q8 -18 15 -22.5t30 -4.5q30 0 46.5 25t24.5 59.5t10 70.5t2 58q0 23 -2 46t-6 46q5 -17 16 -34t21 -33q17 -29 22 -64t5 -67q0 -22 -4.5 -59t-16.5 -72.5t-32 -61.5t-51 -26q-21 0 -39.5 18t-34.5 42.5
t-28.5 50.5t-20.5 43z" />
    <glyph glyph-name="lu.alt" horiz-adv-x="4" 
d="M1015 -415h-8q-39 0 -67.5 20t-57.5 50q-39 39 -53 58q-23 31 -23 84v5q0 37 5 74.5t5 71.5q0 53 -14 92l-9 4q-24 8 -49 8q-93 0 -142 -68q-43 -58 -44 -133q0 -26 5 -51q-26 26 -33 31t-10 7.5l-9 7.5q-27 22 -30 31.5t-4 17.5q-7 48 -24 94l-7 1q-12 5 -30 5
q-20 0 -39 -10q-26 -17 -39 -48q-37 -91 -45 -215q0 4 -34 31q-7 5 -9 7.5t-6 5.5q-31 24 -34 36q1 48 15 124t52 124q21 28 53 28h2q25 0 55 -14q54 -33 95 -82q17 69 67 115q39 37 100 37q57 0 102 -31q33 -23 64 -54q27 -26 50.5 -56t28.5 -72q2 -23 2 -46q-1 -32 -5 -65
q-4 -42 -4 -84q0 -29 7 -58h1q8 -2 28 -2h10q141 23 157 192q4 36 4 74q0 32 -3 62q0 -6 20 -19l33 -28q29 -24 30 -33q4 -29 4 -58v-10q0 -35 -6 -87t-41.5 -108.5t-115.5 -65.5zM695 -63q-3 0 -12 9q12 -6 12 -9zM427 -98q-1 0 -8 7z" />
    <glyph glyph-name="luu.alt" 
d="M1224 -414q-73 1 -174 117q-31 -63 -112 -73h-5q-37 0 -64 17.5t-54.5 45t-48.5 56.5t-21 79q0 18 1 35q-3 3 -12 11q9 -5 12 -8v-3l2 -1h2q0 1 -4 4l4 32q5 34 5 65q0 49 -13 85l-9 3q-19 10 -46 10q-83 0 -129 -63q-40 -55 -40 -124q0 -15 2 -33q0 -7 3 -13l-22 23
l-27 20l-15 16q-13 11 -13 28q-7 46 -24 86q-10 7 -34 8q-17 0 -35 -11q-27 -15 -38.5 -44.5t-16.5 -57.5q-21 -69 -24 -140v0q0 7 -29 28q-7 5 -9 6.5t-7 7.5q-29 19 -29 31q1 44 12 114t49 116q17 22 48 22h3q23 0 50 -12q49 -31 87 -73q14 65 60 104q39 34 91 35h7
q50 0 89 -29q28 -21 55.5 -47.5t48 -54.5t25.5 -65q3 -21 4 -41v-9q0 -27 -5 -54q-3 -40 -3 -81q0 -25 4 -48l6 -1h32q126 22 145 173q4 34 4 64q0 33 -4 63q1 -3 5.5 -8t10.5 -10.5t13.5 -10.5t10 -7.5t7.5 -5.5q9 -6 18 -16t10 -15v-7q11 -10 14 -17q7 -25 7 -50
q0 -30 -9 -58q-9 -36 -9 -71q0 -26 10 -54l2 -4q26 -11 51 -11q77 3 111 69q15 30 15 59q-1 36 -22 74q10 -15 32 -32q66 -52 66 -113q0 -90 -88 -123q-20 -8 -39 -8z" />
    <glyph glyph-name="e-sign.alt" 
d="M215 1430l-153 180h799l154 -180h-800z" />
    <glyph glyph-name="ai-sign.alt" 
d="M164 1805l-153 180h799l154 -180h-800zM215 1430l-153 180h799l154 -180h-800z" />
    <glyph glyph-name="uniA737.alt" horiz-adv-x="660" 
d="M291 1037q-74 0 -160 215l-527 2l-183 180l740 -1q-16 63 -57 122q-45 19 -87 23q-9 1 -20 1q-28 0 -83 -6.5t-104 -80.5l-57 54q-111 68 -111 84v1q6 24 9 48q1 14 1 28q0 47 -15 92l-4 7q-13 5 -25 6l-17 1q-170 -6 -243 -145v0q0 11 -86 58q-82 67 -82 83v1
q73 137 219 137q14 0 28 -1q102 -9 174 -73q3 -1 6 -5q83 -69 165 -151q91 16 134 16h12q55 -4 119.5 -37t132 -87.5t117.5 -111.5q27 -30 53 -65h91l179 -180h-184q-53 -201 -128 -215h-7z" />
    <glyph glyph-name="uni1CD0" unicode="&#x1cd0;" 
d="M864 1988q42 -45 74 -81q14 -15 27 -30t23.5 -26.5t16.5 -19l6 -7.5q-48 -45 -95.5 -86t-99.5 -72.5t-110.5 -50t-128.5 -18.5q-87 0 -169.5 32t-148.5 87q-22 19 -42 39t-39 40q1 -1 -5.5 6t-20.5 22l-2 1q-38 44 -76.5 86.5t-73.5 88.5q18 -24 39 -46l42 -44
q31 -29 65 -53t72 -43q57 -28 120 -41t126 -8q61 5 115 25.5t103 51.5t94 69t88 78z" />
    <glyph glyph-name="uni1CD2" unicode="&#x1cd2;" 
d="M864 2252q42 -45 74 -81q14 -15 27 -30t23.5 -26.5t16.5 -19l6 -7.5q-48 -45 -95.5 -86t-99.5 -72.5t-110.5 -50t-128.5 -18.5q-87 0 -169.5 32t-148.5 87q-22 19 -42 39t-39 40q1 -1 -5.5 6t-20.5 22l-2 1q-38 44 -76.5 86.5t-73.5 88.5q18 -24 39 -46l42 -44
q31 -29 65 -53t72 -43q57 -28 120 -41t126 -8q61 5 115 25.5t103 51.5t94 69t88 78zM986 1881q42 -45 74 -81q14 -15 27 -30t23.5 -26.5t16.5 -19l6 -7.5q-52 -48 -105 -94.5t-116 -78.5q-35 -19 -83 -28.5t-91 -14.5q-51 -6 -103 -6q-53 8 -99 24.5t-86.5 41.5t-77.5 57
t-72 70q1 -1 -5.5 6t-20.5 22l-2 1q-38 44 -76.5 86.5t-73.5 88.5q18 -24 39 -46l42 -44q31 -29 65 -53t72 -43q57 -28 120 -41t126 -8q61 5 115 25.5t103 51.5t94 69t88 78z" />
    <glyph glyph-name="uni1CD8" unicode="&#x1cd8;" 
d="M958 -244l12 -14t29 -35t37.5 -45.5t37.5 -46t28 -36t10 -14.5q-53 -45 -106 -86t-110 -73t-120 -51t-136 -19q-50 0 -100 11t-97 31t-90.5 47.5t-80.5 60.5q-24 22 -45 45t-41 46q1 -1 -6 7.5l-21 25.5q-2 2 -2 3q-39 48 -77.5 94.5t-73.5 97.5l-6 9l6 -9
q18 -26 38.5 -49t40.5 -46q33 -33 68.5 -62t77.5 -52q63 -34 132 -52.5t139 -16.5q68 3 129 23t117 52t108 72t102 82z" />
    <glyph glyph-name="uni1CD5" unicode="&#x1cd5;" 
d="M958 -238l12 -14t29 -35t37.5 -45.5t37.5 -46t28 -35.5t10 -15q-53 -45 -106 -86t-110 -73t-120 -51t-136 -19q-50 0 -100 11t-97 31t-90.5 47.5t-80.5 60.5q-24 22 -45 45t-41 46q1 -1 -6 7.5l-21 25.5q-2 2 -2 3q-39 48 -77.5 94.5t-73.5 97.5l-6 9l6 -9
q18 -26 38.5 -49t40.5 -46q33 -33 68.5 -62t77.5 -52q63 -34 132 -52.5t139 -16.5q68 3 129 23t117 52t108 72t102 82zM1049 -585l12 -14t29 -35t37.5 -45.5t37.5 -46t28 -35.5t10 -15q-53 -45 -106 -86t-110 -73t-120 -51t-136 -19q-50 0 -100 11t-97 31t-90.5 47.5
t-80.5 60.5q-24 22 -45 45t-41 46q1 -1 -6 7.5l-21 25.5q-2 2 -2 3q-39 48 -77.5 94.5t-73.5 97.5l-6 9l6 -9q18 -26 38.5 -49t40.5 -46q33 -33 68.5 -62t77.5 -52q63 -34 132 -52.5t139 -16.5q68 3 129 23t117 52t108 72t102 82z" />
    <glyph glyph-name="uni1CEE" unicode="&#x1cee;" 
d="M564 1377q0 1 -0.5 10.5t-1 21t-1 21.5t-0.5 12q-2 52 -6.5 102t-15 98.5t-28.5 95t-48 91.5q-26 14 -49.5 24t-47.5 16t-49.5 9t-55.5 3q-25 0 -49.5 -4t-47.5 -4q-12 0 -36 23.5t-49.5 53t-47.5 54.5t-31 28q23 5 45.5 7.5t45.5 2.5q68 0 127.5 -21.5t113 -56.5
t101 -79t91.5 -90q37 -39 69.5 -89t58.5 -105t44.5 -112.5t27.5 -111.5h-160z" />
    <glyph glyph-name="uni1CEF" unicode="&#x1cef;" horiz-adv-x="697" 
d="M230 1255q-3 -48 -2 -94t2.5 -91.5t1.5 -91.5t-5 -93q0 3 -13 13.5t-29.5 22.5t-31 22.5t-17.5 13.5q-5 5 -17 14.5t-24 21t-21.5 22.5t-9.5 19q-3 30 -3.5 57t-0.5 53.5t1 53.5t2 57l-306 -2q-9 0 -21.5 13t-25 30t-23.5 33t-16 21q-3 3 -14 16t-24 27.5t-24 26
t-15 11.5q112 5 222.5 4t222.5 -1h22q-1 51 -6 101t-16 99t-29.5 95t-46.5 89q-51 28 -98 40t-104 12q-49 0 -98 -9q-6 -1 -18.5 9.5t-26 24t-24.5 26.5t-15 17q-3 2 -14.5 15.5t-25 28.5t-25.5 27t-14 11q46 10 91 10q66 0 124.5 -20.5t111 -54.5t101 -78.5t95.5 -92.5
q71 -72 123 -160t72 -187q69 1 136.5 0t135.5 -6q9 -1 21 -10.5t23.5 -22t22 -24.5t16.5 -18q3 -3 13.5 -19t23 -35t23.5 -34t14 -15z" />
    <glyph glyph-name="kru" horiz-adv-x="1333" 
d="M1047 -72q8 -7 33.5 -26t52.5 -40t48 -39t21 -24q0 -16 -21.5 -33t-50.5 -31t-58.5 -23t-45.5 -9q-43 0 -84 19t-78.5 46.5t-69.5 58.5t-58 54q-57 54 -92 114t-35 132q0 69 31.5 127t78.5 111t101.5 103.5t101.5 104t78.5 112t31.5 127.5q0 40 -25.5 66.5t-63.5 42
t-83.5 22t-86.5 6.5q-39 0 -83.5 -10t-82 -30t-62.5 -50t-25 -70q0 -16 6.5 -41.5t17.5 -55t26.5 -60.5t32.5 -58.5t35.5 -49t36.5 -31.5q-35 17 -75.5 38.5t-80.5 47t-77 54.5t-65.5 61.5t-45.5 67t-17 70.5q0 49 24 91.5t65 74t94.5 49.5t111.5 18v187h-450l-109 181h1094
l139 -180l-495 -1v-184q42 -8 88 -28t90.5 -48t84.5 -63t70.5 -72.5t48.5 -76t18 -73.5q0 -70 -32 -130.5t-80.5 -117t-104.5 -112t-104.5 -115t-80.5 -126.5t-32 -147q0 -24 13.5 -45t35 -36.5t48 -24.5t52.5 -9q52 0 89 24.5t55 59.5z" />
    <glyph glyph-name="kruu" horiz-adv-x="1588" 
d="M837 134q-8 -27 -9.5 -64.5t4 -76t19 -73.5t35.5 -56q26 -25 61.5 -35.5t70.5 -10.5q21 0 41.5 8t38 21t31.5 30.5t22 35.5q10 22 14 51t4 53q0 27 -2.5 54.5t-2.5 54.5v8h95q0 -20 0.5 -58t2.5 -78.5t7 -77t15 -53.5q14 -23 32 -34.5t46 -11.5q39 0 68.5 21.5t49.5 54
t30 70.5t10 71q0 47 -12 92q5 -11 13.5 -20.5t16.5 -18.5q18 -21 31 -37.5t21.5 -33.5t12 -38t3.5 -50q0 -34 -9.5 -72.5t-29 -71t-49 -54t-70.5 -21.5q-31 0 -58 15.5t-50.5 38.5t-43.5 50t-37 50q-6 -28 -19 -56t-32.5 -50.5t-45.5 -36.5t-58 -14q-38 0 -64 15t-54 38
q-36 29 -74 53t-74 47t-68 48t-56.5 56.5t-39.5 72t-18 94.5q-3 67 24.5 123.5t70 107.5t93.5 99.5t94.5 101t73 112t29.5 130.5q0 23 -5 41t-24 34q-15 14 -41.5 23.5t-56.5 16.5t-59 10t-49 3q-34 0 -75 -9t-76 -28.5t-59 -49.5t-24 -71q0 -17 6.5 -43t17 -55.5t25 -59.5
t30.5 -56.5t33 -46.5t32 -29q-45 20 -102 54t-108 77.5t-86 95t-35 106.5q0 52 24 96t62.5 75.5t86.5 49t97 17.5v194h-427l-178 177h1282l184 -177h-679v-193q42 -9 80 -28t72.5 -44.5t65.5 -55.5t59 -60q36 -38 57.5 -79.5t21.5 -95.5q0 -57 -22 -106.5t-57 -95.5
t-76.5 -88.5t-81.5 -86.5t-72 -89.5t-47 -96.5z" />
    <glyph glyph-name="ru" horiz-adv-x="1114" 
d="M711 23q2 -1 5 -9t2 -13.5t-9 -3t-28 23.5q-24 26 -47.5 50t-40.5 49.5t-25.5 53t-3.5 59.5q11 73 47 133t86 121q23 28 52.5 58.5t55.5 63t41.5 67t9.5 69.5q-7 42 -30.5 76.5t-55 58.5t-66.5 37.5t-67 13.5q-23 0 -40 -7q6 -46 10.5 -86.5t0.5 -84.5q-1 -15 -6.5 -30
t-14.5 -27.5t-22.5 -20.5t-31.5 -8q-14 0 -31 6q-70 26 -113 60t-63.5 70t-22.5 69.5t8 58.5q16 37 40.5 69t69.5 52q17 8 30 11q0 50 -4.5 94.5t-9.5 98.5h-267l-120 180h882l132 -180h-507q2 -5 4 -8.5t2 -7.5q5 -45 8.5 -81t2.5 -80q20 -2 57.5 -14t82.5 -33.5t92.5 -53
t88.5 -73.5t69.5 -94t34.5 -114q6 -52 -6.5 -97.5t-35.5 -88.5t-54 -84t-63 -83q-26 -34 -53 -73t-47.5 -80.5t-29.5 -84t1 -83.5z" />
    <glyph glyph-name="uni043A.alt" horiz-adv-x="1378" 
d="M655 134v681q-167 0 -335 3q-4 0 -14 11t-22.5 27t-25.5 34.5t-24 35t-18.5 28.5t-8.5 13l449 -8l-1 293h-425l-180 180l1049 1l181 -181h-444v-296q44 -2 99.5 -11.5t109.5 -38.5q32 -18 63.5 -42t60.5 -52t55 -59.5t47 -64.5q30 -48 42 -102t13.5 -108t-4.5 -105
t-12 -93q-1 1 -13.5 8.5t-30 19t-37 25t-36 26.5t-27.5 23t-10 15l4 28q7 46 9.5 92t0.5 91q-4 85 -53.5 135t-136.5 58q-32 3 -67.5 5.5t-76.5 4.5v-809z" />
    <glyph glyph-name="uniA9A0.alt" horiz-adv-x="1070" 
d="M694 65q-27 -2 -72.5 0t-96.5 8t-101.5 15t-87.5 20.5t-53.5 25t-1 27.5t70.5 29t161 30q46 6 87.5 14.5t78 23.5t67.5 40t56 65q20 32 33 69.5t13 74.5q0 12 -2.5 29t-7 34.5t-11 33t-13.5 25.5q-6 8 -22 20.5t-34.5 25t-36 23.5t-27.5 16q-51 27 -111 27
q-16 0 -32 -5.5t-31 -11.5t-28 -11.5t-22 -5.5q-8 0 -25 18t-35 40.5t-33.5 43.5t-20.5 28q-14 17 -29 33t-30 33q22 14 42 19.5t43 13.5q32 10 66 28.5t66 42t60 51t46 55.5q32 50 32 106q0 8 -0.5 17t-1.5 17h-451l-149 180h774l152 -180h-263q2 -6 7 -13.5t11.5 -15
t13 -14t10.5 -11.5q29 -35 48 -79.5t19 -90.5q0 -36 -13 -69.5t-34 -63t-48 -54.5t-56 -43q21 -20 48.5 -48t58 -60t62 -67t59.5 -69t51.5 -64.5t37.5 -53.5t23 -51t9 -54q0 -67 -26 -115t-70 -80t-103.5 -49t-126.5 -23z" />
    <glyph glyph-name="kssa.top" horiz-adv-x="1375" 
d="M326 805q-4 0 -14 10.5t-22.5 26.5t-25.5 35t-24 35t-18 28t-8 13v1h1l445 4l-5 292h-424l-181 180h1049l180 -180h-443l5 -306q43 -2 99.5 -12t110.5 -40q63 -35 122 -93t101 -123q29 -46 41.5 -99.5t14 -107.5t-4.5 -105.5t-13 -93.5v-2l-1 2q-1 1 -13 9t-29 19.5
t-36.5 25t-36 26t-27 23t-10.5 14.5l3 29q5 44 10 90t2 92q-5 83 -54.5 133.5t-135.5 58.5q-31 2 -67 3.5t-77 3.5l5 -797h-180v149q-27 -17 -58 -27.5t-63 -10.5q-54 0 -95.5 26.5t-76.5 65.5q-14 15 -29 31.5t-30 31.5q-2 5 -8 9l-10 10l-1 2q-2 4 -5 5q-2 3 -4 5.5
t-4 5.5l-17 21q-2 3 -4 5.5t-4 5.5q-47 65 -66 143.5t-14 157.5q2 20 4 40.5t7 40.5q28 -40 49 -78q19 -32 34 -66.5t14 -59.5q95 -5 188.5 -10.5t187.5 -12.5v312q-33 1 -66 1h-64h-102t-102 2zM660 441q-95 7 -188 13t-188 11q2 -51 13 -102.5t35 -96.5q4 -3 7 -5.5
t7 -4.5q23 -11 48.5 -17t53.5 -4q36 3 67.5 15.5t58 32.5t48 46t38.5 56v56z" />
    <glyph glyph-name="kssa.alt" horiz-adv-x="1415" 
d="M740 1253v-126q65 -20 126 -60.5t109.5 -95t79.5 -119t36 -132.5q3 -51 3 -101q0 -72 -3 -142.5t-3 -142.5q0 -24 3 -55.5t9.5 -64t17 -61.5t25.5 -48q9 -11 26.5 -17.5t37.5 -11t39.5 -8t32.5 -6.5q20 -5 30.5 -19t18 -30t15 -30t22.5 -18q-61 7 -127 33t-124.5 66
t-103.5 93t-64 114q-14 45 -19 91.5t-5 93.5q0 34 -0.5 63.5t-1 58.5t-1 58.5t-0.5 63.5q0 41 -5 86.5t-19.5 88t-40.5 76.5t-69 52q-20 8 -38 15.5t-40 8.5q-36 2 -66 1.5t-57 -6.5t-53 -21t-53 -43q48 -40 91.5 -84t85.5 -89.5t85 -90t89 -86.5q0 -24 -20 -44.5t-48 -35.5
t-58 -23t-49 -8q-47 0 -98.5 18.5t-100 48.5t-90 67.5t-68.5 74.5q-24 34 -37.5 72.5t-13.5 80.5q0 64 30 110t76 78.5t101.5 54t106.5 36.5v115h-377l-133 179l983 1l166 -180h-459zM416 893q-21 -27 -32.5 -59t-11.5 -67q0 -15 3.5 -35.5t9.5 -41t14.5 -39t17.5 -30.5
q6 -8 21.5 -13t33.5 -8t35.5 -4t27.5 -1q32 0 64.5 8.5t54.5 33.5z" />
    <glyph glyph-name="jnya" horiz-adv-x="1610" 
d="M1287 1002q1 -21 2 -43.5t3 -45.5q-1 3 -14 10t-29.5 14t-32 13t-20.5 8q-5 3 -20 8.5t-30.5 12.5t-28 13t-12.5 10q-3 47 -6 90q-2 46 -4.5 63t-5 26t-5 22t-4.5 50h-192q3 -32 5.5 -51.5t5 -33t4.5 -25t4 -26.5t4.5 -38t4.5 -59q1 -22 2 -43t3 -43q0 3 -13.5 9
t-30.5 13t-32.5 13t-19.5 8q-5 3 -20 8.5t-31 12t-28.5 13t-12.5 10.5q0 22 -0.5 43t-1.5 42q-2 29 -4 45t-4 24.5t-4 13t-4 11t-3.5 18.5t-3.5 35l-195 -3q1 -1 1 -5q2 -43 4 -74t4 -59t4 -58.5t5 -74.5q2 -32 2.5 -65.5t2.5 -66.5l211 -180q42 35 89.5 55.5t102.5 20.5
q51 0 95.5 -18t85 -46t78.5 -62.5t75 -68.5q18 -16 34.5 -36t28.5 -42.5t16.5 -46.5t-1.5 -50q-10 -42 -38.5 -67.5t-66.5 -25.5q-25 0 -52 12q-53 23 -98.5 61.5t-90.5 75.5q-23 18 -46 37.5t-46 37.5q-57 -60 -83 -134.5t-31 -156.5q-15 14 -30.5 27t-31.5 27
q-9 7 -16 11.5t-9 6.5q-9 6 -22 15t-26 19t-24 21t-15 21q-8 23 -18 47.5t-22 47.5q-47 4 -91.5 -14t-73.5 -58q-36 -49 -44 -103.5t5 -108t44.5 -101.5t74.5 -86q4 -3 7 -6l2 -2q-1 0 -12.5 9.5t-29 23.5t-37.5 30.5t-37.5 31.5t-30 25.5t-14.5 12.5q-30 26 -57.5 57
t-49 66t-33.5 73.5t-10 80.5q2 38 14.5 76t35 69t55 50.5t74.5 20.5q38 0 71 -13t63 -33.5t57.5 -45t55.5 -47.5l3 -3l7 -6l3 -3q13 54 36 105t59 92q-35 29 -70.5 59.5t-76.5 51.5q-14 8 -31 14t-35 10q1 -15 2 -31t-0.5 -31.5t-7 -28t-17.5 -19.5q-16 -9 -33 -9
q-21 0 -41.5 12.5t-39.5 30t-35.5 37t-30.5 32.5q-9 9 -25 23t-28 31q0 1 -1 2q-10 13 -16.5 26t-7.5 25.5t6.5 23.5t25.5 20q23 11 44 13t43 0q-2 35 -4 70.5t-4 71.5q-1 32 -2.5 50t-3 34t-3 35t-3.5 51h-122q-9 0 -23.5 13.5t-30.5 31t-29 35t-19 24.5q-2 3 -9 11.5
t-16.5 20t-19.5 23.5t-18 21h1328l182 -180h-299q3 -51 6 -75.5t6.5 -44t7 -47t6.5 -84.5zM934 526l-5 -5q29 -23 57 -45.5t58 -44.5h1q38 -5 66.5 8t45.5 36.5t21.5 55t-5.5 63.5q-18 3 -35 4.5t-36 -0.5q-46 -7 -89 -23.5t-79 -48.5z" />
    <glyph glyph-name="rkha" horiz-adv-x="1638" 
d="M1189 360v29q-48 -10 -94.5 -21t-94.5 -11q-31 0 -64.5 4.5t-60.5 17.5t-55 31.5t-53 41t-44 48t-28 52.5q-11 33 -15 65.5t-4 67.5q0 38 1 75.5t3 75.5q-1 32 0 61.5t-9 60.5h-248l28 -19v-948l-180 118v849l-39 2l-132 153h1089v140l-1003 2l-134 152v6q-1 0 -1.5 1.5
t0.5 1.5l1 -1l-1 16h1358l179 -176l-216 -2l-1 -140h67l128 -153l-194 -2l-3 -958l-179 134v252zM716 958q34 -26 59 -50.5t27 -41.5q9 -100 9 -201q0 -26 -2.5 -50.5t-2.5 -50.5q0 -17 0.5 -36t6.5 -34.5t19.5 -26t38.5 -10.5q26 0 50 5t47 12q25 7 49 14t46.5 17t42.5 24
t36 33q18 22 32.5 48.5t14.5 54.5q0 25 -0.5 49t0.5 49l3 194v2z" />
    <glyph glyph-name="rga" horiz-adv-x="1484" 
d="M1191 1105q6 0 18 -11t26.5 -27t31 -35t31.5 -35.5t27.5 -27.5t19.5 -12h-153v-957l-180 134v823h-223v-363l-1 2v-297l-351 273h197v41h2v344h-210q-11 0 -25 11.5t-29 28t-30.5 36.5t-29.5 37t-25 29t-17 12h732q0 35 -2 71t-3 71h-771l-176 177h1285l99 -177h-281
q6 -37 9 -74t4 -74h25z" />
    <glyph glyph-name="rnga" horiz-adv-x="1456" 
d="M1235 129q23 -16 46 -38t45 -44.5t42.5 -42t37.5 -31.5q-65 45 -129 84t-118 69.5t-92.5 51.5t-53.5 31q-32 23 -64 45.5t-64 45.5t-65.5 49.5t-71.5 40.5q-2 1 -4.5 2t-5.5 2q-1 -22 -5 -41.5t-13.5 -33t-25 -20.5t-38.5 -3q-27 5 -53 22.5t-50 40t-45.5 46t-39.5 40.5
q-7 7 -15.5 15t-15 17.5t-9 20t3.5 21.5q10 20 34.5 30.5t44.5 10.5q23 0 24 -12q3 -24 3 -36q1 -7 1 -11l-2 27.5t-5.5 70.5t-8 95.5t-8.5 103.5t-8 94t-6 66h-285v3h-10l6 2l-162 157h995q-1 37 -1 65.5t-1 64.5q-14 1 -27 1h-26h-774l-166 180h1162l166 -180h-171v-3
q6 -34 9 -62t3 -66h14l3 -14v-1l156 -147h-155q-2 -27 -4 -69t-3.5 -86.5t-3 -85.5t-3.5 -67q-1 -9 -7.5 -14.5t-15.5 -5.5t-17 6q-14 13 -27.5 23.5t-16.5 13.5q-20 18 -40 36.5t-37 38.5q-13 16 -25.5 44t-24.5 58.5t-23 60t-21 47.5h-305q5 -52 9.5 -86t9.5 -60
t9.5 -48.5t9.5 -51.5t10 -69.5t11 -101.5q1 -6 3 -17.5t4.5 -25.5t4.5 -29t3 -29q14 -10 27 -19.5t27 -18.5q48 -33 86 -57.5t71.5 -43.5t64.5 -36t64.5 -36t72 -43t85.5 -57z" />
    <glyph glyph-name="rca" horiz-adv-x="1833" 
d="M1605 958q11 -73 25 -138t26.5 -129t22 -129.5t11.5 -139.5q1 -32 3 -74t0.5 -86.5t-9 -88t-25 -79t-48.5 -60t-80 -31.5q-48 -7 -92 0.5t-84.5 24t-79 39t-77 46.5t-76.5 47.5t-79 40.5q-42 18 -91 37t-99 29q2 -10 5 -30.5t5.5 -41t4.5 -36.5t0 -16q-20 -7 -43 -14.5
t-45 -7.5q-32 1 -53.5 9.5t-41.5 22.5v-1q0 1 -1 1v1q-12 9 -23.5 19.5t-23.5 21.5q-35 32 -71 64.5t-68 67.5q-15 16 -18.5 35t3 37t21.5 31.5t38 17.5q20 4 44 4q20 0 38.5 -2.5t38.5 -6.5q-2 15 -3.5 30t-3.5 29l-14 119q-2 15 -3.5 29.5t-3.5 29.5q-5 41 -13 74t-17 65
t-17.5 65t-13.5 74h-119q-9 0 -18.5 9t-19 21t-17.5 24.5t-13 19.5q-4 6 -18 19t-29.5 27t-30.5 24.5t-21 10.5h1051q-5 23 -9 39t-8 31t-8.5 31.5l-10.5 38.5h-1077l-176 180h1470l177 -180h-142q6 -21 10.5 -37t8 -31.5t7.5 -32t10 -39.5q1 0 8.5 0.5t16 0.5h15.5t8 -1
q17 -18 29.5 -36.5t24.5 -38.5q4 -6 16 -19t26.5 -26.5t28 -24t19.5 -10.5h-178zM1520 267q8 56 5 112.5t-11.5 113.5t-20 114t-20.5 114q-5 32 -9.5 50.5t-9 35t-10.5 37.5t-14 57q-13 22 -27 37t-28 20h-631q7 -59 17.5 -110.5t21.5 -101.5t21.5 -101.5t17.5 -110.5
q5 -38 9 -74.5t8 -74.5q63 -26 119 -60q44 -27 87 -56.5t91 -51.5q20 -9 45.5 -17.5t54.5 -14.5t60 -10t61 -4q31 0 59 5t49.5 16t36 29.5t18.5 45.5z" />
    <glyph glyph-name="rja" horiz-adv-x="1987" 
d="M1562 110q2 -2 16 -17t29.5 -31.5t29 -29.5t15.5 -13q-26 -11 -51.5 -15.5t-51.5 -4.5q-65 0 -125.5 26t-114.5 65q-71 52 -139.5 106t-137.5 108q-2 2 -3 2l-2 2q-4 3 -7 5.5t-7 5.5q-24 18 -47.5 39t-48.5 41t-50.5 38.5t-52.5 31.5q-16 8 -36 16t-41 12q2 -16 3 -34.5
t-1 -36t-8 -31.5t-19 -22q-18 -11 -39 -11q-25 0 -48.5 14t-45 34.5t-40.5 42t-35 36.5q-10 10 -27 26t-32 35l-2 2h1q-11 14 -19 29t-8.5 29.5t8 27t29.5 22.5q26 12 50.5 15t47.5 -1l2 286h-141q-10 0 -27 2.5t-34.5 7t-32.5 10t-21 12.5q-5 6 -20.5 25.5t-33 40.5
t-33.5 38t-23 17h1215l-11 132q-44 1 -86.5 1t-86.5 1l-346 4q-44 1 -86.5 1t-86.5 1h-427l-184 146q-13 8 -23 12.5t-16 4.5h19l-19 17h1563l223 -180h-184q6 -5 8 -11l15 -129h78l184 -156h-289l11 -173q2 -38 3 -75.5t3 -75.5q0 5 -17 16t-38.5 23t-41 22t-25.5 14
q-7 5 -26 15t-39.5 22t-36.5 23t-16 18q-2 38 -2 75.5t-5 75.5l-3 20h-169l10 -170q2 -38 3 -75.5t3 -75.5q0 5 -17 16t-38.5 22.5t-41 22t-25.5 13.5q-7 5 -26 15t-39.5 22t-36.5 23t-16 18l-10 170h-202q-1 0 -5 2h-37.5t-37.5 -1l1 -3v-1l1 -383q20 -15 39.5 -30.5
t39.5 -30.5l158 -123q28 -21 55 -42t54 -43l27 -22q28 -21 59 -39.5t63.5 -33t67 -23t70.5 -8.5q53 0 103 20q4 2 18 -10.5t30 -28.5t29.5 -30.5t16.5 -17.5z" />
    <glyph glyph-name="rjnya" horiz-adv-x="1968" 
d="M273 1253q-56 45 -114 88t-109 92h1563l222 -180h-183l13 -140h40l213 -159h-282l16 -288l-255 91l-2 197h-159l15 -264l-255 84l-2 180h-339l1 -5v-359l277 -219q46 44 103.5 68t121.5 24q60 0 114 -21.5t102.5 -55.5t93 -74.5t85.5 -78.5q18 -17 35.5 -36.5t31 -41.5
t21.5 -46.5t8 -50.5q0 -27 -9.5 -52.5t-26.5 -46t-40.5 -32.5t-52.5 -12q-25 0 -58 15t-69.5 39t-75 53.5t-74 59t-65.5 55.5t-51 43q-66 -71 -97.5 -159.5t-36.5 -184.5q-19 16 -37 32.5t-37 30.5q-13 10 -33 23.5t-40 28.5t-36.5 30.5t-22.5 28.5q-12 28 -22.5 56.5
t-24.5 55.5q-5 1 -10 1h-10q-54 0 -97 -20.5t-73 -55.5t-46 -81t-16 -97q0 -45 11.5 -86.5t32 -79.5t48 -72t59.5 -63q6 -5 11 -11q-14 8 -26.5 18.5t-23.5 20.5q-49 41 -105 87.5t-104 100t-79.5 115t-31.5 132.5q0 45 14.5 92.5t42 86t67 63.5t90.5 25q47 0 86 -15.5
t73.5 -39.5t66.5 -53.5t65 -57.5q1 -1 2 -1.5t2 -2.5l8 -6q1 -2 2 -2.5t2 -1.5q14 63 41.5 123t71.5 109q-28 24 -57 49.5t-60.5 47.5t-65.5 39.5t-71 24.5q2 -14 3 -27t1 -27q0 -18 -3 -34t-11 -28t-21.5 -19t-34.5 -7q-26 0 -50 14.5t-46 35.5t-41.5 44t-36.5 39t-32 31.5
t-29 32.5l-2 2q-10 14 -19 30t-9 33q0 18 12 31t29.5 21t37 11.5t33.5 3.5q8 0 14.5 -0.5t13.5 -1.5l5 258h-146q-10 0 -27 7.5t-34.5 17.5t-32.5 21.5t-23 18.5q-20 21 -37.5 46t-37.5 48h1260l-5 140h-1118zM1352 291q-28 0 -56.5 -7t-55.5 -19t-51 -29t-43 -37
q67 -56 137 -104v-1q6 -1 12 -1.5t11 -0.5q31 0 56 11t43 30.5t27.5 45t9.5 55.5q0 25 -8 52q-20 4 -41 4.5t-41 0.5z" />
    <glyph glyph-name="rjha" horiz-adv-x="1531" 
d="M1461 958h-164h-47q11 -43 14.5 -96t-2 -106.5t-21 -103t-44.5 -87.5q-25 -33 -58 -56.5t-70 -34.5t-77.5 -7.5t-80.5 24.5q-37 20 -73 47t-69 58t-64 64t-58 65q-4 4 -7 8.5t-6 6.5v-460v-191v-39q0 -12 -6.5 -20.5t-16 -12t-20.5 -2.5t-20 9l-297 256h221q0 92 0.5 175
t0.5 164t0.5 164.5t0.5 174.5h-163q-7 0 -19 12t-24.5 27t-23 29t-15.5 19q-4 4 -14.5 15.5t-23.5 24t-24.5 22t-16.5 9.5h909q-1 41 -2 75t-2 75q-185 2 -367 5t-366 5q-9 0 -24 9t-30.5 20t-28.5 22t-19 14q-5 3 -18.5 14t-29 23t-29.5 21.5t-21 9.5q230 -2 458.5 -5
t458.5 -7q10 0 25 -8.5t30.5 -20t28.5 -22t19 -14.5q8 -5 23.5 -13.5t31.5 -18t29 -19t15 -17.5q8 -38 12.5 -72.5t2.5 -75.5h22q8 0 19.5 -8.5t24 -20t23 -22.5t14.5 -16q4 -4 15 -19t23.5 -31t24 -28.5t16.5 -12.5zM924 602q55 16 93 54t62.5 88t35.5 106t12 108h-491
l-2 -134q23 -47 50 -91.5t59 -86.5q3 -3 3 -8q14 -8 29.5 -16t31.5 -13q29 -9 58.5 -12t58.5 5zM1481 1253h-1253l-178 180h1251z" />
    <glyph glyph-name="rnya" horiz-adv-x="1758" 
d="M1327 1249q8 -35 11 -70.5t3 -70.5h90l158 -150h-303q4 -6 8 -26t7.5 -44.5t6.5 -49t4 -39.5q47 -9 90.5 -38t83 -67.5t74 -81t61.5 -78.5q42 -54 64.5 -118t22.5 -133v-21t-2 -21q-8 -68 -28 -127.5t-49 -113.5q-2 -3 -3.5 -6.5t-3.5 -6.5l-177 135q48 69 78 147t30 170
q0 42 -6 84t-21 81q-26 14 -55 19.5t-58 5.5q-23 0 -45 -4t-42 -13q0 -1 0.5 -1.5t0.5 -1.5v-9q1 -1 2 -9t1.5 -17.5t0.5 -18v-10.5q0 -12 -1 -25t-5.5 -24t-13.5 -18.5t-24 -7.5q-23 0 -39 18t-30 33q-15 17 -37.5 38t-42.5 44t-34.5 48t-14.5 49q0 17 8 30t20 23.5t27 18
t28 12.5q-1 27 -3 43t-4 26.5t-4 18t-4 17.5t-4.5 26t-4.5 43h-337q4 -110 6 -195t3 -158t2 -139t2 -139t3.5 -158t5.5 -195l-7 -4l-164 164q-2 97 -3.5 168.5t-2.5 131t-1.5 112.5t-1.5 112.5t-3 131.5t-5 168h-161l-157 150h813q-2 35 -1.5 70.5t-0.5 70.5h-907l-181 184
h1274l181 -184h-178z" />
    <glyph glyph-name="rtha" horiz-adv-x="1445" 
d="M1244 -49q0 -5 11 -17t28 -27.5t36.5 -33t36.5 -33.5t28 -29.5t11 -19.5q0 -4 -3 -12.5t-5 -12.5q-12 -31 -40 -47.5t-66 -16.5t-77.5 21t-94.5 71q-10 9 -33.5 31t-49 52.5t-47.5 67t-31 75.5q-6 27 -6 70q0 57 6.5 109.5t6.5 106.5q0 65 -17 114q-29 11 -53.5 16
t-55.5 5q-41 0 -79 -9q24 -32 45 -76t37.5 -91t26 -93.5t9.5 -84.5q0 -57 -21 -106.5t-57.5 -86t-86 -58t-105.5 -21.5q-23 0 -44.5 4.5t-43.5 13.5t-46 24t-52 36q-62 47 -115 102.5t-81 102.5q38 -62 98.5 -96t132.5 -34q56 0 103.5 21t82 58.5t54 89t19.5 112.5
q0 80 -39 192q-18 18 -31.5 37t-26.5 34q-9 11 -16.5 18t-12.5 15l-2 2l-4 5l-2 2l-269 260h188l-5 441h-292l-144 180h1006l142 -180h-532q2 -125 2 -249t5 -249h-1v-156q63 1 117 -23.5t112 -81.5q20 -20 49 -46.5t57 -59t51.5 -70t32.5 -79.5q8 -35 8 -81
q0 -53 -6.5 -104.5t-6.5 -102.5t10 -91q12 -3 26 -3q21 0 41 7t36.5 19.5t28.5 29t16 36.5z" />
    <glyph glyph-name="rdha" horiz-adv-x="1352" 
d="M1090 933q-5 -20 -7 -34t-2 -28q27 -149 35 -301.5t-14 -301.5q-6 -42 -17.5 -81.5t-32.5 -70t-54 -48.5t-81 -18q-42 0 -80 16.5t-73 46.5q-46 39 -90.5 84.5t-82 97t-65.5 109t-40 120.5q-20 100 -33 202t-24 204q-33 -1 -67 -1h-67q-7 0 -19 11.5t-24 26t-22 28
t-14 18.5q-3 4 -13.5 17.5t-23 28.5t-24.5 26.5t-18 11.5q388 0 776 3q-1 38 -1 76.5v76.5h-686l-45 53q-11 11 -23.5 24t-17.5 18t-17 18.5t-26 28t-27 26t-20 11.5q91 -2 180.5 0t181.5 0l710 1l151 -180h-189l1 -2q5 -34 8 -72t3 -78h48q7 0 19 -11t24.5 -25t23.5 -27.5
t15 -18.5q3 -3 13.5 -17t22.5 -29t23.5 -27t16.5 -12q-53 0 -105.5 -0.5t-106.5 -0.5zM958 576q3 79 -2 159.5t-13 155.5q-4 8 -5.5 13t-3.5 8q-4 8 -5 11t-5 8h-178t-179 -1q14 -123 28 -247t33 -247q8 -51 19.5 -103.5t32.5 -100.5q20 -8 41 -13t44 -3q65 5 102.5 41
t57 88t25.5 113t8 118z" />
    <glyph glyph-name="rsha" horiz-adv-x="1431" 
d="M1176 1113q11 0 24 0.5t26.5 0t25.5 -3.5t21 -10q10 -8 23.5 -30.5t28 -46.5t29.5 -43.5t27 -21.5h-212q6 -278 4 -554t-2 -554q-1 7 -14.5 19t-33.5 27t-43.5 31t-43 31t-32.5 27.5t-13 19.5v341h-352v-211l-380 390h201v108l-3 217v108h-105q-6 0 -17 11t-25 27.5
t-29.5 36t-31 37t-29.5 29.5t-24 14h198l396 -1h198v30l2 61v30v20q-59 1 -116.5 1.5t-116.5 0.5q-125 0 -249.5 -1.5t-250.5 -1.5q-5 0 -9.5 -0.5t-8.5 1.5h-58l-131 180l1137 1l150 -181h-179q5 -8 8 -27t5.5 -40.5t3.5 -41.5t1 -31zM991 525v108l-3 217v108h-352
q3 -216 3 -433h352z" />
    <glyph glyph-name="rnna" horiz-adv-x="1903" 
d="M1721 732q20 -22 37.5 -49.5t29 -57.5t15 -62t-6.5 -65q-14 -49 -47.5 -78t-75.5 -29q-36 0 -71 22q-30 19 -57 42t-52.5 48.5t-50 52.5t-49.5 53q-25 25 -50.5 51.5t-51.5 52.5q-72 -70 -110 -161.5t-52 -197.5q-18 20 -34.5 38t-32.5 36q-13 13 -19.5 18.5t-8.5 7.5
q-9 9 -24 22.5t-29.5 28.5t-26 29.5t-15.5 26.5q-11 32 -18.5 63.5t-21.5 62.5q-10 2 -20 3t-21 1q-44 0 -85.5 -18.5t-73.5 -58.5q-47 -60 -61.5 -128.5t-4 -137.5t42 -133.5t77.5 -117.5q7 -7 8 -9t2 -3q-2 0 -15 13t-31.5 32.5t-40 43t-40.5 44.5t-33 36.5t-17 19.5
q-32 37 -61.5 79.5t-51.5 89.5t-32.5 97.5t-3.5 102.5q6 48 24.5 95.5t48.5 84.5t71 59t91 18q45 -3 83 -23.5t71.5 -50.5t63.5 -65t58 -68q3 -3 6.5 -7t8.5 -9q19 64 45 121q-3 5 -7 31t-7 65t-6 87.5t-5 97.5t-3 94.5t-1 79.5h-741l-188 180h1615l188 -179h-405
q-79 -1 -157 -1h-158v-300q32 24 68.5 41t78.5 22q74 10 135 -13t113.5 -66t99.5 -97.5t93 -107.5zM1486 619q35 0 62.5 17t45 45t24 64t-1.5 73q-21 6 -40.5 10t-39.5 3q-55 -2 -108.5 -19.5t-98.5 -54.5q-7 -6 -13 -12.5t-13 -11.5q18 -20 38 -40t43 -36.5t48.5 -27
t53.5 -10.5z" />
    <glyph glyph-name="rya" horiz-adv-x="1839" 
d="M1221 239q39 -21 85 -33.5t88 -24.5q51 -15 100.5 -29.5t99.5 -31.5q42 -14 67.5 -35.5t45 -45.5t37.5 -47t45 -39q-38 22 -86.5 39t-101 32t-107.5 29t-107 29.5t-98 34t-81 42.5q-21 -40 -58 -70.5t-81.5 -50t-92.5 -29.5t-91 -10q-87 0 -159.5 30t-136 77.5
t-119.5 106.5t-110 118q-30 33 -56.5 71.5t-45.5 80.5t-30 86.5t-11 90.5q0 44 14.5 92.5t41.5 89.5t66.5 68t89.5 27q22 0 43.5 -5.5t42.5 -11.5t42 -11.5t43 -5.5q54 0 77.5 31t23.5 81q0 22 -2.5 43.5t-4.5 43.5q-4 37 -5.5 73.5t-4.5 73.5h-503l-181 184h1265l180 -184
h-592q3 -4 6.5 -34t7 -73t7.5 -93t7 -95t5 -79.5t2 -45.5q0 -22 -5 -43t-15.5 -37t-28 -26t-42.5 -10q-19 0 -39.5 5t-41.5 11.5t-43 11.5t-46 5q-51 0 -92 -24.5t-69 -63.5t-43 -87t-15 -94q0 -119 58 -224q52 -30 107.5 -46t115.5 -16q43 0 88.5 7.5t87.5 24.5t78.5 43.5
t60.5 64.5q-12 11 -25 24.5t-24 29t-18.5 32.5t-7.5 34q0 18 9.5 36.5t30.5 18.5q11 0 29 -12.5t40.5 -31.5t46 -42.5t45 -46t38 -41.5t23.5 -28q11 -14 19 -30.5t11 -34.5z" />
    <glyph glyph-name="rva" horiz-adv-x="1273" 
d="M211 958q-7 5 -17.5 16.5t-20 23.5t-18 22.5t-12.5 14.5t-13.5 16.5t-21 26t-21.5 24.5t-15 11h147h156h152h134.5t102 -0.5t55.5 -0.5v140h-623q-6 0 -17 12.5t-22 28.5t-21 31.5t-14 20.5q-3 5 -13 21t-21.5 33t-22 30.5t-15.5 13.5h1027q6 0 17 -12.5t22.5 -28.5
t21 -31t13.5 -21q3 -4 13 -20t21 -33.5t22 -31t16 -13.5h-228v-424q2 -1 4 -1q-2 0 -4 -2v-825l-176 134v63q-75 26 -146.5 53.5t-138.5 63.5q-36 20 -69.5 46t-65 55.5t-60.5 61t-56 61.5q-42 45 -45 85t19 74t61 62t82 49q78 38 153.5 75.5t152.5 74.5h-495zM818 368v432
q-60 -29 -117 -57t-117 -58q-28 -14 -53.5 -29.5t-46.5 -35t-37.5 -43.5t-25.5 -55l62 -22t63 -24q21 -8 48.5 -18.5t57 -22t58.5 -23t52.5 -21t38.5 -15.5t17 -8z" />
    <glyph glyph-name="ngaa" horiz-adv-x="1582" 
d="M1427 197q-61 0 -124 25.5t-123.5 63t-117 80t-105.5 77.5l-160 127q-48 40 -103 73.5t-118 47.5q2 -12 3 -23.5t1 -23.5q0 -38 -15 -57t-57 -19q-27 0 -50.5 13.5t-44 33t-39.5 40.5t-37 36q-2 2 -11 9.5t-19 16t-18 16t-8 8.5l1 -1q-10 12 -17.5 26.5t-7.5 30.5
q0 14 12.5 25t30 18t35.5 10.5t29 3.5q14 0 26 -3l-20 405h-139q-9 0 -23 10t-28 24t-26.5 28t-18.5 21q-20 25 -43 46.5t-42 47.5h642v3h561l3 -3h30q3 -4 13.5 -19t25 -34.5t30.5 -41.5t31 -40.5t26 -31t16 -13.5h-163q-2 -8 -4 -14q-31 -93 -53 -184t-53 -184l-31 -92
l-1.5 -5t-3.5 -10.5t-4 -10t-4 -4.5q-4 0 -14.5 12t-23.5 31t-28 41.5t-28.5 42.5t-25.5 36t-18 21l6 -4q-58 69 -101.5 153t-76.5 167v4h-109v1h-67l-5 2h-72q5 -101 9 -201t8 -201l278 -195l144 -109q46 -29 101 -48t110 -19q15 0 32 3t32 6.5t27 6.5t16 3q8 0 17.5 -1
t17.5 -2q17 -2 34 -25.5t33.5 -56.5t33 -70t32 -67.5t30.5 -49.5t29 -15q-51 -18 -105 -18zM1044 1013q19 60 30 120t31 120h-176q24 -60 57.5 -120t57.5 -120z" />
    <glyph glyph-name="jaa" horiz-adv-x="1704" 
d="M953 1007q-43 0 -92 25t-94.5 62t-83 80t-57.5 79h-128q3 -64 6 -112.5t7 -93.5t7 -93.5t6 -112.5q72 -58 143.5 -115.5t143.5 -117.5t143.5 -121t150.5 -113q45 -29 95 -49.5t104 -20.5q24 0 48.5 9t44.5 9q7 0 20 -18.5t28.5 -46.5t32.5 -61t33.5 -63t31.5 -52t25 -27
q-47 -19 -95 -19q-61 0 -116.5 25t-103.5 61q-78 59 -152 121t-150 123q-11 9 -21.5 17.5t-21.5 16.5l-86 69q-11 8 -21.5 17t-21.5 17q-28 23 -57 49t-60 50t-64 43t-70 28l2 -22t1 -22q0 -16 -3 -31.5t-10.5 -27.5t-19.5 -19t-31 -7q-25 0 -53.5 21.5t-57 51t-54.5 59.5
t-45 48q-9 13 -16.5 27.5t-7.5 30.5q0 17 10.5 28.5t26.5 18.5t33.5 10t30.5 3q6 0 11.5 -0.5t11.5 -1.5l-2 52l-2 52l-10 207q-1 26 -2 51.5t-2 51.5h-140q-32 48 -71.5 91.5t-77.5 88.5h1452l152 -180h-473q-6 -43 -24.5 -86.5t-48 -79t-68.5 -58t-87 -22.5zM671 1253
q8 -5 11 -11.5t6 -13.5q11 -23 21 -47t27 -44q6 -6 8 -10q53 -33 113 -33q36 0 68 13t58.5 35t47 51t33.5 60h-393zM257 723v0l-1 1z" />
    <glyph glyph-name="ttaa" horiz-adv-x="1464" 
d="M1265 1253q-2 -8 -4 -14q-31 -93 -53 -184t-53 -184l-31 -92l-1.5 -5t-3.5 -10.5t-4 -10t-4 -4.5q-4 0 -14.5 12t-23.5 31t-28 41.5t-28.5 42.5t-25.5 36t-18 21l6 -4q-58 69 -101.5 153t-76.5 167v4h-279q3 -144 8 -288t5 -281q0 -39 -0.5 -80.5t1.5 -83t7.5 -82
t17.5 -77.5q52 -27 106.5 -36.5t112.5 -9.5q38 0 74.5 3t73.5 8q16 2 34 6t34 4q8 0 23 -16t34 -40t39.5 -52.5t39 -53t33 -42t20.5 -18.5q-55 -8 -110 -15.5t-111 -7.5q-66 0 -120 14t-100.5 38.5t-86 58t-76 74t-71.5 85.5t-71 92t-54.5 98.5t-26 106t-8.5 111t-3 112.5
q-3 94 -5 185.5t-4 185.5h-32l-63 1h-32l-161 183h1203l161 -183h-149zM1044 1013q19 60 30 120t31 120h-176q24 -60 57.5 -120t57.5 -120z" />
    <glyph glyph-name="nnaa" horiz-adv-x="2355" 
d="M543 561q-3 0 -32 12t-95 47.5t-136.5 85.5t-120.5 108q-54 65 -85 152q-24 66 -24 133q0 20 6 74.5t77 119.5q84 70 180 70q83 0 165 -38.5t149 -103.5q61 -59 116 -118q30 -28 30 -31l-1 -1q2 0 3 -0.5t4 -5.5v13q0 20 -2 39l-3 25q-2 20 -2 39q0 87 56 153
q63 72 145 76q63 -2 113 -42.5t91 -88.5l33 -36q97 -98 187 -201q0 2 9 16q29 42 54 77.5t48.5 69t46.5 67.5t48 71q0 1 1 2t2 3q8 13 17 26t19 27q1 2 3 5.5t5 8.5l28 49q3 5 5 8.5t3 5.5q21 26 48.5 37.5t59.5 11.5q42 0 87 -14t89 -31q36 -14 71.5 -37.5t68.5 -52.5
t62 -61t53 -64q38 -51 57.5 -111.5t21.5 -122.5t-12.5 -123.5t-43.5 -115t-73 -95.5t-100 -67q-5 -2 -18.5 6.5t-28 20t-27 22.5t-16.5 14q-2 2 -14.5 13t-27.5 24t-27.5 23t-14.5 9q81 37 131.5 101t73.5 141.5t19 161.5t-33 160q-8 23 -21.5 39t-39.5 16q-19 0 -40 -9
t-40.5 -22.5t-35.5 -28.5t-24 -27q-14 -21 -28 -42.5t-28 -42.5v-1q-22 -34 -41 -66q-15 -25 -32 -49q-44 -70 -88.5 -137.5t-94.5 -133.5q-2 -2 -28 15l-25 38l-107 106q-27 25 -33 33q-104 123 -115 137q-14 20 -31 37q-27 25 -73 25q-41 0 -75 -20q-101 -63 -115 -181
q-5 -41 -5 -82q0 -26 3.5 -74.5t29.5 -110.5l-3 5l-20 19q-62 54 -115 117q-25 32 -49 65q-36 48 -74 94q-42 49 -94 82q-61 38 -139 38q-129 0 -198 -88q-66 -91 -66 -198q0 -108 56 -160q39 -37 91 -68l92 -56q58 -33 58 -35zM999 756q1 0 1 -1q1 -1 1 -2z" />
    <glyph glyph-name="jnyaa" horiz-adv-x="1596" 
d="M217 1238q-14 14 -28.5 31.5t-25.5 31.5l-102 121l-4 2h3l-10 11h1309l187 -182h-426q-8 -49 -28.5 -97.5t-50 -86.5t-66 -60t-76.5 -18q-46 4 -86.5 29.5t-78.5 60.5q-16 15 -32 36t-31 44.5t-28 47.5t-25 44h-134v-8q2 -43 4 -74t4 -59t4 -58.5t5 -74.5
q2 -32 2.5 -65.5t2.5 -66.5l211 -180q42 35 89.5 55.5t102.5 20.5q51 0 95.5 -18t85 -46t78.5 -62.5t75 -68.5q18 -16 34.5 -36t28.5 -42.5t16.5 -46.5t-1.5 -50q-10 -42 -38.5 -67.5t-66.5 -25.5q-25 0 -52 12q-53 23 -98.5 61.5t-90.5 75.5q-23 18 -46 37.5t-46 37.5
q-57 -60 -83 -134.5t-31 -156.5q-15 14 -30.5 27t-31.5 27q-9 7 -16 11.5t-9 6.5q-9 6 -22 15t-26 19t-24 21t-15 21q-8 23 -18 47.5t-22 47.5q-47 4 -91.5 -14t-73.5 -58q-36 -49 -44 -103.5t5 -108t44.5 -101.5t74.5 -86q4 -3 7 -6l2 -2q-1 0 -12.5 9.5t-29 23.5
t-37.5 30.5t-37.5 31.5t-30 25.5t-14.5 12.5q-30 26 -57.5 57t-49 66t-33.5 73.5t-10 80.5q2 38 14.5 76t35 69t55 50.5t74.5 20.5q38 0 71 -13t63 -33.5t57.5 -45t55.5 -47.5l3 -3l7 -6l3 -3q13 54 36 105t59 92q-35 29 -70.5 59.5t-76.5 51.5q-14 8 -31 14t-35 10
q1 -15 2 -31t-0.5 -31.5t-7 -28t-17.5 -19.5q-16 -9 -33 -9q-21 0 -41.5 12.5t-39.5 30t-35.5 37t-30.5 32.5q-9 9 -25 23t-28 31q0 1 -1 2q-10 13 -16.5 26t-7.5 25.5t6.5 23.5t25.5 20q23 11 44 13t43 0q-2 35 -4 70.5t-4 71.5q-1 32 -2.5 50t-3 34t-3 35t-3.5 51h-70z
M654 1253q2 -2 3 -2l5 -6q1 0 3 -2q1 -1 2.5 -9t3.5 -17t3.5 -16.5t2.5 -9.5q15 -44 41 -82q3 -3 7 -9q26 -15 52 -23.5t53 -8.5q8 0 16 1t16 3q25 6 47.5 24.5t42 44t35 55.5t27.5 57h-360zM904 526l-5 -5q29 -23 57 -45.5t58 -44.5h1q38 -5 66.5 8t45.5 36.5t21.5 55
t-5.5 63.5q-18 3 -35 4.5t-36 -0.5q-46 -7 -89 -23.5t-79 -48.5z" />
    <glyph glyph-name="rngaa" horiz-adv-x="1456" 
d="M1235 129q23 -16 58 -40t65.5 -48t46.5 -43t1 -25q-65 45 -129 84t-118 69.5t-92.5 51.5t-53.5 31q-32 23 -64 45.5t-64 45.5t-65.5 49.5t-71.5 40.5q-2 1 -4.5 2t-5.5 2q-1 -22 -5 -41.5t-13.5 -33t-25 -20.5t-38.5 -3q-27 5 -53 22.5t-50 40t-45.5 46t-39.5 40.5
q-7 7 -15.5 15t-15 17.5t-9 20t3.5 21.5q10 20 34.5 30.5t44.5 10.5q23 0 24 -12q3 -24 3 -36q1 -7 1 -11l-2 27.5t-5.5 70.5t-8 95.5t-8.5 103.5t-8 94t-6 66h-285v3h-10l6 2l-162 157h995q-1 37 -1 65.5t-1 64.5q-14 1 -27 1h-26h-774l-166 180h1162l166 -180h-171v-3
q6 -34 9 -62t3 -66h14l3 -14l156 -148h-103q0 -2 -2 -1t-2 0q-12 -40 -23.5 -76.5t-22.5 -72t-22.5 -71.5t-23.5 -77l-23 -81q-5 -14 -6.5 -20t-3.5 -6t-15 13q-20 20 -38.5 42t-37.5 43q-11 14 -21.5 27t-20.5 26l-5 8q-18 29 -32.5 60t-33.5 69q-9 17 -14.5 32t-10.5 29
t-10.5 27.5t-13.5 28.5h-244q5 -52 9.5 -86t9.5 -60t9.5 -48.5t9.5 -51.5t10 -69.5t11 -101.5q1 -6 3 -17.5t4.5 -25.5t4.5 -29t3 -29q14 -10 27 -19.5t27 -18.5q48 -33 86 -57.5t71.5 -43.5t64.5 -36t64.5 -36t72 -43t85.5 -57zM986 958q9 -25 16 -46.5t14.5 -42t16.5 -41
t22 -43.5q2 7 3.5 13.5t3.5 12.5q4 14 7.5 31t7.5 35t8 35.5t8 30.5q3 14 3 15h-110z" />
    <glyph glyph-name="rjaa" horiz-adv-x="1987" 
d="M1562 110q2 -2 16 -17t29.5 -31.5t29 -29.5t15.5 -13q-26 -11 -51.5 -15.5t-51.5 -4.5q-65 0 -125.5 26t-114.5 65q-71 52 -139.5 106t-137.5 108q-2 2 -3 2l-2 2q-4 3 -7 5.5t-7 5.5q-24 18 -47.5 39t-48.5 41t-50.5 38.5t-52.5 31.5q-16 8 -36 16t-41 12q2 -16 3 -34.5
t-1 -36t-8 -31.5t-19 -22q-18 -11 -39 -11q-25 0 -48.5 14t-45 34.5t-40.5 42t-35 36.5q-10 10 -27 26t-32 35l-2 2h1q-11 14 -19 29t-8.5 29.5t8 27t29.5 22.5q26 12 50.5 15t47.5 -1l2 286h-141q-10 0 -27 2.5t-34.5 7t-32.5 10t-21 12.5q-5 6 -20.5 25.5t-33 40.5
t-33.5 38t-23 17h252l-1 1h964l-11 131q-44 1 -86.5 1t-86.5 1l-346 4q-44 1 -86.5 1t-86.5 1h-427l-184 146q-13 8 -23 12.5t-16 4.5h19l-19 17h1563l223 -180h-184q6 -5 8 -11l15 -128h73l1 -1h4l184 -156h-425q-8 -49 -29 -101.5t-51 -95t-67 -68.5t-77 -22
q-46 4 -86.5 29.5t-78.5 60.5q-16 15 -33.5 40t-34 53.5t-31.5 56.5t-27 48h-267l1 -2v-1l1 -383q20 -15 39.5 -30.5t39.5 -30.5l158 -123q28 -21 55 -42t54 -43l27 -22q28 -21 59 -39.5t63.5 -33t67 -23t70.5 -8.5q53 0 103 20q4 2 18 -10.5t30 -28.5t29.5 -30.5
t16.5 -17.5zM1050 958q2 -1 2 -6.5v-11.5t0.5 -11.5t1.5 -6.5t2.5 -9t3.5 -17t3.5 -16.5t2.5 -9.5q15 -44 41 -82q3 -3 7 -9q26 -15 52 -23.5t53 -8.5q8 0 16 1t16 3q25 6 48 28.5t43 53t36.5 64t28.5 60.5h-161z" />
    <glyph glyph-name="rjnyaa" horiz-adv-x="1968" 
d="M273 1253q-56 45 -114 88t-109 92h1563l222 -180h-183l13 -140h40l213 -159h-507q-8 -49 -29 -100.5t-51 -93.5t-66.5 -68t-76.5 -22q-46 4 -86.5 29.5t-78.5 60.5q-16 14 -33 38.5t-33.5 52.5t-31 55.5t-26.5 47.5h-244l1 -5v-359l277 -219q46 44 103.5 68t121.5 24
q60 0 114 -21.5t102.5 -55.5t93 -74.5t85.5 -78.5q18 -17 35.5 -36.5t31 -41.5t21.5 -46.5t8 -50.5q0 -27 -9.5 -52.5t-26.5 -46t-40.5 -32.5t-52.5 -12q-25 0 -58 15t-69.5 39t-75 53.5t-74 59t-65.5 55.5t-51 43q-66 -71 -97.5 -159.5t-36.5 -184.5q-19 16 -37 32.5
t-37 30.5q-13 10 -33 23.5t-40 28.5t-36.5 30.5t-22.5 28.5q-12 28 -22.5 56.5t-24.5 55.5q-5 1 -10 1h-10q-54 0 -97 -20.5t-73 -55.5t-46 -81t-16 -97q0 -45 11.5 -86.5t32 -79.5t48 -72t59.5 -63q6 -5 11 -11q-14 8 -26.5 18.5t-23.5 20.5q-49 41 -105 87.5t-104 100
t-79.5 115t-31.5 132.5q0 45 14.5 92.5t42 86t67 63.5t90.5 25q47 0 86 -15.5t73.5 -39.5t66.5 -53.5t65 -57.5q1 -1 2 -1.5t2 -2.5l8 -6q1 -2 2 -2.5t2 -1.5q14 63 41.5 123t71.5 109q-28 24 -57 49.5t-60.5 47.5t-65.5 39.5t-71 24.5q2 -14 3 -27t1 -27q0 -18 -3 -34
t-11 -28t-21.5 -19t-34.5 -7q-26 0 -50 14.5t-46 35.5t-41.5 44t-36.5 39t-32 31.5t-29 32.5l-2 2q-10 14 -19 30t-9 33q0 18 12 31t29.5 21t37 11.5t33.5 3.5q8 0 14.5 -0.5t13.5 -1.5l5 257l-1 1h-145q-10 0 -27 7.5t-34.5 17.5t-32.5 21.5t-23 18.5q-20 21 -37.5 46
t-37.5 48h204l-1 1h1057l-5 139h-1118zM951 954q2 -7 1.5 -18.5t1.5 -13.5q1 -1 2.5 -9t3.5 -17t3.5 -16.5t2.5 -9.5q15 -44 41 -82q3 -3 7 -9q26 -15 52 -23.5t53 -8.5q8 0 16 1t16 3q24 6 47 28t43 52t36 63t28 60h-354zM1352 291q-28 0 -56.5 -7t-55.5 -19t-51 -29
t-43 -37q67 -56 137 -104v-1q6 -1 12 -1.5t11 -0.5q31 0 56 11t43 30.5t27.5 45t9.5 55.5q0 25 -8 52q-20 4 -41 4.5t-41 0.5z" />
    <glyph glyph-name="uni043A.top.alt.2" horiz-adv-x="1378" 
d="M655 572v243q-167 0 -335 3q-4 0 -14 11t-22.5 27t-25.5 34.5t-24 35t-18.5 28.5t-8.5 13l449 -8l-1 293h-425l-180 180l1049 1l181 -181h-444v-296h57.5t100 -0.5t122 -1.5t123 -4.5t103.5 -9.5t63 -16q32 -18 63.5 -42t60.5 -52t55 -59.5t47 -64.5q20 -32 27 -86
t5.5 -119.5t-9 -136t-17 -134t-18.5 -115.5t-13 -80l-154 117l4 28q2 15 8.5 50t15 79.5t17.5 94t16.5 94t12.5 79t4 49.5q-4 85 -53.5 135t-136.5 58q-11 1 -48.5 0.5t-89 -1.5t-110 -2.5t-111 -3t-92.5 -2t-53 0.5v-349z" />
    <glyph glyph-name="uni043A.top.alt" horiz-adv-x="1378" 
d="M656 572l-1 256q-32 0 -63 0.5t-56 0.5t-54 -0.5t-55 -1t-46 -1t-27 0.5q-19 2 -42.5 23t-45 47t-37.5 50l-22 33l449 -8l-1 280h-425l-180 180l1049 1l181 -181h-445v-283q125 -3 213 -51q29 -16 60 -39.5t60 -51t54.5 -58t43.5 -60.5q31 -51 46 -108.5t15 -127.5
q0 -36 -4 -77.5t-13 -102.5q-33 20 -61 39.5t-48.5 36t-32.5 28.5t-12 18q0 3 2 11.5t4 27.5q3 26 6 60t3 62q0 91 -26.5 140t-72.5 71.5t-107 27.5t-130 9l1 -252h-180zM558 60q0 2 -2 2q2 0 2 -2z" />
    <glyph glyph-name="uni043A.top.alt2" horiz-adv-x="1378" 
d="M655 572v390q-32 0 -64.5 0.5t-64.5 0.5q-21 0 -48.5 -0.5t-56 -0.5t-55 0.5t-46.5 2.5q-7 1 -23.5 21t-34.5 45.5t-33.5 49.5t-21.5 33l449 -8l-1 146h-425l-180 180l1049 1l181 -181h-445v-149q54 -2 108 -13t102 -37q32 -17 64 -42t61.5 -53.5t55.5 -60t45 -62.5
q32 -51 44 -109t12 -118q0 -46 -5 -91t-12 -90q-9 6 -34 22t-52 34.5t-47.5 36t-20.5 24.5t1.5 14t2.5 14q5 37 8 73.5t3 73.5q0 88 -26.5 135t-72.5 68.5t-107 26.5t-130 9v-496zM558 60q0 2 -2 2q2 0 2 -2z" />
    <glyph glyph-name="uni043A.top.alt3" horiz-adv-x="1378" 
d="M655 572v400q-32 0 -64.5 0.5t-64.5 0.5q-23 0 -50 -0.5t-54.5 -0.5t-53.5 0.5t-48 2.5q-7 1 -23.5 21t-34.5 45.5t-33.5 49.5t-21.5 33l449 -8l-1 136h-425l-180 180l1049 1l181 -181h-445v-139q54 -2 108 -13t102 -37q22 -12 51 -34.5t59.5 -50.5t60 -60.5t52.5 -65.5
t37 -64.5t14 -57.5q0 -22 -3 -43.5t-6 -42.5l-150 73q4 20 8.5 40t4.5 40q0 42 -17 70t-45 46.5t-63.5 29t-73 15.5t-74 7t-65.5 3v-506zM558 204q0 2 -2 2q2 0 2 -2z" />
    <glyph glyph-name="uni0445.top" horiz-adv-x="1360" 
d="M1310 1253h-77v-684h-180v189q-33 -24 -69 -32t-75 -8q-29 0 -63 5.5t-60 21.5q-41 23 -76 56.5t-64 72.5q-17 23 -28.5 50.5t-18.5 57.5t-10 60.5t-3 58.5q0 25 2.5 48.5t2.5 48.5q0 30 -3 58h-190v-790l-146 110v681h-35l-131 180l1092 -4zM665 1255q20 -23 31.5 -42.5
t17 -40t6.5 -44t1 -53.5q0 -26 -2 -51t-2 -51q0 -21 0.5 -44t6 -42.5t19 -32.5t38.5 -13q10 0 23 1.5t26.5 4t26.5 6.5t22 9q29 15 59.5 40.5t55.5 57t41.5 68t17.5 75.5q1 38 1 75.5v75.5z" />
    <glyph glyph-name="uniA992.top" horiz-adv-x="1325" 
d="M1014 464l-180 110v679h-261l-1 -551l-352 252h194v297h-210q-8 0 -21.5 13.5t-29 33.5t-32 43t-31 43t-25 33.5t-15.5 13.5l1129 2q9 0 19 -11t19 -25.5t17 -28.5t14 -21q17 -22 35 -47t38 -44q-16 -7 -39 -5t-40 2h-228v-789z" />
    <glyph glyph-name="gha.top" horiz-adv-x="1248" 
d="M1114 455l-175 117v208q-42 -25 -82 -25t-82 28q-51 35 -97 78q-20 -61 -82 -99q-42 -23 -83 -23q-14 0 -47.5 5.5t-80.5 44.5l-16 12q-87 65 -157 145l-19 25q-42 47 -64 108q-24 74 -30 151q-9 104 -49 203q8 -15 26 -31t37 -30t31 -25.5t28 -23.5q41 -31 63 -67
q25 -51 36.5 -107t18.5 -113q7 -64 21 -124q87 0 142 61q24 31 28 69q3 22 3 44l-2 50q-1 29 -1 59q0 58 5 116q17 -16 33 -33q46 -42 84 -73q60 -44 69 -70q22 -87 22 -187v-10q99 15 157 118.5t68 214.5l-5 153l47 -46l48 -41q14 -14 32 -27.5t36.5 -31t22.5 -39.5t5 -46
q0 -7 2 -13l4 -94q2 -115 2 -170z" />
    <glyph glyph-name="uniA994.top" horiz-adv-x="1565" 
d="M943 530q-134 91 -184 130q-50 43 -109 68l-11 3q-1 -7 -19.5 -24t-55.5 -17l-15 1q-34 6 -61.5 22t-53.5 35q-14 11 -27 20q-50 32 -73 52q-26 23 -35 52v7q0 38 40 54q25 10 49 10q20 0 40 -6q4 -1 7.5 -2t5.5 -3l2 11l-2 12q-13 79 -65 297h-326q13 0 49 49t39 53
q41 54 65 79h1269q-34 -44 -46.5 -60.5t-17.5 -22t-13 -16.5q-36 -48 -54 -67q-15 -14 -24 -14h-129l-6 -88l-7 -133q-3 -19 -26 -19q-10 0 -18 5q-19 13 -32 22.5t-36 26.5q-93 70 -173 186h-335l71 -347q6 -31 12 -55l13 -9q22 -16 46 -32l187 -129q13 -8 24 -19
q47 -40 99 -83l41 -39q69 -52 69 -79q0 -18 -29 -25z" />
    <glyph glyph-name="uniA995.top" horiz-adv-x="1670" 
d="M1266 497q-82 0 -158.5 28.5t-148.5 66.5q-85 45 -174 75.5t-183 48.5q2 -20 8 -37.5t6 -38.5q0 -15 -10 -23.5t-24.5 -13t-30 -6t-26.5 -1.5q-20 0 -39.5 4t-36.5 12q-21 10 -52 28.5t-62.5 40.5t-59.5 44t-44 38q-8 8 -14 19t-6 23q0 22 12 34.5t29 18.5t37.5 7.5
t36.5 1.5q37 0 77 -8l-49 351q-2 11 -2.5 21.5t-1.5 21.5h-125q-7 0 -20.5 11.5t-30.5 29t-36 39t-36 41.5t-31 36t-21 23h1398q7 -6 21 -22t31.5 -35.5t36 -41.5t35 -39.5t29.5 -29.5t18 -12h-187q14 -56 24 -120.5t16 -130.5t9 -131.5t3 -123.5q0 -60 -9 -106.5t-33 -78.5
t-66.5 -48.5t-109.5 -16.5zM1079 643q25 0 50.5 3.5t49 13t42.5 25.5t31 41q18 37 26 81t8 85q0 42 -2.5 88t-6 93t-8.5 93t-11 87h-729q7 -52 14.5 -108t15 -113t15 -113t14.5 -107q65 -21 123 -50.5t115.5 -55.5t119 -44.5t133.5 -18.5z" />
    <glyph glyph-name="cha.top" horiz-adv-x="1577" 
d="M1024 1115q68 0 131 -31t109.5 -85t71.5 -127t17 -158q-4 -46 -26.5 -81t-56 -58t-75 -34.5t-83.5 -11.5q-12 0 -24 1t-24 3q-33 8 -72 27.5t-75.5 43.5t-67 49.5t-47.5 45.5q-15 -17 -26.5 -33.5t-28.5 -33.5q-41 -44 -95.5 -72.5t-113.5 -28.5q-27 0 -53 6.5t-52 22.5
q-30 18 -60 43t-58 53.5t-50.5 58.5t-37.5 59q-22 44 -25 91t9.5 92t40 83.5t67.5 65.5q67 44 143 44q44 0 86 -15t80 -44q14 -11 29.5 -24t32.5 -25l-1 209h-463l-176 181h1221l178 -181l-577 -4l-6 -187q15 15 33.5 25.5t39.5 17t43 9.5t42 3zM673 832q18 26 39 58t38 60
q-86 37 -174 37q-59 0 -110 -18t-84 -56t-50.5 -90.5t-7.5 -108.5q3 -13 14 -21t26 -12t31 -5.5t27 -1.5q80 0 141 43t110 115zM1085 691q31 3 57.5 21.5t47.5 44.5t35 57t19.5 58.5t2 49t-18.5 28.5q-6 8 -17 12t-19 6q-19 5 -46.5 8.5t-50.5 -1.5q-42 -9 -78.5 -23.5
t-61.5 -40.5q-40 -43 -71 -88.5t-64 -92.5q18 -5 41.5 -13.5t55 -16t73 -11t95.5 1.5z" />
    <glyph glyph-name="uniA997.top" horiz-adv-x="1804" 
d="M701 870q83 -61 162 -126t167 -119q56 -34 114.5 -42.5t122.5 -8.5l54 3h27q8 0 21 -13t27 -30t27.5 -33t23.5 -22q-26 -9 -54.5 -13t-55.5 -4q-62 0 -118.5 11t-109 30.5t-101.5 46.5t-97 60q-37 26 -63 47t-48.5 40.5t-46.5 39.5t-57 44q-1 1 -2 10.5t-2 21.5t-2 21.5
t-2 10.5v-59q-27 14 -55 26t-57 19q-1 -19 -4 -47t-10.5 -54t-20.5 -45t-33 -19q-28 0 -50.5 13.5t-43 32.5t-39 40.5t-38.5 36.5q-30 24 -55 49q-10 12 -17.5 26.5t-7.5 30.5q0 14 12.5 25t30 18t35.5 10.5t29 3.5q14 0 26 -3l-20 307h-139q-7 0 -21.5 11t-33 28.5
t-38.5 38.5t-38 40.5t-31.5 35.5t-18.5 23h1562q5 -7 16 -22.5t25 -35t30 -40.5t30 -38.5t25 -29.5t16 -14h-290l16 -269q-1 4 -8.5 5.5t-9.5 1.5q-49 10 -98 12t-98 10q-3 1 -13.5 3t-11.5 7l-10 230h-170l7 -263q-1 3 -17 5t-40 4t-52 4t-53.5 5t-44.5 7t-25 10l-9 229
h-202l-5 2h-72q4 -75 10 -149t10 -149zM572 832q1 -4 1.5 -3.5t0.5 2.5q0 1 -2 1z" />
    <glyph glyph-name="jha.top" horiz-adv-x="1730" 
d="M558 463q-8 0 -16 3.5t-15 7.5l-386 212h286v567h-213q-10 0 -33.5 24.5t-50 56t-49.5 60.5t-31 39h1472q6 -7 18.5 -22.5t28 -35t33 -41t33 -39t28 -29.5t17.5 -13h-274q22 -57 22 -120q0 -20 -2.5 -39t-5.5 -39q-6 -40 -35.5 -79t-74 -69t-99 -48.5t-111.5 -18.5
q-64 0 -134 26t-136 64t-124 81t-99 78v-582q0 -21 -14.5 -32.5t-34.5 -11.5zM920 958q16 0 32 2t32 5q69 14 118.5 42.5t81 67t46.5 84t15 94.5h-638v-89q0 -10 9.5 -18.5t16.5 -16.5q29 -33 54 -63.5t56.5 -54.5t73.5 -38.5t103 -14.5z" />
    <glyph glyph-name="uniA99A.top" horiz-adv-x="1650" 
d="M638 462l-174 110v680h-214l-200 181h1283l199 -181h-372l17 -139q48 -9 99.5 -26.5t100 -42.5t92 -55.5t75.5 -65.5q27 -30 42.5 -55.5t21.5 -49.5t3.5 -48t-11.5 -51q-6 -22 -28 -46.5t-55.5 -49.5t-76.5 -50t-90 -48t-96.5 -42.5t-95.5 -34.5q-17 4 -31 11.5t-23.5 17
t-14.5 19.5t-5 19v10t1 10q1 12 22.5 27t55 32.5t74 39t79 46t70.5 53.5t49 62q17 35 8 68.5t-33 53.5q-22 16 -57.5 27.5t-67.5 11.5q-48 0 -95 -15q3 -17 3.5 -36t0.5 -37q0 -26 -10 -41t-39 -15q-12 0 -26 8.5t-27.5 20t-26.5 23.5t-22 20q-13 11 -31.5 27.5t-36 36
t-29.5 39.5t-12 38q0 16 9.5 28t24 21.5t30 16t27.5 10.5l-18 151h-362q0 -198 -3.5 -395t-3.5 -395z" />
    <glyph glyph-name="uniA99B.top" horiz-adv-x="1301" 
d="M840 539h-7q-173 0 -304 112q-47 41 -103 99q-41 38 -79 84q-76 90 -90 217q-6 59 -7 121l-11 81h-39q-15 0 -63 71q-8 12 -13 16t-14 19t-21 32q-29 42 -39 42h1053q16 0 62 -71q9 -14 13 -19l36 -49q29 -40 37 -41h-266l-81 -155q-7 -13 -17 -26q-15 -18 -38 -18
q-16 0 -33 11.5t-32 30.5l-135 157h-237q6 -9 9 -56.5t5 -117t3 -104.5l1 -35v18.5t1 18.5l1 -15l1 -47v-20q0 -36 6 -71.5t31 -60.5q30 -22 80 -27q42 -5 79 -5h31q112 0 222 18q7 0 21.5 -13.5t30.5 -32t26.5 -32t15 -17.5t16.5 -19.5t27.5 -33.5t29 -30.5t18.5 -12.5
q-112 -19 -227 -19z" />
    <glyph glyph-name="ttha.top" horiz-adv-x="1177" 
d="M774 530q-115 0 -232 40t-202 103l-42 31q-60 45 -115 94.5t-88 109.5q-45 82 -45 170q0 71 39 140q93 152 270 197q66 16 129 16q114 -1 228 -51q49 -27 86 -72q17 -19 35 -37l48 -33l-3 1q35 -23 63 -53q72 -80 127 -182.5t55 -205.5q0 -4 -1 -59t-104 -137
q-93 -66 -222 -71zM615 675q95 0 175.5 32.5t123.5 105.5q40 75 40 160q0 5 -1 52t-39 124q-42 81 -134 115q-67 23 -138 24h-14q-20 0 -40 -2q-190 -22 -297 -159q-48 -59 -64 -127q-9 -36 -9 -74q0 -31 6 -64q12 -61 46 -100t105 -59q110 -28 226 -28h14z" />
    <glyph glyph-name="uniA99D.top" horiz-adv-x="1348" 
d="M1003 520q17 34 28 71q17 54 17 107q0 61 -21 124q-13 39 -33 76q-91 51 -188 51q-32 0 -64 -6q0 -23 6 -62q10 -57 10 -82q0 -61 -34 -61h-6q-31 5 -53 21.5t-42 37.5q-14 16 -41 38q-36 30 -74 69.5t-52 82.5q-4 12 -4 24q0 31 24 59q35 38 83 52l-18 131h-375
q-12 0 -44 55q-13 21 -23 38.5t-14.5 24.5t-34.5 62h1137l18 -32q10 -18 14.5 -24.5t15 -26t23.5 -42t24 -39t16 -16.5h-588l19 -138q92 -25 189 -113q54 -52 108 -106l26 -26q97 -97 101 -115q37 -90 37 -171q0 -34 -7 -66z" />
    <glyph glyph-name="ddha.top" horiz-adv-x="1633" 
d="M1411 513q-35 0 -113 10t-187.5 38.5t-161.5 46.5q-106 33 -206 78l-34 15q-58 31 -124 46v-6q0 -30 -9 -61t-47 -48q-28 -11 -50 -11q-36 0 -85 39l-5 4q-74 53 -146 107q-29 25 -29 50q0 8 10 27.5t56 36.5q29 11 60 11q28 0 44 -7h4q2 31 2 63q0 42 -5 85l-1 16
q-9 148 -36 199h-160q-8 0 -23 17q-22 24 -58 80l-37 52l-20 32h1382l19 -29q12 -19 17.5 -25t18.5 -27t28.5 -43.5t29 -39.5t19.5 -17h-1050q46 -98 62 -291q6 -74 9 -148l19 -8q103 -42 210 -73l48 -14q62 -21 132.5 -39.5t141.5 -25.5l-72 58q-11 8 -20 18l-1 1
q-1 0 -1 1q-1 0 -2 1l3 -2v0q-39 39 -39 81q0 2 1 26t72 52q50 17 95 17q95 -1 198 -77q18 -14 46 -30q51 -31 100.5 -71.5t62.5 -85.5q4 -18 4 -32q0 -61 -58 -80q-48 -15 -114 -17zM1202 650q79 3 143 40q42 24 42 66l-1 5l-22 1q-31 0 -67 -7t-64 -35q-34 -32 -35 -66z
" />
    <glyph glyph-name="nna.top" horiz-adv-x="1890" 
d="M543 561q-33 11 -64.5 27t-62.5 33q-69 37 -135 84t-117.5 106t-82.5 130.5t-31 157.5q0 19 2 37.5t4 37.5q5 39 32 73.5t64.5 60t80.5 40.5t80 15q73 0 132 -23t109.5 -60t96 -83.5t92.5 -93.5l15.5 -15.5t14.5 -15.5l-1 -1h3l4 -6v13q0 26 -3.5 51.5t-3.5 51.5
q0 40 15 81t42 74t64 53.5t80 20.5q31 0 60 -11.5t53 -30.5q35 -29 64.5 -61t59.5 -64q47 -51 94.5 -100t92.5 -101q2 4 4.5 8t4.5 8l85 122q11 16 31.5 48t43 66t43.5 64t33 43q35 -37 73.5 -69.5t76.5 -64.5q4 -3 12 -10t16 -15.5t14 -16.5t6 -14q0 -1 -17.5 -27.5
t-45 -66.5t-59.5 -87.5t-61 -90.5t-50.5 -75t-27.5 -40q-1 2 -2 2.5t-2 1.5l-156 155q-40 40 -77 82.5t-71 87.5q-21 30 -43 46t-61 16q-40 0 -75 -20q-37 -22 -65.5 -51.5t-44.5 -63.5t-19 -71.5t9 -76.5t19 -67.5t10 -50t3.5 -37.5t0.5 -30h-180q0 28 -14.5 67t-31.5 74
q-25 53 -44.5 103.5t-46.5 89.5t-68 62.5t-109 23.5q-62 0 -111 -22.5t-83 -61t-52 -90.5t-18 -112q0 -48 12.5 -83.5t33.5 -63t50 -49t62 -41t68.5 -39.5t70.5 -43z" />
    <glyph glyph-name="nna.top.alt" horiz-adv-x="1890" 
d="M309 669q-23 13 -42 29.5t-38 33.5q-36 32 -70 69t-60.5 78.5t-42.5 88t-16 97.5v36t4 36l10 43q11 40 38 73.5t63 58t77.5 38t80.5 13.5q73 0 131.5 -23t109 -60t96.5 -83.5t93 -93.5l15.5 -15.5t14.5 -15.5l-1 -1h3l4 -6q0 29 -3.5 58t-3.5 58q0 40 15 81t42 74
t64 53.5t80 20.5q31 0 60 -11.5t53 -30.5q35 -27 65 -60t59 -65q47 -51 94.5 -100t92.5 -101q1 1 17.5 26.5t42 63t55.5 82.5t57 84.5t47 68t26 34.5q8 -8 25 -23.5t39 -34.5t45.5 -40t42.5 -39.5t32 -32.5t14 -20l-261 -387q-48 48 -98 94.5t-95 97.5q-29 33 -59 67t-56 70
q-11 15 -21 26.5t-21.5 19.5t-26 12t-35.5 4q-40 0 -75 -20q-55 -31 -82.5 -64.5t-37.5 -68.5t-6 -72t12.5 -76.5t17.5 -81t9 -85.5h-180q-2 50 -22 99.5t-52 95t-73 84t-86 67t-91.5 44.5t-89.5 16q-126 0 -192.5 -58.5t-66.5 -170.5q0 -37 16 -72t39.5 -67.5t51 -61
t50.5 -54.5z" />
    <glyph glyph-name="uniA9A0.top" horiz-adv-x="1177" 
d="M688 454q-151 0 -258 49.5t-214 110.5q-14 8 -14 12q0 1 8 1q16 -1 76 -10q75 -12 177 -23q30 -1 62 -1q65 0 147 16t135 73q27 29 39 59q8 18 8 35v2q0 34 -34 77q-53 33 -118 54q-52 17 -109 17h-23q-82 -23 -88 -23q-18 0 -99 74q-8 5 -11 9l-58 44q41 17 82 21
q167 44 233 113q32 33 32 68q0 11 -2 20l-440 1l-164 180h851l220 -180h-405l6 -7l35 -25q54 -42 64 -91q2 -11 2 -19q0 -39 -40 -80q-45 -43 -109 -68q36 -21 65 -43q95 -64 182 -132q35 -27 64.5 -57t31.5 -69q-4 -81 -99 -147q-88 -61 -235 -61z" />
    <glyph glyph-name="tha.top" horiz-adv-x="1173" 
d="M872 572v175q-34 -19 -72 -28q-49 -11 -107 -11q-12 0 -54 1.5t-97 25.5q-101 51 -172 126q-33 36 -49.5 83t-21.5 91q-3 24 -3 49q0 24 3 49q2 22 2 45q0 27 -3 54v4l-4 18h-159l-162 180h1141l163 -180h-223l-2 -793zM373 1254q12 -9 24 -20q37 -31 52 -69
q12 -41 14 -83l407 -9q1 7 2 12q1 85 1 169h-500zM463 1023q-1 -1 -3 -17q-3 -24 -3 -48q0 -44 10 -88q4 -18 20 -30q23 -11 50 -11q9 0 19 1q4 1 8 1q51 4 93 18q119 53 182 143q11 18 19 23z" />
    <glyph glyph-name="uniA9A2.top" horiz-adv-x="1296" 
d="M1068 510q-33 0 -64 7.5t-60 19t-58.5 24.5t-59.5 25q-19 7 -27 10.5t-10 5t-2 2t-2 2t-10 4.5t-27 10q-32 12 -52.5 19.5t-39 12.5t-39.5 8.5t-54 6.5q1 -5 1.5 -11t0.5 -11q0 -24 -9.5 -39t-26 -24t-38 -12.5t-45.5 -3.5q-25 0 -50.5 13t-49.5 31.5t-46 38.5t-40 34
q-15 11 -32.5 24.5t-32 29.5t-24.5 34.5t-10 39.5q0 27 14 43.5t35 25.5t45 12t44 3q12 0 24 -1t23 -4q-4 91 -18 180.5t-25 180.5h-36q-9 0 -27 13t-40 33t-46 43t-45 43t-36.5 33.5t-22.5 13.5h185.5t155.5 0.5t141.5 1t141.5 1t156 0.5h185l216 -179l-739 -3l1 -1l-1 1
q-1 0 -1.5 -3.5t-0.5 -7.5q0 -24 3 -61t8 -80t11.5 -88.5t12.5 -87t11 -76t8 -54.5l161 -53q29 -9 47 -17t31 -13.5t23 -9.5t24 -7t33.5 -4t50.5 -1q18 0 39 12.5t38.5 30.5t29.5 39.5t12 39.5q0 14 -4 27.5t-10 26.5q4 -9 23 -25.5t41.5 -34t44 -33t31.5 -21.5
q16 -10 31.5 -21t28 -24.5t20 -30t7.5 -37.5q0 -34 -17.5 -58.5t-43.5 -39.5t-57.5 -22t-59.5 -7z" />
    <glyph glyph-name="dha.top" horiz-adv-x="1350" 
d="M888 578q-86 0 -166 51q-217 132 -291 296q-34 87 -47 177l-5 46q-4 26 -7 54q-9 47 -10 47h-145q-19 3 -71 70q-10 13 -14.5 18t-15.5 20t-24 32q-32 38 -42 40l1082 4q12 -2 33 -25.5t38 -44.5q10 -13 14.5 -18.5t16 -20t24.5 -31t24.5 -28.5t17.5 -13h-249
q32 -111 45 -241q5 -46 5 -92q0 -178 -50 -262q-27 -46 -90 -68q-36 -11 -73 -11zM723 709q92 8 135.5 52.5t56.5 106.5q17 77 17 180v11q0 107 -19 192l-402 -1q20 -144 64 -369q11 -62 22 -93q12 -35 40 -59q26 -20 73 -20h13z" />
    <glyph glyph-name="uniA9A4.top" horiz-adv-x="1289" 
d="M985 462l-180 110v206h-352l-160 180h512v294h-595l-160 181h1039q7 0 18.5 -11.5t23.5 -28t21 -30.5q9 -13 13 -18t15 -20q9 -14 21.5 -31t23 -29.5t14.5 -12.5l-254 -1v-789z" />
    <glyph glyph-name="uniA9A5.top" horiz-adv-x="1173" 
d="M1053 462l-180 110v37.5t-0.5 53.5t-0.5 53.5v37.5q-40 -23 -85 -31.5t-92 -8.5q-52 0 -97.5 11t-85 31t-75 49t-67.5 65q-41 46 -57.5 107.5t-16.5 119.5q0 25 2.5 48.5t2.5 48.5q0 26 -2.5 50.5t-10.5 49.5q-18 4 -36.5 3.5t-36.5 -0.5q-12 0 -33 17.5t-45 39.5
t-47.5 42.5t-39.5 26.5q6 1 12.5 1h12.5q28 0 54.5 -5t51.5 -17q17 -8 42 -23t53 -34t56.5 -41t52.5 -44.5t41.5 -43t22.5 -36.5q9 -26 11.5 -54.5t2.5 -54.5q0 -29 -3 -58t-3 -59q0 -20 1.5 -40.5t9.5 -37.5t24 -28t45 -11q13 0 29 1.5t32.5 4t31.5 6.5t27 9
q37 15 74.5 40.5t68 57t50.5 68t22 75.5q5 79 3 157t-2 156q2 -7 16.5 -18t34.5 -23.5t42.5 -27t42 -27t32 -23.5t12.5 -18v-813z" />
    <glyph glyph-name="pha.top" horiz-adv-x="1338" 
d="M660 467q-82 0 -221 102q-55 67 -100 136q-83 129 -84 272q0 91 36 228l12 48h-146q-7 0 -19.5 16t-25 37.5t-17.5 39.5t-10 25.5t-16 26.5q-9 16 -19 35h1095q7 -17 15.5 -33t13 -23t14 -27t21 -42.5t21.5 -38.5t58 -16h-815q0 -13 -5 -48l-7 -38q-11 -61 -26 -113
q-12 -52 -26 -101q-19 -91 -19 -168q0 -64 20 -134q1 -1 3 -1.5t3 -0.5q24 -5 46 -5q116 0 164 51t93 137q16 31 32 59q38 63 88 108q61 53 125 53q49 0 98 -41q49 -47 89 -111l30 -40q29 -35 48 -67q24 -42 25 -150q0 -6 -24 -47q-28 -46 -84 -46q-44 0 -87 38
q-43 41 -83 94q-33 35 -42 57l-11 17q-30 -46 -57 -96q-21 -40 -46 -79q-74 -114 -160 -114zM1051 683q57 5 81 46q30 51 31 106q-10 2 -18 2l-15 -1q-90 -13 -158 -106q14 -15 27 -31q25 -16 52 -16z" />
    <glyph glyph-name="uniA9A7.top" horiz-adv-x="1170" 
d="M546 1250h-336l-95 180h899l106 -180h-394q9 -203 11 -542q1 -8 1 -15q0 -48 -24.5 -93t-99.5 -75q-29 -19 -77 -19q-51 0 -124 21q-148 46 -228 133l-32 31q-46 41 -74 85.5t-28 89.5q0 11 1 21q16 93 92.5 151.5t140 65.5t84.5 7q86 0 174 -38q3 -1 6 -3q1 -1 2 -1
q-1 32 -2 184zM384 637q110 24 141 93.5t31 137.5q0 11 -1 21v9q0 19 -6.5 26t-31.5 7h-12q-57 -3 -107 -22q-108 -41 -145 -129q-13 -28 -17.5 -52.5t-4.5 -31.5q0 -31 26 -50q22 -13 43 -13.5t24 -0.5q35 0 60 5z" />
    <glyph glyph-name="bha.top" horiz-adv-x="1304" 
d="M1007 509q-82 0 -159.5 25.5t-148 63t-133 82t-115.5 81.5h2q11 -2 24 -9.5t27 -17t27 -18.5t22 -14q23 -13 58.5 -26t74.5 -22.5t78 -15.5t70 -6q12 0 24.5 0.5t24.5 1.5q42 3 76.5 20.5t59 42.5t38 54.5t13.5 56.5q0 38 -24 76.5t-54 71.5q-25 12 -58.5 21t-68.5 15
t-70.5 9t-65.5 3q-40 0 -80 -5.5t-78 -11.5q5 -32 9.5 -64t4.5 -65q0 -13 -1 -22t-6.5 -15t-17 -8.5t-32.5 -2.5t-32 0.5t-28 8.5q-24 11 -47.5 25.5t-45 31t-42.5 33.5t-41 31h2q-14 14 -22.5 30t-8.5 33q0 18 10.5 35t28 30.5t40 23.5t47.5 14q-2 38 -0.5 73.5t-2.5 73.5
h-188l-148 180h101l197 1h101h86h80.5h80.5t86 -1h23.5h34h33h20.5l198 -180h-537l11 -135q74 -2 152 -15t141 -42q42 -19 74.5 -43t68.5 -48q22 -15 46 -29t45 -30q27 -20 55.5 -50t52.5 -63.5t39 -67t15 -62.5q0 -32 -21.5 -61t-56.5 -50.5t-79 -34.5t-90 -13z" />
    <glyph glyph-name="uniA9A9.top" horiz-adv-x="1262" 
d="M1212 1433v-971l-180 110l-2 260h-338q2 -22 -2 -47.5t-16 -46.5t-34.5 -35t-58.5 -14q-22 0 -50.5 8t-57.5 21.5t-57 31t-50 37.5t-35.5 41t-13.5 40q0 20 16 39v2q27 27 57.5 35.5t72.5 8.5q23 15 43 35t33.5 43t19 47.5t-0.5 47.5q-9 35 -35.5 59t-61 39t-72 22
t-69.5 7h-140q-7 5 -28 27t-43.5 47t-40.5 45.5t-18 22.5l19 9q38 20 81.5 31t88.5 11q73 0 134 -27q125 -54 197 -136t98 -192q5 -23 10 -40t5 -42v-12.5t-1 -12.5h350v450z" />
    <glyph glyph-name="uni044F.top" horiz-adv-x="1393" 
d="M1191 462l-180 110v193q-87 -46 -188 -46q-25 0 -102.5 8t-180.5 67q-30 17 -69 41q-12 2 -56 37q-49 35 -84 75q-30 34 -31 68q0 4 2.5 25t69.5 51q58 25 129 28q41 -2 82 -7l40 -5q9 -3 16 -3q8 0 14 6q-8 6 -38 22q-80 51 -206 104q-14 6 -25 17h-178q-16 0 -63 66
l-30 38q-18 27 -46 60q-11 12 -20 16h1132q19 0 70 -74l53 -70q27 -36 39 -36h2h-4h-145zM695 804q119 3 199.5 50.5t99.5 127.5q13 59 17 119v107l-7 45h-459q169 -94 328 -187l-86 -49q-109 18 -159 18q-47 0 -91.5 -12.5t-78 -38t-33.5 -59.5q0 -32 26 -63q15 -8 32 -15
q111 -43 207 -43h5z" />
    <glyph glyph-name="uniA9AB.top" horiz-adv-x="1264" 
d="M678 549q-13 0 -34.5 3t-32.5 11l-386 278h330v413h-414q-6 0 -19.5 24.5t-28.5 56t-27.5 60.5t-15.5 38h1079q5 -12 16.5 -39t24 -56.5t25 -53.5t19.5 -30q-45 0 -90 -0.5t-90 -0.5l-120 -2q-45 0 -90 -0.5t-90 -0.5l11 -655q0 -9 -6.5 -17t-16.5 -14.5t-22 -10.5
t-22 -4z" />
    <glyph glyph-name="uniA9AD.top" horiz-adv-x="1661" 
d="M1218 462l-179 110v384v2l-2 4q-27 9 -55 9q-43 0 -79.5 -18t-62.5 -48t-40.5 -69t-14.5 -80q0 -33 9 -65t25 -61q-12 13 -23.5 27t-24.5 26q-27 26 -53 51.5t-42 59.5q-11 23 -24.5 48.5t-29.5 46.5q-9 12 -31.5 22.5t-48.5 18t-51.5 12t-40.5 4.5q-55 0 -96 -20
t-68.5 -54.5t-41 -80t-13.5 -95.5q0 -40 2.5 -68t9.5 -52t21 -47.5t36 -55.5q-16 15 -23.5 22.5l-13.5 13.5t-13 14t-22 24q-37 40 -62 71t-40.5 63.5t-22.5 72t-7 97.5q0 51 14.5 95t42.5 76.5t69 51t94 18.5q56 0 103.5 -20.5t88.5 -53t77.5 -72.5t70.5 -78v7l-1 15
q0 39 11.5 80.5t35 75.5t57.5 56t79 22q35 0 61.5 -11t49.5 -28t44.5 -37.5t45.5 -39.5v244h-793l-5 5h-37q-6 0 -18.5 12.5t-28 31t-32.5 40.5t-31.5 41t-26.5 31.5t-17 12.5h9l-8 6h988v1h64l1 -1h313l194 -180h-393v-790z" />
    <glyph glyph-name="uni1020.top" horiz-adv-x="1808" 
d="M1758 1253q-39 0 -70.5 -0.5t-69.5 0.5q1 -2 0.5 -5t-0.5 -1l-6 -30l-12 -59l-6 -30q-2 -10 -4 -22.5t-5.5 -24.5t-9.5 -23t-17 -19q-21 -16 -45.5 -22t-51.5 -6q-37 0 -85 12t-99.5 32t-105 45.5t-102.5 52.5t-90.5 53t-70.5 47h-198l19 -138q92 -25 189 -113
q54 -52 108 -106l26 -26q97 -97 101 -115q37 -90 37 -171q0 -34 -7 -66l-180 2q17 34 28 71q17 54 17 107q0 61 -21 124q-13 39 -33 76q-91 51 -188 51q-32 0 -64 -6q0 -23 6 -62q10 -57 10 -82q0 -61 -34 -61h-6q-31 5 -53 21.5t-42 37.5q-14 16 -41 38q-36 30 -74 69.5
t-52 82.5q-4 12 -4 24q0 31 24 59q35 38 83 52l-18 131h-375q-12 0 -44 55q-13 21 -23 38.5t-14.5 24.5t-34.5 62h1049q123 1 244.5 1.5t244.5 -1.5q8 0 21.5 -12.5t28 -28.5t26.5 -31.5t17 -21.5q4 -4 14.5 -18t22.5 -29t23 -27t17 -12zM1403 1249q-115 1 -228.5 2
t-228.5 2q26 -11 50.5 -22.5t41.5 -26.5l25 -23l27 -21q39 -17 86 -31t89 -14q62 0 95 37.5t43 96.5z" />
    <glyph glyph-name="va.top" horiz-adv-x="1191" 
d="M949 463l-180 109l-1 38q-141 30 -268 73q-62 22 -116 56t-102 71q-58 38 -58 70q0 5 5 23t48 42.5t99 42.5q49 16 97 31.5t97 32t98 31.5l96 30h3v140h-581q-15 0 -58 70q-8 14 -12 19t-13 20t-19 30q-27 41 -34 41h956q6 0 17 -13t40 -56q8 -13 11 -16.5t34 -53.5
q25 -41 33 -41l-192 1v-791zM749 708v261l-212 -69q-52 -17 -91.5 -39.5t-57.5 -58.5l48 -12q56 -14 162 -41q140 -36 151 -41z" />
    <glyph glyph-name="uni0448.top" horiz-adv-x="1343" 
d="M1046 462l-180 110v218h-421v-199l-383 367h204v294h-104q-32 43 -57 89t-55 91h269v1h911q2 0 6.5 -10t8.5 -22.5t7.5 -24t4.5 -14.5l16 -56t20 -54l-247 -1v-789zM445 958h421v294h-421v-294z" />
    <glyph glyph-name="ssa.top" horiz-adv-x="1173" 
d="M1053 462l-180 110v37.5t-0.5 53.5t-0.5 53.5v37.5q-40 -23 -85 -31.5t-92 -8.5q-52 0 -97.5 11t-85 31t-75 49t-67.5 65q-41 46 -57.5 107.5t-16.5 119.5q0 25 2.5 48.5t2.5 48.5q0 26 -2.5 50.5t-10.5 49.5q-18 4 -36.5 3.5t-36.5 -0.5q-12 0 -33 17.5t-45 39.5
t-47.5 42.5t-39.5 26.5q6 1 12.5 1h12.5q28 0 54.5 -5t51.5 -17q17 -8 42 -23t53 -34t56.5 -41t52.5 -44.5t41.5 -43t22.5 -36.5q5 -14 7.5 -29t4.5 -30l412 -11q4 77 2 152t-2 150q2 -7 16.5 -18t34.5 -23.5t42.5 -27t42 -27t32 -23.5t12.5 -18v-813zM463 1072
q0 -29 -3 -58.5t-3 -59.5q0 -20 1.5 -40.5t9.5 -37.5t24 -28t45 -11q13 0 29 1.5t32.5 4t31.5 6.5t27 9q33 14 66 35t61.5 47.5t50 57.5t30.5 64z" />
    <glyph glyph-name="uniA9B1.top" horiz-adv-x="1354" 
d="M1111 462l-180 110v218h-486v-199l-383 367h204v294h-104q-3 0 -45 70l-23 39q-42 71 -44 71h337q24 0 41 -27.5t17 -66.5v-380h486v294h-72q-7 0 -27 70l-11 39q-20 72 -25 72h445q6 0 27 -71l11 -38q21 -71 25 -72h-189z" />
    <glyph glyph-name="uni0445.top.1" horiz-adv-x="1552" 
d="M931 999q60 0 126 -15.5t129.5 -44.5t121 -70.5t101 -92.5t68.5 -111t24 -127l-1 -76l-211 110v58q5 24 0 52.5t-17 55.5t-30 51t-38 40q-3 3 -17.5 7t-31 7.5t-31.5 6.5t-20 3q-42 0 -81 -5.5t-77 -27.5q-69 -41 -115 -105t-81 -135q-2 -4 -2 -6q-8 -16 -27 -16
q-3 0 -23 9t-51 24.5l-70 35t-80 40.5t-80.5 42t-72.5 38t-56 28.5t-30 15.5q-19 10 -31.5 29.5t-12.5 40.5q0 9 13.5 38t34.5 69t46 85t48 86t40.5 72t23.5 42h-185l-185 180h1268l184 -180h-882l-221 -415l159 -112q25 50 59 99t77 87.5t94.5 62.5t112.5 24h30z" />
    <glyph glyph-name="kssa.alt.top" horiz-adv-x="1378" 
d="M234 857q41 60 84 105.5t93.5 76.5t110.5 47t133 17l1 -24v43l-1 87v43h-425l-180 180l1049 1l181 -181h-445v-149q54 -2 108 -13t102 -37q28 -15 61.5 -40.5t65 -55.5t58 -62t41.5 -60q11 -21 16.5 -44t8 -46.5t3.5 -47.5l2 -48l13 -187h-180v281q1 69 -26 110.5
t-70 64.5t-96.5 31t-106.5 9l-175 3v-2q-40 -1 -85 -3.5t-88 -12t-80 -29.5t-63 -58h-26q10 -10 22.5 -24.5t24 -30.5t19.5 -32.5t8 -31.5l-1 -4v-2l430 -10q10 25 14 47.5t5 45.5t0 47t-1 52q1 -3 14 -11.5t28 -18t28 -17t14 -8.5h2q2 -2 7.5 -5.5t11 -7.5t10 -8t4.5 -7
v-455q-12 14 -29 22t-31 19q-16 11 -29.5 25t-29.5 26v48q-8 -3 -13 -7q-37 -23 -82.5 -37t-88.5 -14q-60 0 -106.5 25t-92.5 59q-31 23 -63 48t-57.5 54.5t-41.5 65t-16 79.5q0 17 2 34.5t5 34.5h-51zM392 702q3 -37 14 -72.5t32 -67.5q27 -11 55.5 -15.5t57.5 -4.5
q40 0 78 10.5t71.5 30t61.5 47.5t47 63z" />
    <glyph glyph-name="jnya.top" horiz-adv-x="1610" 
d="M1261 1253q3 -63 13 -125.5t13 -125.5q2 -23 2.5 -44.5t2.5 -44.5q-2 4 -16.5 11.5t-35 16t-44 17.5t-43.5 17.5t-33.5 15.5t-14.5 11q-4 21 -4 44.5t-2 45.5q-2 42 -9.5 81t-9.5 80h-192q5 -59 15 -116t13 -117q1 -5 1 -10.5v-11.5l3 -42q0 -6 0.5 -11.5t0.5 -10.5
q-2 4 -16.5 10.5t-35.5 15t-45 17.5t-44 17.5t-33.5 15.5t-13.5 11v42.5t-2 42.5q-2 38 -11 73.5t-12 73.5l-195 -3l1 -5q9 -100 13 -199t9 -199l211 -180q41 35 89.5 55.5t102.5 20.5q51 0 96.5 -18.5t86.5 -47t78.5 -63t72.5 -66.5q31 -29 56 -66t25 -81q0 -23 -8 -44.5
t-22 -38.5t-34 -27.5t-44 -10.5q-22 0 -50.5 12.5t-59 32.5t-62.5 45t-61.5 50t-55 47.5t-44.5 36.5q-28 -30 -47 -64t-32 -71t-21 -76t-14 -80q-7 7 -21 14t-29.5 13.5t-29.5 12t-22 9.5q-13 7 -26 13.5t-23.5 17t-17 28t-6.5 47.5q0 13 -1.5 19.5t-5 12.5t-9.5 14.5
t-15 26.5l-24 16q-49 22 -82 30t-56 8q-18 0 -29.5 -4t-19 -9.5t-12.5 -11t-9 -8.5q-14 -11 -14 -29.5t10 -40t28 -44t39 -42.5t43.5 -34.5t41.5 -20.5q-22 8 -42 12q-42 11 -82.5 37t-73.5 56t-54.5 59t-25.5 47q-17 70 21 105.5t125 35.5q37 0 72.5 -14.5t69 -36.5
t63.5 -49t55 -51q13 54 35.5 104.5t59.5 92.5q-24 20 -48.5 41t-50.5 40t-54 33t-60 21q2 -18 3 -38.5t-3.5 -38.5t-17 -30t-38.5 -12q-21 0 -41.5 12.5t-39.5 30t-35.5 36.5t-30.5 33t-29 27t-26 30l1 -1q-8 11 -16 25t-8 29t10.5 25.5t25.5 17t32 9.5t29 3h11t11 -1
q-3 78 -9.5 156t-10.5 156h-122q-7 0 -20 11.5t-29 29t-34 38.5t-34 41t-29 36.5t-19 23.5h1328l182 -180h-299zM1123 599q-22 0 -49.5 -6t-54.5 -16.5t-51 -24.5t-39 -31q29 -23 57.5 -45.5t57.5 -44.5q5 1 10 0t10 -1q26 0 47.5 9.5t36.5 25.5t23.5 38t8.5 47q0 11 -2 22
t-5 22q-13 2 -25 3.5t-25 1.5z" />
    <glyph glyph-name="ngaa.top" horiz-adv-x="1404" 
d="M578 875q13 -11 26 -21.5t27 -21.5q60 -48 120 -93.5t120 -92.5q17 -11 40 -28t46.5 -36.5t44.5 -39.5t35.5 -37t18.5 -29t-7 -15q-9 -16 -24 -16t-35.5 12.5t-42 30t-43.5 36.5t-40 33q-2 1 -5 4q-1 0 -7.5 5t-14 11t-13.5 11t-8 6l-63 48q-8 7 -16 13l-16 12
q-15 12 -31 26t-32.5 27.5t-33.5 25.5t-35 19q-3 1 -11 3q0 -15 -3 -33.5t-9.5 -34.5t-19 -26.5t-32.5 -10.5q-10 0 -15 1q-27 6 -52.5 24t-48.5 42t-44 49.5t-39 44.5q-12 13 -25.5 28.5t-13.5 34.5q0 15 8 27.5t20 21.5t26.5 14t27.5 5q24 0 47 -13q1 4 1 13v3l-1 6v3
l-6 38q-10 63 -26.5 124t-22.5 124h-196l-104 179h1043q14 -21 25 -44.5l22 -47t23.5 -46t29.5 -41.5h-16.5h-31.5h-38.5h-38t-29.5 -0.5t-13 -0.5q-20 -45 -46 -89t-46 -90l-23 -52q-2 -5 -5 -11.5t-5 -6.5t-8 4t-7 5q-14 16 -22 27t-14 20.5t-12 19.5t-15 24
q-25 36 -58 75.5t-62 74.5l-193 -1q5 -56 8.5 -91.5t7 -59.5t8 -42.5t10 -42t14 -56t20.5 -85.5zM782 1253q14 -26 31 -50t38 -47q23 22 42 48t33 49h-144z" />
    <glyph glyph-name="jaa.top" horiz-adv-x="1804" 
d="M294 1238q-42 42 -80 90.5t-76 93.5l-4 2h3l-10 11h1309l187 -182h-426q-6 -37 -23 -82.5t-44 -85.5t-63 -67.5t-80 -27.5q-25 0 -49 8t-46.5 21t-42.5 29.5t-38 32.5t-33.5 37t-30 44t-27.5 46.5t-25 44.5h-146q2 -34 4.5 -62.5l5 -57t5 -58.5t4.5 -67l209 -170l1 6
q35 -26 70 -51t71 -50q41 -28 76 -50.5t70.5 -38.5t76 -24t92.5 -8q26 0 51 3.5t51 3.5q8 0 21 -21t27 -47t27.5 -50t23.5 -30q-51 -18 -105 -18q-62 0 -112.5 16t-95.5 41.5t-88.5 58.5t-90.5 66l-42 30l-86 58l-42 30q-2 2 -4 3t-4 3v-1q-18 10 -44 29t-53.5 38t-53 35
t-42.5 20q2 -12 3 -23.5t1 -23.5q0 -15 -2.5 -45t-10 -59t-20.5 -51t-35 -22q-28 0 -51 13.5t-43 32.5t-39 40.5t-38 36.5q-30 24 -55 49q-10 12 -17.5 26.5t-7.5 30.5q0 14 12.5 25t30 18t35.5 10.5t29 3.5q14 0 26 -3l-20 304h-56zM731 1253q2 -2 3 -2l5 -6q1 0 3 -2
q1 -1 2.5 -8t3 -16t3.5 -17t3 -11q9 -26 21.5 -47t26.5 -44q24 -14 50.5 -23t54.5 -9q36 0 64.5 18t51 46t39.5 60.5t29 60.5h-360zM281 839l1 -1v0z" />
    <glyph glyph-name="ttaa.top" horiz-adv-x="1464" 
d="M1265 1253q-1 -3 -1.5 -4l-2.5 -5q-15 -27 -28 -54t-25 -54t-24.5 -54.5t-28.5 -54.5l-31 -54q-2 -5 -5 -9l-4 -6t-4 -3q-7 0 -25.5 15.5t-40.5 34.5t-42 37t-30 22l6 -3q-58 42 -101.5 91t-76.5 97v4h-279q2 -48 3 -73t2.5 -40t3.5 -28t4 -37q4 -39 4 -81.5t1.5 -84.5
t8.5 -81t24 -71q16 -21 39.5 -31.5t51 -15t57.5 -4.5h59q38 0 74.5 3t73.5 8q16 2 34 6t34 4q8 0 23 -16t34 -40t39.5 -52.5t39 -53t33 -41.5t20.5 -19q-55 -8 -110 -15.5t-111 -7.5q-66 0 -120 14t-100.5 38.5t-86 58t-76 74t-71.5 85.5t-71 92t-56 96.5t-29.5 101.5
t-12 105t-3.5 105h-32l-63 1h-32l-161 183h1203l161 -183h-149zM1044 1112q19 35 30 70.5t31 70.5h-176q24 -35 57.5 -70.5t57.5 -70.5z" />
    <glyph glyph-name="nnaa.top" horiz-adv-x="2366" 
d="M2236 1267q38 -51 57.5 -111.5t21.5 -122.5t-12.5 -123.5t-43.5 -115t-72.5 -95.5t-100.5 -67q-5 -2 -18.5 6.5t-28 20t-27 22.5t-16.5 14q-2 2 -14.5 13t-27.5 24t-27.5 23t-14.5 9q81 37 131.5 101t73.5 141.5t19 161.5t-33 160q-8 23 -21.5 39t-39.5 16q-19 0 -40 -9
t-40.5 -22.5t-35.5 -28.5t-24 -27q-62 -93 -128 -184.5t-125 -186.5q-22 -38 -38 -65.5t-21 -35.5q-1 -2 -8.5 2.5t-19.5 12.5l-25 38l-107 106q-40 40 -77 82.5t-71 87.5q-21 30 -43 46t-61 16q-40 0 -75 -20q-37 -22 -60.5 -51t-37 -62.5t-18 -71t-4.5 -78.5
q0 -26 1.5 -49t5 -45t10 -44.5t16.5 -46.5q1 -1 -12.5 -1t-33.5 0.5t-44 0.5t-44 0.5t-33.5 0.5t-12.5 -1q-7 24 -12 42.5t-10 34.5t-10.5 31t-13.5 33q-25 53 -48.5 108t-55.5 99.5t-76.5 73t-112.5 28.5q-42 0 -83 -1.5t-78 -9.5t-68.5 -25t-54.5 -47t-36 -76.5
t-14 -113.5q3 -40 17.5 -74t36.5 -64t49 -58.5t54 -58.5q-23 13 -42.5 29.5t-37.5 33.5q-60 52 -109 116t-69 139l-1 3q-2 11 -4 21t-3 20q-2 14 -3 26.5t1 22.5q0 3 1 4v2q1 12 2.5 24.5t5.5 29.5q4 24 5 31.5l1 7.5v-3.5t0 -1.5q6 39 33 73.5t64.5 60t80 40.5t79.5 15
q73 0 132 -23t109.5 -60t96 -83.5t92.5 -93.5l15.5 -15.5t14.5 -15.5l-1 -1h3l4 -6v13q0 26 -3.5 51.5t-3.5 51.5q0 40 15 81t42 74t64 53.5t80 20.5q31 0 60 -11.5t53 -30.5q35 -29 64.5 -61t59.5 -64q47 -51 94.5 -100t92.5 -101q2 4 4.5 8t4.5 8q35 50 63.5 91t55.5 80.5
t55.5 81t61.5 90.5q1 2 3 5.5t5 8.5l28 49q3 5 5 8.5t3 5.5q21 26 48.5 37.5t59.5 11.5q42 0 87 -14t89 -31q36 -14 71.5 -37.5t68.5 -52.5t62 -61t53 -64z" />
    <glyph glyph-name="jnyaa.top" horiz-adv-x="683" 
 />
    <glyph glyph-name="uni043A.top.half" horiz-adv-x="1255" 
d="M599 712l-4 260q-150 0 -302 3q-4 0 -13 11t-20 27t-22.5 34.5t-21.5 35t-17 28.5t-8 13l404 -8v136h-383l-162 180h966l163 -181h-400v-139q39 -1 90 -11t99 -39q28 -18 54 -31.5t50 -29.5t46.5 -36.5t42.5 -52.5q18 -27 27.5 -46.5t13 -39.5t2 -46.5t-7.5 -68.5
l-135 73l9 48q8 42 -1.5 65t-32 35t-55.5 16.5t-72 8.5q-29 3 -61.5 5.5t-68.5 4.5v-256zM507 204q0 2 -2 2q2 0 2 -2z" />
    <glyph glyph-name="uniA992.top.half" horiz-adv-x="1368" 
d="M1011 712h-180v541h-258l-1 -408l-352 252h194v154h-210q-8 0 -21.5 13t-29 32.5t-32 42.5t-31 42.5t-25 32.5t-15.5 13l1126 2q9 0 19 -11t19 -25.5t17 -28.5t14 -21q17 -22 35 -45t38 -42q-16 -7 -39 -5t-40 2h-228v-541z" />
    <glyph glyph-name="uniA994.top.half" horiz-adv-x="1522" 
d="M943 765q-134 62 -184 89q-50 28 -109 46l-11 1q-1 -3 -19.5 -15t-55.5 -12h-15q-34 4 -62.5 15t-52.5 24q-14 8 -27 14q-49 22 -73 35q-27 14 -35 36v4q0 26 40 38q25 7 49 7q20 0 40 -5q4 -1 7.5 -1t5.5 -2l2 8l-2 8q-12 53 -65 197h-326q13 0 49 49t39 53q41 54 65 79
h1269q-34 -44 -46.5 -60.5t-17.5 -22t-13 -16.5q-35 -48 -54 -67q-15 -14 -24 -14h-129l-6 -55l-7 -91q-3 -12 -26 -12q-10 0 -18 3q-19 8 -32 14.5t-36 18.5q-93 47 -173 122h-335l71 -232q6 -20 12 -37l13 -7q22 -12 46 -22l187 -88q13 -6 24 -13q47 -26 99 -56l41 -26
q69 -35 69 -53q0 -12 -29 -17z" />
    <glyph glyph-name="jha.top.half" horiz-adv-x="1807" 
d="M688 969q-28 15 -56.5 27t-59.5 19q2 -12 3 -23.5t1 -23.5q0 -19 -3 -49t-10.5 -58.5t-20.5 -49t-34 -20.5q-27 0 -50.5 13.5t-44 33t-39.5 40.5t-37 36q-2 2 -11 9.5t-19 16t-18 16t-8 8.5l1 -1q-10 12 -17.5 26.5t-7.5 30.5q0 14 12.5 25t30 18t35.5 10.5t29 3.5
q14 0 26 -3l-17 181h-139q-9 0 -23.5 9t-29 21.5t-27.5 25.5t-19 20q-20 25 -43 46.5t-42 47.5h1562q3 -4 14 -18.5t25.5 -33.5t31 -40t31.5 -38.5t26.5 -29.5t16.5 -13h-290l11 -180q0 4 -18 7.5t-44.5 6t-57.5 5t-57 5.5t-44 6.5t-18 8.5l-5 141h-170l13 -178q0 3 -17 5
t-42.5 4.5t-55.5 5.5t-56.5 6.5t-46.5 7.5t-25 10l-4 140h-202l-5 2h-72l17 -172l130 -93l3 5q35 -26 70 -51t71 -50q35 -24 71 -48t74 -43t79 -30.5t86 -11.5q15 0 32 3t32 6.5t27 6.5t16 3q9 0 21.5 -13t26 -30t27 -33t24.5 -22q-51 -18 -105 -18q-61 0 -111 15.5t-95 41
t-88.5 58t-92.5 67.5q-10 7 -19.5 13.5t-19.5 14.5q-32 22 -65 44.5t-66 45.5q-2 2 -4 3z" />
    <glyph glyph-name="uniA99A.top.half" horiz-adv-x="1446" 
d="M582 734l-174 72v446h-158l-200 181h1067l199 -181h-372l17 -91q48 -6 99.5 -17.5t100 -27.5t92 -36t75.5 -43q27 -19 42.5 -36t21 -32.5t3 -32t-10.5 -34.5q-9 -21 -53.5 -46t-107.5 -49.5t-137 -46t-144 -36.5q-35 5 -54.5 19t-19.5 26v5.5t1 7.5q1 8 22.5 17.5
t55 21.5t74 25.5t79 30t70.5 35t49 40.5q17 23 8 44.5t-33 35.5q-22 11 -57.5 19t-67.5 8q-24 0 -48 -3t-47 -8q3 -12 3.5 -24.5t0.5 -23.5q0 -17 -10 -26.5t-39 -9.5q-12 0 -26 5.5t-27.5 13t-26.5 15.5t-22 13q-13 7 -31.5 18t-36 23.5t-29.5 25.5t-12 25q0 11 9.5 19
t24 14t30 10t27.5 7l-18 99h-202q0 -131 -3.5 -259.5t-3.5 -258.5z" />
    <glyph glyph-name="uniA9A2.top.half" horiz-adv-x="1427" 
d="M1199 656q-33 0 -64 7.5t-60 19t-58.5 24.5t-59.5 25q-19 7 -27 10.5t-10 5t-2 2t-2 2t-10 4.5t-27 10q-32 12 -73 26.5t-84 27.5t-84.5 23t-74.5 13q1 -5 1.5 -11t0.5 -11q0 -24 -9.5 -46t-26 -39.5t-38 -28t-45.5 -10.5q-25 0 -50.5 13t-49.5 31.5t-46 38.5t-40 34
q-15 11 -32.5 24.5t-32 29.5t-24.5 34.5t-10 39.5q0 27 14 43.5t35 25.5t45 12t44 3q12 0 24 -1t23 -4l-43 217h-36q-9 0 -27 13t-40 33t-46 43t-45 43t-36.5 33.5t-22.5 13.5h179.5t140.5 0.5t121 1t121 1t140.5 0.5h179.5l216 -179l-656 -3l1 -1l-1 1q-1 0 -1.5 -3.5
t-0.5 -7.5l54 -258l292 -96q29 -9 47 -17t31 -13.5t23 -9.5t24 -7t33.5 -4t50.5 -1q18 0 39 12.5t38.5 30.5t29.5 39.5t12 39.5q0 14 -4 27.5t-10 26.5q4 -9 23 -25.5t41.5 -34t44 -33t31.5 -21.5q16 -10 31.5 -21t28 -24.5t20 -30t7.5 -37.5q0 -34 -17.5 -58.5t-43.5 -39.5
t-57.5 -22t-59.5 -7z" />
    <glyph glyph-name="ssa.top.half" horiz-adv-x="1103" 
d="M1051 712h-179v32.5v49.5v49.5v32.5v5q-42 -20 -86.5 -26t-89.5 -6q-98 0 -175 30t-151 96q-38 35 -56 84.5t-18 100.5q0 20 2.5 39t2.5 39q0 21 -2.5 41t-10.5 40q-19 2 -36.5 2h-36.5q-11 0 -32.5 14.5t-46 32.5t-48 34.5t-38.5 20.5q7 1 13.5 1h13.5q26 0 52.5 -4
t51.5 -14q15 -6 39 -17.5t51.5 -26.5t56.5 -32.5t54 -35.5t43 -35.5t24 -32.5q9 -22 12.5 -52t1.5 -53l393 -10q5 10 10 24t6 25q4 63 2.5 127t-1.5 127q5 -6 17 -14t26.5 -16t28 -14.5t20.5 -9.5q5 -4 19.5 -11.5t29.5 -15.5t27 -16t12 -14l-1 -556v-10l-1 -15v-10z
M458 1072l-1 -18q0 -23 2 -42t10 -33t23.5 -22t42.5 -8q79 0 153.5 29t131.5 85z" />
    <glyph glyph-name="uniA99B.top.half" horiz-adv-x="1301" 
d="M840 712h-7q-173 0 -304 85q-47 31 -103 75q-40 28 -79 63q-76 68 -90 165q-6 44 -7 91l-11 62h-39q-15 0 -63 71q-8 12 -13 16t-14 19t-21 32q-29 42 -39 42h1053q16 0 62 -71q9 -14 13 -19l36 -49q29 -40 37 -41h-266l-81 -118q-6 -9 -17 -19q-15 -14 -38 -14
q-16 0 -33 9t-32 22l-135 120h-237q6 -9 9 -44t5 -87.5t3 -79l1 -26.5v14t1 14l1 -11l1 -36v-15q0 -27 6 -54.5t31 -45.5q30 -16 80 -21q42 -4 79 -4h31q112 0 222 15q7 0 21.5 -10.5t30.5 -25t26.5 -24.5t15 -13t16.5 -14.5t27.5 -25.5t29 -23.5t18.5 -9.5
q-112 -14 -227 -14z" />
    <glyph glyph-name="uni043A.sub" 
d="M715 435q3 -1 28.5 -10.5t64.5 -26t86.5 -40t94.5 -54t89 -67t71 -79.5t39.5 -92t-6.5 -104q-14 -47 -37.5 -77.5t-53 -49t-63 -26t-68.5 -7.5q-41 0 -81 8t-73.5 18.5t-57.5 20.5t-33 14v-281l-180 117l-1 67q-14 0 -47.5 3.5t-79.5 17t-100 41t-109 75.5t-106.5 120.5
t-91.5 175.5q19 50 82 98q27 21 66.5 43t94 44t126.5 42.5t165 37.5l1 108h180v-137zM714 -17l24 -3t39 -2q29 0 63.5 6t68 23t62 49t45.5 84q-8 43 -43 76q-15 14 -37 27t-53.5 22.5t-73 14.5t-95.5 3v-300zM191 66q20 -38 44 -62.5t50.5 -39t54.5 -20.5t54 -6q27 0 51 4.5
t43 10t32 11t17 7.5v288q-111 -29 -178.5 -62.5t-105.5 -62.5q-43 -34 -62 -68z" />
    <glyph glyph-name="uni043A.sub.alt" 
d="M802 454q70 0 134 -35.5t111 -97t72 -144.5t17 -179q-4 -51 -26 -89t-55 -63.5t-73.5 -38.5t-82.5 -13q-36 0 -72 11.5t-69.5 30t-64 42t-55.5 47.5v-343l-180 117v155q-33 -26 -69 -40t-74 -14q-27 0 -54 8t-53 25q-28 18 -58 46t-58 61t-52 69.5t-39 71.5
q-20 47 -22.5 99t10.5 100.5t39.5 90.5t63.5 70q35 26 70 37.5t70 11.5q43 0 85 -17.5t82 -50.5q14 -12 29 -23.5t30 -27.5v201l180 -110v-68q14 15 34 26t42.5 18.5t45.5 11.5t42 4zM447 139q2 2 6 7t5 8v142q-29 9 -56.5 14t-54.5 5q-57 0 -106 -22t-84 -67
q-17 -22 -30 -48.5t-21 -55t-10 -58t3 -58.5q3 -17 20.5 -27.5t34.5 -13.5q47 -7 88.5 2.5t77.5 33t68 59t59 79.5zM869 -28q31 4 57.5 24.5t47.5 50t34.5 63.5t18.5 65t0 55t-21 33q-8 5 -15.5 9.5t-13.5 6.5q-23 10 -48.5 13.5t-48.5 -1.5q-41 -9 -78 -25.5t-68 -51.5
q-28 -32 -51.5 -66.5t-44.5 -69.5v-69q30 -14 72 -27.5t101 -13.5q14 0 28 1t30 3z" />
    <glyph glyph-name="uni043A.alt.sub" 
d="M448 -198v400q-32 0 -64.5 0.5t-64.5 0.5q-23 0 -50 -0.5t-54.5 -0.5t-53.5 0.5t-48 2.5q-7 1 -23.5 21t-34.5 45.5t-33.5 49.5t-21.5 33l449 -8l-1 226h180v-229q54 -2 108 -13t102 -37q22 -12 51 -34.5t59.5 -50.5t60 -60.5t52.5 -65.5t37 -64.5t14 -57.5
q0 -22 -3 -43.5t-6 -42.5l-150 73q4 20 8.5 40t4.5 40q0 42 -17 70t-45 46.5t-63.5 29t-73 15.5t-74 6.5t-65.5 3.5v-506zM351 -566q0 2 -2 2q2 0 2 -2z" />
    <glyph glyph-name="uni0445.sub" 
d="M1201 417h-96v-719l-181 97v95q-29 -25 -61.5 -32.5t-67.5 -7.5q-26 0 -56.5 5.5t-54.5 20.5q-37 23 -68.5 55.5t-57.5 70.5q-30 45 -42 106t-12 118q0 23 2.5 47t2.5 47v22t-1 27t-1.5 26.5t-2.5 21.5h-154v-719l-146 97v622l-25 1l-131 151h1054zM563 417
q10 -11 19 -26.5t15.5 -31t11.5 -29.5t7 -23q6 -25 8 -53t2 -54t-2 -50t-2 -50q0 -21 0.5 -43.5t5.5 -41.5t17 -31.5t35 -12.5q18 0 44.5 5.5t43.5 14.5q26 15 53.5 40t50 56t37 67t15.5 74q0 20 0.5 44.5t0.5 49.5v49.5v45.5h-362z" />
    <glyph glyph-name="uniA992.sub" 
d="M961 -399q-9 0 -30 17t-46.5 38t-53 38t-50.5 17v705h-258l-1 -577l-352 252h194v323h-210q-8 0 -21.5 11.5t-29 28.5t-32 37t-31 37t-25 28.5t-15.5 11.5l1126 2q9 0 19 -11t19 -25.5t17 -28.5t14 -21q17 -22 35 -34t38 -31q-16 -7 -39 -5t-40 2h-228v-815z" />
    <glyph glyph-name="gha.sub" 
d="M1069 -418l-180 117v220q-42 -25 -82 -25t-82 28q-51 35 -97 78q-20 -61 -82 -99q-42 -23 -83 -23q-14 0 -47.5 5.5t-80.5 44.5l-16 12q-87 65 -157 145l-19 25q-42 47 -64 108q-24 74 -30 151q-9 104 -49 203q8 -15 26 -31t37 -30t31 -25.5t28 -23.5q41 -31 63 -67
q25 -51 36.5 -107t18.5 -113q7 -64 21 -124q87 0 142 61q24 31 28 69q3 22 3 44l-2 175q0 29 -1 59v17q0 49 5 99q17 -16 33 -33q46 -42 84 -73q60 -44 69 -70q22 -212 22 -312v-10q99 15 157 118.5t68 214.5l-5 153l47 -46l48 -41q14 -14 36.5 -28t41 -31.5t22.5 -39.5
t5 -46q0 -7 2 -13l4 -94q2 -115 2 -170z" />
    <glyph glyph-name="uniA994.sub" 
d="M893 -329q-134 91 -184 130q-50 43 -109 68l-11 3q-1 -7 -19.5 -24t-55.5 -17l-15 1q-34 6 -61.5 22t-53.5 35q-14 11 -27 20q-50 32 -73 52q-26 23 -35 52v7q0 38 40 54q25 10 49 10q20 0 40 -6q4 -1 7.5 -2t5.5 -3l2 11l-2 12q-13 79 -65 327h-326q13 0 49 34t39 38
q41 54 65 79h1269q-34 -44 -46.5 -60.5t-17.5 -22t-13 -16.5q-26 -33 -29.5 -42t-48.5 -9h-129l-13 -251q-3 -19 -26 -19q-10 0 -18 5q-19 13 -32 22.5t-36 26.5q-93 70 -173 216h-335l71 -377q6 -31 12 -55l13 -9q22 -15 46 -32l187 -129q13 -9 24 -19q47 -40 99 -83
l41 -39q32 -18 53 -87z" />
    <glyph glyph-name="uniA995.sub" 
d="M1047 -252q-41 0 -72.5 8.5t-59.5 23.5t-55.5 35t-60.5 43q-24 17 -37.5 26.5t-21.5 15t-13.5 10t-13.5 11t-21.5 17t-37.5 29.5q2 -20 8 -37.5t6 -38.5q0 -15 -10 -24t-24.5 -13.5t-30 -5.5t-26.5 -1q-20 0 -39.5 4t-36.5 12q-21 10 -52 28.5t-62.5 40t-59.5 43.5
t-44 39q-8 8 -14 19t-6 23q0 22 12 34.5t29 18.5t37.5 7.5t36.5 1.5q37 0 77 -8l-49 242q-1 5 -1.5 17.5t-1 27t-1 27t-0.5 17.5h-125q-9 0 -34 17.5t-53 40t-53 44.5t-36 32h1127q11 -9 36 -31t53 -45t51.5 -40.5t31.5 -17.5h-187q28 -113 40 -219.5t12 -223.5
q0 -60 -9 -106.5t-33 -78.5t-66.5 -48.5t-109.5 -16.5zM883 -65q17 -7 34 -11t32 -4q37 0 60 24.5t36 59.5t17.5 73t4.5 66q0 42 -2.5 78.5t-6 71.5t-8.5 71t-11 77h-458q7 -52 14.5 -98t15 -91t15 -91.5t14.5 -97.5q39 -25 62 -40.5t37.5 -25t24.5 -15t24 -11t36 -14
t59 -22.5z" />
    <glyph glyph-name="cha.sub" 
d="M823 425q68 0 131 -31t109.5 -85t71.5 -127t17 -158q-4 -47 -26.5 -81.5t-56 -57.5t-75 -34.5t-83.5 -11.5q-12 0 -24 1t-24 3q-33 8 -72 27.5t-75.5 43.5t-67 49.5t-47.5 45.5q-15 -17 -26.5 -33.5t-28.5 -33.5q-41 -44 -95.5 -72.5t-113.5 -28.5q-27 0 -53 6.5
t-52 22.5q-30 18 -60 43t-58 53.5t-50.5 58.5t-37.5 59q-22 44 -25 91t9.5 92t40 83.5t67.5 65.5q67 44 143 44q44 0 86 -15t80 -44q14 -11 29.5 -24t32.5 -25l-1 221h180l-3 -203q15 15 33.5 25.5t39.5 17t43 9.5t42 3zM472 142q18 26 39 58t38 60q-86 37 -174 37
q-59 0 -110 -18t-84 -56t-50.5 -90.5t-7.5 -108.5q3 -13 14 -21t26 -12t31 -5.5t27 -1.5q80 0 141 43t110 115zM884 1q31 3 57.5 21.5t47.5 44.5t35 57t19.5 58.5t2 49t-18.5 28.5q-6 8 -17 12t-19 6q-19 5 -46.5 8.5t-50.5 -1.5q-42 -9 -78.5 -23.5t-61.5 -40.5
q-40 -43 -71 -88.5t-64 -92.5q18 -5 41.5 -13.5t55 -16t73 -11t95.5 1.5z" />
    <glyph glyph-name="uniA997.sub" 
d="M638 -16q-28 15 -56.5 27t-59.5 19q2 -12 3 -23.5t1 -23.5q0 -19 -3 -49t-10.5 -58.5t-20.5 -49t-34 -20.5q-27 0 -50.5 13.5t-44 33t-39.5 40.5t-37 36q-2 2 -11 9.5t-19 16t-18 16t-8 8.5l1 -1q-10 12 -17.5 26.5t-7.5 30.5q0 14 12.5 25t30 18t35.5 10.5t29 3.5
q14 0 26 -3l-20 345h-139q-9 0 -23 4t-28 11t-26.5 15t-18.5 15q-20 25 -43 46.5t-42 47.5h1562q5 -7 25 -29.5t44 -47t45 -44t28 -21.5h-290l16 -307q0 4 -18 7.5t-44.5 6t-57.5 5t-57 5.5t-44 6.5t-18 8.5l-10 268h-170l18 -305q0 3 -17 5t-42.5 4.5t-55.5 5.5t-56.5 6.5
t-46.5 7.5t-25 10l-9 267h-202l-5 2h-72q2 -41 4 -70.5t3.5 -53t3 -44t3 -44t3 -53.5t3.5 -71l130 -93l3 5q35 -26 70 -51t71 -50q35 -24 71 -48t74 -43t79 -30.5t86 -11.5q15 0 32 3t32 6.5t27 6.5t16 3q9 0 21.5 -13t26 -30t27 -33t24.5 -22q-51 -18 -105 -18
q-61 0 -111 15.5t-95 41t-88.5 58t-92.5 67.5q-10 7 -19.5 13.5t-19.5 14.5q-32 22 -65 44.5t-66 45.5q-2 2 -4 3z" />
    <glyph glyph-name="jha.sub" 
d="M508 -399q-6 0 -36 15t-72.5 37.5t-92 49.5t-93.5 52t-78 44t-45 25h286v613h-213q-7 0 -20 8t-29.5 21t-34.5 28.5t-34 30.5t-28.5 27.5t-17.5 18.5l1472 2l-133 -136h-200q5 -16 8 -37.5t5 -44.5t3 -45t1 -39q0 -20 -2 -39t-4 -39q-5 -40 -26.5 -79t-53.5 -69
t-71.5 -48.5t-81.5 -18.5q-48 0 -99 26t-99.5 64.5t-90.5 81.5t-71 77v-582q0 -21 -14.5 -32.5t-34.5 -11.5zM786 96q62 0 107 34t73.5 85t42 111t13.5 111h-465v-135q0 -10 7 -18.5t12 -16.5q22 -32 40.5 -63t41 -55t52.5 -38.5t76 -14.5z" />
    <glyph glyph-name="uniA99A.sub" 
d="M587 -418l-175 117l2 721h-214l-200 150h1283l199 -150h-372l17 -170q48 -9 99.5 -26.5t100 -42.5t92 -55.5t75.5 -65.5q27 -30 42.5 -55t21 -49t3 -48t-10.5 -52q-9 -32 -53.5 -70t-107.5 -75.5t-137 -70.5t-144 -55q-17 4 -31 11.5t-23.5 17t-14.5 19.5t-5 19v10t1 10
q1 12 22.5 27t55 32.5t74 39t79 46t70.5 53.5t49 62q17 35 8 68.5t-33 53.5q-22 16 -57.5 27.5t-67.5 11.5q-48 0 -95 -15q3 -17 3.5 -36t0.5 -37q0 -26 -10 -41t-39 -15q-12 0 -26 8.5t-27.5 20t-26.5 23.5t-22 20q-13 11 -31.5 27.5t-36 36t-29.5 39.5t-12 38q0 16 9.5 28
t24 21.5t30 16t27.5 10.5l-18 182h-362q0 -150 -3 -311l-2 -216q-3 -161 -3 -311z" />
    <glyph glyph-name="uniA99B.sub" 
d="M790 -325h-7q-173 0 -304 112q-47 41 -103 99q-41 38 -79 84q-76 90 -90 217q-6 59 -7 121l-11 109h-39q-15 0 -63 43q-11 10 -14.5 15t-12.5 20t-21 32q-29 42 -39 42h1053q16 0 62 -71q9 -14 13 -19l36 -49q7 -9 14 -13h23q-6 -2 -12 -2q-5 0 -11 2h-243l-81 -183
q-6 -14 -17 -26q-15 -18 -38 -18q-16 0 -33 11.5t-32 30.5l-135 185h-237q6 -9 9 -70.5t5 -131t3 -104.5l1 -35v18.5t1 18.5l1 -15l1 -47v-20q0 -36 6 -71.5t31 -60.5q30 -22 80 -27q42 -5 79 -5h31q112 0 222 18q7 0 21.5 -13.5t30.5 -32t26.5 -32t15 -17.5t16.5 -19.5
t27.5 -33.5t29 -30.5t18.5 -12.5q-112 -19 -227 -19z" />
    <glyph glyph-name="ttha.sub" 
d="M724 -339q-115 0 -232 40t-202 103l-42 31q-60 45 -115 94.5t-88 109.5q-45 82 -45 170q0 71 39 140q93 153 270 197q62 16 122 16h7q114 -1 228 -51q49 -27 86 -72q17 -19 35 -37l48 -33l-3 1q35 -23 63 -53q72 -80 127 -182.5t55 -205.5q0 -4 -1 -59t-104 -137
q-93 -66 -222 -71zM565 -194q95 0 175.5 32.5t123.5 105.5q40 75 40 160q0 5 -1 52t-39 124q-42 81 -134 115q-67 23 -138 24h-14q-20 0 -40 -2q-190 -22 -297 -159q-48 -59 -64 -127q-9 -36 -9 -74q0 -31 6 -64q12 -61 46 -100t105 -59q110 -28 226 -28h14z" />
    <glyph glyph-name="uniA99D.sub" 
d="M638 82q28 -28 62 -56.5t62 -60t43.5 -67.5t6.5 -79q-6 -31 -10.5 -50t-10.5 -33.5t-14.5 -27t-23.5 -28.5t-37 -39t-55 -59q-5 -5 -16 2.5t-25.5 20.5t-31 30t-31 31.5t-25.5 24t-16 8.5q41 25 66.5 46t38.5 41.5t16 43.5t0 51.5t-11 65.5t-16 86q-4 20 -15 40l-22 40
q-51 27 -100 39.5t-106 12.5q-15 0 -29 -1t-28 -5q1 -8 1.5 -16t1.5 -16q1 -10 4 -28.5t5 -39.5t2.5 -42.5t-3.5 -38.5t-13.5 -26.5t-28.5 -6.5q-31 5 -57 25t-52 46q-15 14 -37.5 32.5t-46 41t-44.5 47t-32 50.5t-9 52t25 50q23 25 41 37.5t47 18.5q-2 15 -3.5 35.5
t-3.5 43.5q-3 32 -7 71.5t-7 76.5h180q5 -57 10 -113.5t10 -118.5q22 -5 38.5 -12t31.5 -15q80 -45 146 -106.5t129 -124.5z" />
    <glyph glyph-name="ddha.sub" 
d="M1052 165q26 -25 62.5 -55.5t72 -66t63 -74.5t34.5 -81q10 -54 0 -91t-34.5 -59.5t-62 -32t-82.5 -9.5q-50 0 -108 10t-120.5 26.5t-126 39t-124.5 48t-117 52.5t-102 53l4 105q3 -2 9 -4l10 -4l10 -4q36 -14 78.5 -31.5t88.5 -34t94 -30t94 -19.5q-23 23 -42.5 46
t-37.5 42q-1 1 -4.5 5t-8.5 9q-5 6 -11 13l2 -1q-21 29 -33 62t-10 65t21 60.5t59 47.5q26 13 51.5 18.5t49.5 5.5q63 0 118 -32.5t103 -78.5zM654 -194q-19 9 -36.5 19t-35.5 21q-20 12 -41 25t-42.5 25.5t-43.5 22.5t-45 15q0 -21 -1.5 -45.5t-8 -48t-19 -43t-35.5 -30.5
q-17 -8 -30.5 -11.5t-25.5 -3.5q-28 0 -50.5 17.5t-50.5 43.5q-39 38 -79.5 79t-78.5 82q-31 33 -30.5 66t20 58.5t52.5 41.5t67 16q9 0 18 -1t18 -4l-22 421h180l22 -407q2 -34 11 -59t19.5 -41.5t20 -25t12.5 -10.5q52 -27 109 -56t113 -52q4 -2 7 -2.5t6 -2.5v-110z
M1072 49v13q-47 5 -93.5 -8t-75.5 -51q-39 -50 -39 -99q2 -1 2.5 -2t2.5 -3q31 1 66.5 11.5t66 29t50.5 46t20 63.5z" />
    <glyph glyph-name="nna.sub" 
d="M1048 324q61 0 105 -21t82.5 -54.5t76 -75t84.5 -82.5q18 -15 36.5 -33.5t32 -39t18.5 -43t-5 -47.5q-17 -42 -53 -65.5t-83 -23.5q-37 0 -75 16q-32 13 -61 33t-56 41.5t-53.5 42.5t-55.5 38q-25 14 -53 32.5t-56 35.5q-80 -48 -121 -114t-55 -147q-20 13 -39 26t-38 28
q-11 8 -20 13t-12 8q-8 7 -22.5 18.5t-29.5 24t-28.5 25.5t-18.5 24q-8 17 -18.5 36.5t-22.5 39.5q-25 3 -52 3q-47 0 -92 -11t-77 -39q-52 -44 -68 -94.5t-4 -102t47 -100.5t86 -91q11 -10 9 -10q-1 0 -8.5 4.5t-16 10.5t-16 11.5t-9.5 6.5q-34 28 -70 59.5t-70 57.5
q-34 27 -67 58t-56.5 65t-35.5 70t-4 72t28 68t53 56t77.5 38t99.5 14q48 0 88 -9.5t75 -27.5t67.5 -44t65.5 -60q5 -5 9 -7l8 -4q5 10 14 25t18.5 32t19.5 35.5t18 35.5v390h180v-336q51 45 104 66.5t120 21.5zM1140 14q39 0 69.5 12.5t49.5 35t26 53t-2 67.5
q-23 9 -44.5 15t-44.5 4q-59 -3 -116 -27t-105 -66q-6 -5 -14 -8t-15 -8q24 -16 46.5 -30.5t46 -25t48.5 -16.5t55 -6z" />
    <glyph glyph-name="uniA9A0.sub" 
d="M404 214q35 -36 68.5 -73.5t66.5 -76.5q24 -29 46.5 -64t23.5 -76q2 -51 -18.5 -93.5t-55 -72.5t-79.5 -45t-93 -12q-54 4 -100.5 18t-88.5 35.5t-81.5 50t-81.5 62.5q-18 15 -4 15q9 0 27 -4t43 -10t55.5 -12t62.5 -10q23 -3 47 -3q30 0 60 5.5t57.5 18t51 32.5t39.5 48
q18 30 28.5 65.5t1.5 71.5q-3 15 -8.5 28.5t-12.5 26.5q-40 37 -87 62t-98 20q-15 -7 -31 -13t-31 -12q-4 -1 -13.5 7.5t-21 22.5t-25 31.5t-25.5 33.5q-9 12 -20.5 23.5t-22.5 23.5q33 21 62 25q34 15 69 35t63 45.5t45.5 57.5t17.5 71h180v-110q0 -18 -5 -30.5
t-15.5 -25.5t-26.5 -28t-38 -36q-22 -22 -39.5 -43t-40.5 -37q13 -11 24.5 -23.5t23.5 -24.5z" />
    <glyph glyph-name="tha.sub" 
d="M71 1436q-1 2 -1.5 3.5t-1.5 3.5q1 -2 1.5 -3.5t1.5 -3.5zM77 1424l-6 12zM68 1443q-7 17 -8 23q2 -6 4 -11.5t4 -11.5zM998 -145q3 -4 14 -14.5t23 -23t21 -23.5t8 -16q-9 -41 -34.5 -60.5t-57 -22.5t-64.5 9.5t-57 36.5q-26 24 -56 53t-57.5 61.5t-48 67t-27.5 70.5
q-8 46 -4.5 94.5t8 97.5t4 96.5t-15.5 91.5q-12 5 -23.5 10t-25.5 7q-32 5 -61 4t-61 -9q12 -14 21 -29t16 -30q21 -47 40 -101t27 -109t0.5 -109t-40.5 -100q-27 -39 -67.5 -64.5t-85.5 -34.5t-91.5 0.5t-85.5 41.5q-28 23 -59 49.5t-61 56t-55.5 62t-41.5 67.5
q8 -14 18 -30t23 -31.5t29.5 -29.5t38.5 -24q26 -12 54.5 -19.5t57.5 -4.5q54 7 104 32.5t78 73.5q33 57 40.5 119.5t-7.5 124.5q-6 24 -12 48.5t-14 48.5q-12 14 -26 33.5t-28 34.5q-15 26 -24 32q-2 1 -9.5 8t-16.5 20h-1l1 1q-13 14 -26 29t-19 14q24 2 43 -7.5t36 -16.5
q69 15 137 -2t122 -75q24 -27 55 -56t59.5 -61.5t50.5 -67.5t30 -73q9 -43 6.5 -89t-6.5 -92t-5 -91.5t9 -88.5q23 -5 45 1q33 10 55.5 30t30.5 55q-1 -4 9 -15t22.5 -23.5l23.5 -23.5z" />
    <glyph glyph-name="uniA9A2.sub" 
d="M891 96q13 -30 47 -60.5t70 -63.5t63.5 -70t27.5 -80q0 -33 -14.5 -60t-38.5 -46t-54 -29.5t-61 -10.5q-33 0 -69.5 8t-74.5 21.5t-76 30.5t-74 35v-1q-27 11 -58.5 28t-66.5 34q-5 2 -10 5q-3 1 -9 5q-30 12 -57.5 20.5t-50.5 12.5q1 -23 -5.5 -52t-20 -54.5t-34.5 -43
t-49 -17.5t-54 16t-50 38.5t-45 47.5t-38 44q-14 15 -30 33t-29 37.5t-21.5 40.5t-8.5 44q0 26 9.5 44.5t26 30.5t37.5 17.5t44 5.5q17 0 34 -2.5t34 -6.5v16q0 49 -5.5 97.5t-8.5 97.5q-1 17 -2 33t-3 33l-11 131q-2 17 -2.5 33t-2.5 33h180l1 -2q11 -138 22.5 -274
t20.5 -274q2 -1 4.5 -2t4.5 -2v1q6 -2 11.5 -5t10.5 -5l45 -20l39 -18q5 -2 13 -6l14 -7q50 -23 100 -39.5t99 -16.5q30 0 63 9t60.5 26.5t45.5 44t18 61.5q0 26 -11 53z" />
    <glyph glyph-name="dha.sub" 
d="M1061 -275q-85 60 -166 118t-164 118q-36 26 -73.5 55.5t-75.5 55.5q-20 -43 -39 -84t-41 -82q-14 -27 -31.5 -58t-38.5 -57.5t-46 -45t-55 -21.5q-28 -3 -52 4.5t-46 22t-43 33.5t-42 40q-29 23 -44 38.5t-17 21.5q-29 30 -53 67.5t-31 87.5q-5 37 0 72.5t19 66.5
t35.5 55t48.5 37q67 33 137.5 21.5t138.5 -49.5q11 -7 23.5 -13t24.5 -13q7 16 13.5 47t13 66.5t14 71t16.5 61.5h180q-5 -13 -10.5 -41t-12 -64t-13 -76t-13 -75.5t-12.5 -63t-11 -38.5q80 -58 160 -119.5t161 -118.5q18 -13 37.5 -33t38.5 -40.5t37 -39t32 -28.5z
M231 -111q32 23 55.5 53.5t44.5 68.5q18 32 34.5 65.5t33.5 68.5q-31 4 -62.5 2t-60 -13t-53 -31.5t-42.5 -53.5q-23 -43 -30 -89t4 -91q2 -1 7 -1q20 2 37 6t32 15z" />
    <glyph glyph-name="uniA9A4.sub" 
d="M676 572v-990l-180 117v321h-341l-155 191h496v361h180z" />
    <glyph glyph-name="uniA9A5.sub" 
d="M450 572v-18.5v-42.5v-53.5v-53.5v-42v-18q0 -34 -2 -65t-4 -54q-3 -28 -6 -52q-5 -29 -7.5 -54.5t-4.5 -63.5q-1 -22 0.5 -45t9.5 -42t24.5 -31.5t45.5 -12.5q13 0 29 1.5t32.5 4.5t31.5 7.5t27 10.5q37 17 74.5 45t68 63.5t50.5 76t22 83.5q4 88 2.5 174t-1.5 174
q2 -7 16.5 -19.5t34.5 -27t42.5 -30t42 -30t32 -26.5t12.5 -20v-207l1 -415v-207q-48 26 -92 55.5t-89 61.5q-1 34 -1 67v67q-39 -26 -84.5 -35.5t-91.5 -9.5q-38 0 -79 6t-75 24q-122 64 -180.5 159t-58.5 228v28l-2 60v28v251h180z" />
    <glyph glyph-name="pha.sub" 
d="M960 62q23 -26 47 -55t31 -64q7 -39 0 -69.5t-24 -51.5t-41 -32.5t-52 -11.5q-23 0 -47.5 8.5t-47.5 25.5q-23 18 -47 40t-47 47q-14 13 -27 27t-18 24l-12 15q-32 -36 -57.5 -77t-57.5 -82q-42 -54 -86 -79.5t-90 -25.5t-91 24t-89 69q-44 47 -85 93.5t-70 98t-42 111.5
t-2 133q5 37 15 73t21 71t21.5 70.5t16.5 71.5q2 14 2.5 27t2.5 27l180 3q5 0 6.5 -12t0.5 -27t-2.5 -29.5t-2.5 -19.5q-9 -45 -17 -79t-16 -60.5t-15.5 -48.5t-14.5 -44.5t-14.5 -48t-15.5 -58.5q-14 -59 -19.5 -121t10.5 -122q2 -8 5 -16.5t5 -16.5l6 -2q26 -6 49 -6
q46 0 81.5 21.5t65.5 54.5t56 73t54 78q22 30 48.5 57t56 47.5t62 32.5t66.5 12q56 0 110 -38q36 -26 68.5 -65t62.5 -73zM856 -23q17 23 24.5 46.5t8.5 47.5q-9 0 -17.5 0.5t-17.5 -0.5q-54 -10 -93.5 -30.5t-74.5 -62.5q8 -7 14.5 -13t14.5 -14q13 -5 27 -10t28 -3
q25 2 48 9.5t38 29.5z" />
    <glyph glyph-name="uniA9A7.sub" 
d="M657 572q1 -71 2 -128.5t2 -108.5t2.5 -99t2.5 -99t1.5 -109t1.5 -129q0 -34 -1.5 -75t-10.5 -80.5t-28 -73t-54 -52.5q-58 -33 -121 -33q-82 0 -153 59q-24 20 -50 47.5t-51.5 59t-50 64.5t-46.5 65q-18 25 -37.5 53.5t-35.5 60t-24.5 65t-2.5 68.5q10 62 38.5 113.5
t69.5 88.5t92.5 57.5t106.5 20.5q42 0 84 -12.5t83 -38.5q2 -2 6 -4q-1 42 -1.5 67t-1 40t-1 23.5t-1 19t-1 26t-0.5 44.5h180zM317 -189q58 14 92 48t51.5 78.5t22.5 94.5t5 97q0 16 -1 27t-5 17t-13 8t-24 1q-47 -3 -83.5 -17t-65.5 -38t-51 -58t-39 -77
q-6 -17 -14.5 -40.5t-12 -47.5t2.5 -45.5t28 -35.5q15 -10 31.5 -13.5t32.5 -3.5q23 0 43 5z" />
    <glyph glyph-name="bha.sub" 
d="M280 370q33 -1 65 -9t60.5 -19.5t52.5 -25t40 -26.5q42 -33 82 -59.5t66 -56.5q29 -36 68.5 -79t81.5 -106q11 -17 21.5 -40t19.5 -49.5t14.5 -55t5.5 -55.5q0 -45 -19 -82.5t-49.5 -64.5t-69.5 -42.5t-80 -15.5q-66 0 -131.5 32.5t-127 80.5t-117.5 102.5t-103 99.5
q2 1 3 1q2 0 7.5 -4t6.5 -5l1 -1q18 -11 36 -25t32 -23q13 -8 23 -14.5t16 -13.5q20 -16 45 -30t52 -24.5t54.5 -16.5t51.5 -6q47 0 85 17.5t64.5 47t41 68.5t14.5 81q0 28 -2.5 57t-8.5 56t-16.5 50.5t-27.5 40.5q-20 21 -48 33.5t-59 19t-62.5 9t-58.5 2.5
q-18 0 -37.5 -1.5t-37.5 -4.5t-34 -7.5t-26 -9.5q2 -39 4 -73.5t3 -53.5q1 -21 1.5 -32.5t0.5 -22.5q0 -17 -3.5 -27t-9.5 -14.5t-13.5 -5.5t-16.5 -1q-26 0 -39 4t-28 14q-24 15 -41.5 32.5t-33.5 36.5t-33.5 38.5t-40.5 40.5v-2q-7 20 -16 43t-9 46q0 20 10 39.5t25 36.5
t33 30.5t33 20.5l-1 116h180v-92z" />
    <glyph glyph-name="uniA9A9.sub" 
d="M728 572h180l2 -990l-179 117l-1 277l-354 1q1 -6 1 -12v-12q0 -40 -11 -77.5t-45 -61.5q-13 -9 -27 -15.5t-30 -6.5q-13 0 -34.5 10t-46.5 26.5t-51.5 36.5t-49.5 39.5t-41 37.5t-25 29q-16 24 -16 51q0 38 18.5 60t46.5 33t60 14.5t59 4.5v438h180v-440q91 2 142.5 3
t79.5 1t39.5 -0.5t22 -1.5t27 -1.5t53.5 -0.5v440z" />
    <glyph glyph-name="uni044F.sub" 
d="M409 572h180v-221q0 -10 0.5 -24t-4 -30.5t-18 -36.5t-42.5 -43q-24 -19 -53 -21t-60.5 1.5l-63 7t-59.5 -3.5q-48 -12 -84.5 -42.5t-56 -71t-18.5 -88t26 -93.5q5 -11 12 -21.5t15 -23.5q-16 20 -31 36t-32 35q12 -8 24 -16.5t24 -13.5q23 -10 45.5 -19t47.5 -15
q63 -14 126.5 -16t126.5 -3q58 0 116.5 2t115 13.5t108.5 35t97 66.5q1 0 11 -9.5t25 -24.5t32 -32.5t31.5 -32.5t24 -25.5l9.5 -10.5q-53 -55 -120 -82.5t-140.5 -37.5t-148.5 -7t-143 9q-69 6 -137 21.5t-128 52.5q-48 30 -88.5 74t-81.5 86q-35 37 -63 79.5t-33 98.5
q-2 25 1.5 52t13.5 52t26.5 46t40.5 34q30 16 62.5 24.5t66 12t67.5 4t67 0.5q12 0 23.5 0.5t23.5 0.5l9 14q5 12 6 19t1 21v167z" />
    <glyph glyph-name="uni044F.sub.alt" 
d="M590 328q21 -26 23 -46t-7.5 -35t-28.5 -25t-41.5 -16t-45 -8.5t-40.5 -2.5q-31 0 -61 5t-62 5q-40 0 -75.5 -16.5t-62.5 -44t-43 -64t-16 -75.5q0 -42 15 -75.5t38 -68.5q-15 19 -31 36t-32 35q53 -34 103 -51t101 -24t104.5 -7.5t113.5 -0.5q55 0 110 3.5t107.5 15.5
t101 35t90.5 63l133 -135q-37 -39 -81.5 -63.5t-93.5 -38.5t-101 -19.5t-103 -5.5q-50 0 -108.5 3t-117 11.5t-113.5 25t-99 43.5q-50 31 -90 74.5t-80 85.5q-20 21 -38 43.5t-31 46.5t-20.5 50.5t-7.5 57.5q0 56 18 92.5t48.5 59.5t70.5 34t83.5 15.5t88 4.5h84.5v0h179z
" />
    <glyph glyph-name="uniA9AB.sub" 
d="M763 -393q-3 -5 -5 -9.5t-4 -8.5l-307 135l-384 177q-4 2 -7 3t-8 3q-8 5 -17 10.5t-17 9.5q-65 30 -92.5 57t-20.5 40.5t48 7.5t115 -43v5v49v91h180v-220z" />
    <glyph glyph-name="uniA9AD.sub" horiz-adv-x="1" 
d="M1115 572v-864l-179 168v389q0 4 -1 7q-22 8 -43 8q-42 0 -77 -27q-32 -25 -52 -62t-27.5 -79t-1.5 -86.5t26 -85.5q-2 3 -5 6.5t-5 6.5l-20 26q-2 3 -5 6t-5 7q-5 6 -9 11l-8 10q-12 17 -27.5 35t-25.5 41q-22 57 -51 111v1q-13 8 -22.5 15t-20.5 13q-22 11 -45.5 17.5
t-47.5 6.5q-21 0 -42 -5.5t-41 -18.5q-48 -30 -74.5 -89t-21.5 -134q3 -44 6.5 -76t11 -59.5t21 -53t36.5 -56.5q4 -5 10 -13.5l12 -17t10.5 -15t5.5 -7.5q-18 21 -34.5 43.5t-33.5 45.5q-27 37 -51.5 70t-44 68.5t-33 77.5t-20.5 97q-6 51 0.5 100t24.5 88.5t48 66t72 32.5
q36 6 69 -2t62.5 -26.5t56.5 -45.5t52 -60q17 -23 32 -44t29 -43q-4 47 5.5 92.5t30 81.5t49.5 58.5t65 22.5q24 0 45 -9.5t39.5 -24.5t34.5 -33.5t28 -36.5q6 -1 13 -10v255h179z" />
    <glyph glyph-name="uni1020.sub" 
d="M293 340q47 -11 94 -40.5t91.5 -67t85.5 -77.5t74 -73q24 -24 54.5 -49.5t58 -54t46 -61t18.5 -69.5q0 -14 -3 -29q-7 -36 -12.5 -57.5t-14 -38t-23 -33t-39.5 -42.5q-16 -17 -31 -33.5t-31 -32.5q-2 -2 -3 -2q-12 0 -32.5 19t-42.5 41.5t-40.5 41t-26.5 17.5
q23 13 45 28t39 33t28 40.5t11 51.5q0 45 -10.5 91.5t-18.5 89.5q-5 22 -15.5 41.5t-21.5 38.5q-51 27 -99 39.5t-107 12.5q-14 0 -28.5 -1t-28.5 -5q3 -36 9 -72.5t6 -72.5q0 -10 -1 -22t-5 -22.5t-12 -18t-21 -7.5q-16 0 -32 7.5t-31 18t-28.5 23.5t-24.5 23
q-21 20 -50 44t-55.5 51t-45 57t-18.5 61q0 21 10.5 40t27 35t36.5 26.5t39 14.5q-8 56 -12 113t-9 114h180v-5q165 -1 327 0.5t327 1.5q-17 1 -15.5 1.5t12.5 0.5t26 -0.5t26 -0.5t12.5 -0.5t-15.5 -0.5h-46l69 -142l-163 -1v-5q-5 -32 -7.5 -64.5t-7.5 -64.5
q-2 -20 -4.5 -42.5t-15.5 -37.5q-24 -25 -57 -25q-27 0 -57 12.5t-60.5 33t-61 46t-57.5 52t-50.5 51.5t-40.5 44h-125q-3 3 -4 5q2 -23 4 -45.5t4 -45.5zM707 423q-68 0 -135 1t-135 2q14 -9 28 -19.5t25 -24.5q4 -6 8 -15l8 -18t7.5 -17t7.5 -11q8 -7 21.5 -14.5
t28.5 -13.5t29.5 -10t24.5 -4q24 0 46 22.5t36 49.5t15.5 49.5t-15.5 22.5z" />
    <glyph glyph-name="va.sub" 
d="M870 -417l-180 116v108q-69 22 -136.5 49t-130.5 61q-33 18 -62 40.5t-55.5 47.5t-51 52t-49.5 54q-21 23 -39.5 49t-18.5 59q0 34 14.5 55.5t38.5 43.5q18 16 54.5 37.5t83 46t98 49.5t100 48t89 42t65.5 31l180 1v-990zM672 -44v398l-212 -106q-25 -13 -48 -27.5
t-42.5 -32t-34.5 -39.5t-24 -50q17 -6 48 -17.5t68 -25.5t76.5 -28.5t74 -28.5t60 -25.5t34.5 -17.5z" />
    <glyph glyph-name="uni0448.sub" 
d="M996 -360l-180 110v218h-421v-199l-383 367h204v284h-104q-16 21 -29.5 39.5t-27 36.5t-27 36.5t-28.5 40.5h269v1h911q2 0 6.5 -10t8.5 -22.5t7.5 -24t4.5 -14.5q4 -14 8 -23.5t8 -18.5t9 -18.5t11 -22.5l-247 -1v-779zM395 134h421v284h-421v-284z" />
    <glyph glyph-name="ssa.sub" 
d="M180 580v-18.5v-42.5v-53.5v-53.5v-42v-18q0 -17 -0.5 -34t-1.5 -32l395 -10q2 75 0.5 148t-1.5 148q2 -7 16.5 -19.5t34.5 -27t42.5 -30t42 -30t32 -27t12.5 -19.5v-207l1 -415v-207q-48 26 -92 55.5t-89 61.5q-1 34 -1 67v67q-39 -26 -84.5 -35.5t-91.5 -9.5
q-38 0 -79 6t-75 24q-122 64 -180.5 159t-58.5 228v28l-2 60v28v251h180zM172 213q-2 -16 -3 -23q0 -5 -1 -9q-5 -29 -7.5 -54.5t-4.5 -63.5q-1 -22 0.5 -45t9.5 -42t24.5 -31.5t45.5 -12.5q13 0 29 1.5t32.5 4.5t31.5 7.5t27 10.5q35 16 70 42t65 58t51 70t27 78z" />
    <glyph glyph-name="uniA9B1.sub" 
d="M959 -418l-180 116v218h-385v-199l-383 367h203v487h180v-487h385v336h-72q-15 0 -27 41l-11 39q-20 72 -25 72h445q6 0 27 -71l11 -38q13 -43 24 -43h1h-193v-838z" />
    <glyph glyph-name="uni0445.sub.1" 
d="M854 285q35 -23 75 -47.5t78 -52.5t70 -61t50 -74q21 -46 20 -106.5t-15 -123.5t-39 -121t-52 -99h-1l-189 185q37 62 63 130t27 137v51.5t-6.5 57.5t-22.5 48.5t-46 24.5q-35 5 -73 -3t-70 -20q-55 -20 -99 -56t-79 -79q-3 -4 -18.5 -24t-32 -43.5t-28 -42.5t-5.5 -21
q-37 12 -73.5 33.5t-69.5 41.5l-318 170l10 13v8l130 241h180l-168 -318l119 -74q-3 7 -2 9q12 49 38 100t63.5 93.5t83.5 73t97 37.5q14 2 26.5 3t24.5 1q71 0 131 -26t121 -66z" />
    <glyph glyph-name="kssa.sub" 
d="M1047 424q40 -22 79.5 -51.5t76 -64t69 -71.5t58.5 -75q36 -52 52 -112.5t20.5 -125t-0.5 -129.5t-11 -126q0 3 -11 12.5t-25 21t-26.5 21t-15.5 11.5q-4 3 -15.5 12t-24 20t-22 21.5t-9.5 16.5q6 68 12 135t0 135q-10 119 -82.5 186.5t-189.5 72.5q-14 1 -29 2t-32 1
q-24 0 -48 -5t-44.5 -21t-34.5 -45.5t-18 -78.5l-4 -798l-180 193v106q-29 -17 -61.5 -27t-64.5 -10q-30 0 -54 7t-45 20t-40 29.5t-39 36.5q-16 17 -30.5 33t-27.5 33l-2 2l-4 5l-3 3q-3 4 -9 10l-8 8q-10 11 -20 21t-18 21q-47 66 -68 148t-14 164q2 23 5 42t8 41
q29 -41 51 -79q10 -16 19 -34t16 -35.5t11 -33.5t4 -29q100 -5 196.5 -11t197.5 -12v297q-113 -2 -223.5 -4t-222.5 -3q-6 0 -17 8.5t-22.5 19t-22 21.5t-15.5 15q-4 3 -13.5 14t-20 23t-20 21.5t-14.5 9.5q149 2 295.5 4t295.5 4v101l180 -97l10 -13q36 0 70.5 -0.5
t67.5 -3.5t65 -10.5t62 -23.5zM0 463v0v0zM592 -10q-101 7 -197.5 13.5t-196.5 13.5q2 -54 13 -107t34 -101q2 -2 6 -4.5t8 -4.5q54 -26 105 -23q40 3 73.5 17t62 35.5t51.5 50.5t41 62v48z" />
    <glyph glyph-name="jnya.sub" 
d="M1231 141q1 -21 2 -43.5t3 -45.5q-1 3 -14 10t-29.5 14t-32 13t-20.5 8q-5 3 -20 8.5t-30.5 12.5t-28 13t-12.5 10q-3 47 -6 90q-1 31 -3 49.5t-3.5 31t-3 21t-3 19t-3 25.5t-3.5 40h-192q3 -32 5.5 -53t5 -37.5t4.5 -31t4 -33t4.5 -43t4.5 -60.5q1 -22 2 -43t3 -43
q0 3 -13.5 9t-30.5 13t-32.5 13t-19.5 8q-5 3 -20 8.5t-31 12t-28.5 13t-12.5 10.5q0 22 -0.5 43t-1.5 42q-2 29 -4 47t-4 29t-4 19t-4 17t-3.5 23t-3.5 37l-195 -3q1 -1 1 -5q2 -43 4 -78t4 -67.5t4 -67t5 -78.5q2 -32 2.5 -65.5t2.5 -66.5l211 -180q42 35 89.5 55.5
t102.5 20.5q51 0 95.5 -18t85 -46t78.5 -62.5t75 -68.5q18 -16 34.5 -36t28.5 -42.5t16.5 -47t-1.5 -49.5q-10 -42 -38.5 -67.5t-66.5 -25.5q-25 0 -52 12q-53 23 -98.5 61.5t-90.5 75.5q-23 18 -46 37.5t-46 37.5q-57 -60 -83 -134.5t-31 -156.5q-15 14 -30.5 27t-31.5 27
q-9 7 -16 11.5t-9 6.5q-9 6 -22 15t-26 19t-24 20.5t-15 21.5q-8 23 -18 47.5t-22 47.5q-47 4 -91.5 -14t-73.5 -58q-36 -50 -44 -104t5 -107.5t44.5 -102t74.5 -85.5q4 -3 7 -6l2 -2q-1 0 -12.5 9.5t-29 23.5t-37.5 30.5t-37.5 31.5t-30 25.5t-14.5 12.5q-30 26 -57.5 57
t-49 66t-33.5 73.5t-10 80.5q2 38 14.5 76t35 69t55 50.5t74.5 20.5q38 0 71 -13t63 -33.5t57.5 -45.5t55.5 -47l3 -3l7 -6l3 -3q13 54 36 105t59 92q-35 29 -70.5 59.5t-76.5 51.5q-14 8 -31 14t-35 10q1 -15 2 -31t-0.5 -31.5t-7 -28t-17.5 -19.5q-16 -9 -33 -9
q-21 0 -41.5 12.5t-39.5 30t-35.5 36.5t-30.5 33q-9 9 -25 23t-28 31q0 1 -1 2q-10 13 -16.5 26t-7.5 25.5t6.5 23.5t25.5 20q23 11 44 13t43 0q-2 35 -4 70.5t-4 71.5q-1 32 -2.5 54t-3 42.5t-3 43.5t-3.5 55h-122q-9 0 -23.5 9.5t-30.5 22.5t-29 26.5t-19 20.5
q-2 3 -9 11.5t-16.5 20t-19.5 23.5t-18 21h1328l182 -155h-299q2 -34 4 -57.5t4 -41t4.5 -33.5t4.5 -35t4.5 -45t4.5 -64zM878 -335l-5 -5q29 -23 57 -45.5t58 -44.5h1q38 -5 66.5 8t45.5 36.5t21.5 55t-5.5 63.5q-18 3 -35 4.5t-36 -0.5q-46 -7 -89 -23.5t-79 -48.5z" />
    <glyph glyph-name="ru.sub" 
d="M1361 1370q2 -11 -1 -9.5t-5.5 6.5t-2 8t8.5 -5zM864 -397q-3 -5 -5 -9.5t-4 -8.5l-307 135l-384 177q-4 2 -7 3t-8 3q-8 5 -17 10.5t-17 9.5q-64 30 -92 57t-21 40.5t48 7.5t115 -43v5v49v95h180v-224zM341 133q1 0 12 -1.5t27 -3.5t34 -4t34 -3.5t27 -3t12 -1.5
q54 -19 100 -50t94 -76q35 -32 69 -65.5t65.5 -69.5t58 -75.5t45.5 -84.5q-4 10 -21 24.5t-41 32t-52 36.5t-53.5 36.5t-46 32t-30.5 24.5q-21 22 -44.5 39.5t-50.5 28.5q-32 19 -60.5 33t-57 23.5t-58 15.5t-64.5 9z" />
    <glyph glyph-name="ruu.sub" 
d="M345 134q7 -5 11 -8t11 -7l31 -15.5t32 -13.5q15 -5 32 -10t35 -8t35.5 -1.5t32.5 8.5q37 18 54.5 45.5t23 60.5t1.5 68.5t-10 69.5q0 -8 10 -19t23 -22t25.5 -20.5t17.5 -14.5q7 -7 19 -17t24.5 -21t22 -22.5t11.5 -20.5q5 -24 10 -54.5t5 -61t-9 -58.5t-34 -47
q-24 -18 -51.5 -24.5t-55.5 -4t-55.5 12t-52.5 23.5q-51 27 -103 65t-96 83v34zM864 -397q-3 -5 -5 -9.5t-4 -8.5l-307 135l-384 177q-4 2 -7 3t-8 3q-8 5 -17 10.5t-17 9.5q-64 30 -92 57t-21 40.5t48 7.5t115 -43v5v49v95h180v-224z" />
    <glyph glyph-name="uni043A.sub.short" 
d="M627 483q45 16 94 16q56 0 107.5 -21t89.5 -57t58 -85.5t14 -106.5q-3 -30 -21 -52.5t-45 -37.5t-60 -22.5t-66 -7.5q-57 0 -112 23t-100 55v-186l-164 69v74q-26 -16 -55.5 -24.5t-59.5 -8.5q-36 0 -74 15t-72.5 39t-63 53.5t-45.5 58.5q-16 28 -18 58.5t8.5 59.5t32 54
t51.5 41q56 30 114 30q48 0 93.5 -19.5t83.5 -48.5v120l180 1v-123q8 14 13.5 21.5t16.5 11.5zM413 312q2 2 5 4.5t4 4.5v84q-47 11 -88 11q-47 0 -87 -13.5t-69 -39.5q-27 -26 -41 -61t-6 -69q2 -11 16.5 -16t28.5 -7q76 -8 134 21t103 81zM773 214q25 3 46.5 15t38.5 29.5
t28.5 37.5t15.5 38.5t0 32.5t-17 19q-7 3 -13.5 5.5t-11.5 4.5q-18 6 -39 8t-39 -1q-37 -5 -63.5 -15.5t-48.5 -26t-41.5 -36.5t-42.5 -48v-41q29 -11 75 -19.5t112 -2.5z" />
    <glyph glyph-name="uni043A.alt.sub.short" 
d="M448 266q-32 0 -64.5 0.5t-64.5 0.5q-23 0 -50 -0.5t-54.5 -0.5t-53.5 0.5t-48 2.5q-7 1 -23.5 21t-34.5 45.5t-33.5 49.5t-21.5 33l449 -8l-1 162h180v-165q54 -2 108 -13t102 -37q22 -12 51 -34.5t59.5 -50.5t60 -60.5t52.5 -65.5t37 -64.5t14 -57.5q0 -22 -3 -43.5
t-6 -42.5l-150 73q4 20 8.5 40t4.5 40q0 42 -17 70t-45 46.5t-63.5 29t-73 15.5t-74 7t-65.5 3v-262l-180 134v132zM351 -298q0 2 -2 2q2 0 2 -2z" />
    <glyph glyph-name="uni0445.sub.short" 
d="M1237 421l-149 -4v-634l-181 85v84q-29 -22 -61.5 -28.5t-67.5 -6.5q-26 0 -56.5 4.5t-54.5 18.5q-37 20 -68.5 48.5t-57.5 61.5q-30 40 -42 94.5t-12 103.5q0 21 2.5 42t2.5 42v19t-1 23t-1.5 23.5t-2.5 19.5h-137v-634l-146 85v549h-71l-131 151l1103 4zM546 417
q10 -10 19 -23.5t15.5 -27t11.5 -26t7 -20.5q6 -22 8 -46.5t2 -47.5t-2 -44.5t-2 -43.5q0 -18 0.5 -38.5t5.5 -37t17 -27.5t35 -11q18 0 44.5 5t43.5 13q26 13 53.5 34.5t50 49t37 59t15.5 65.5q0 18 0.5 39.5t0.5 44v44v39.5h-362z" />
    <glyph glyph-name="uniA992.sub.short" horiz-adv-x="2" 
d="M882 -212l-180 138v490h-178l-1 -490l-352 252h194v236h-210q-8 0 -21.5 11.5t-29 28t-31.5 36.5t-30.5 37t-25.5 29t-16 12l943 2l142 -156l-204 -1v-625z" />
    <glyph glyph-name="gha.sub.short" horiz-adv-x="683" 
d="M866 -13l-146 70v130q-34 -16 -67 -16q-32 0 -65 17q-42 20 -79 46q-17 -36 -67 -59q-33 -13 -67 -13q-11 0 -38 3t-65 26l-14 7q-72 36 -127 86l-15 15q-34 27 -52 64q-19 43 -24 88q-8 63 -40 121q6 -9 21 -18.5t30.5 -17.5t25 -15t22.5 -14q33 -19 51 -39
q20 -31 29.5 -64t14.5 -66q6 -39 18 -74q70 0 115 36q18 19 22 41q2 13 3 26l-2 30q-1 17 -1 34q0 35 4 69q14 -10 27 -20q38 -24 68 -43q49 -26 56 -41q18 -52 18 -111v-6q80 9 127 70.5t55 127.5l-4 91l38 -28l39 -24q11 -9 29 -17.5t33.5 -18.5t18.5 -23t4 -27q0 -5 1 -8
l4 -56q2 -68 2 -99z" />
    <glyph glyph-name="uniA994.sub.short" 
d="M893 -125q-134 67 -184 94q-50 32 -109 50l-11 3q-1 -6 -19.5 -18.5t-55.5 -12.5l-15 1q-34 5 -61.5 16.5t-53.5 24.5q-14 8 -27 15q-50 23 -73 38q-26 18 -35 38v5q0 29 40 40q25 7 49 7q20 0 40 -4q4 -1 7.5 -2t5.5 -2l2 8l-2 9q-13 57 -65 238h-326q13 0 49 34t39 38
q41 54 65 79l1107 -3q-34 -44 -46.5 -60.5t-17.5 -22t-13 -16.5q-26 -38 -29.5 -44.5t-48.5 -6.5h-129l-13 -183q-3 -13 -26 -14q-10 0 -18 3q-19 9 -32 16.5t-36 20.5q-93 51 -173 157l-173 3l71 -274q6 -23 12 -41l13 -6q22 -11 46 -24l187 -94q13 -7 24 -14
q47 -29 99 -61l41 -28q32 -13 53 -63z" />
    <glyph glyph-name="uniA995.sub.short" 
d="M1047 -136q-41 0 -72.5 8.5t-59.5 23.5t-55.5 35t-60.5 43q-24 17 -37.5 26.5t-21.5 15t-13.5 10t-13.5 11t-21.5 17t-37.5 29.5q2 -20 8 -37.5t6 -38.5q0 -15 -10 -24t-24.5 -13.5t-30 -5.5t-26.5 -1q-20 0 -39.5 4t-36.5 12q-21 10 -52 28.5t-62.5 40.5t-59.5 44
t-44 38q-8 8 -14 19t-6 23q0 22 12 34.5t29 18.5t37.5 7.5t36.5 1.5q37 0 77 -8l-24 123q-1 5 -5.5 18t-9.5 27.5t-9.5 28t-4.5 18.5h-125q-9 0 -34 17.5t-53 40t-53 44.5t-36 32h1127q11 -9 36 -31t53 -45t51.5 -40.5t31.5 -17.5h-187q9 -37 15.5 -64.5t11 -50.5t7.5 -43.5
t6 -44.5t5.5 -53.5t6.5 -70.5q6 -59 -2.5 -105.5t-34 -78.5t-70 -49t-111.5 -17zM883 51q17 -7 34 -11t32 -4q37 0 60 24.5t36 59.5t17.5 73t4.5 66q0 39 -0.5 57.5t-3 33t-8 33.5t-16.5 58h-458q9 -49 15.5 -78t12.5 -53.5t13 -53t18 -77.5q39 -25 62 -40.5t37.5 -25
t24.5 -15t24 -11t36 -13.5t59 -23z" />
    <glyph glyph-name="cha.sub.short" 
d="M472 572h180v-107q45 21 92 21q55 0 105.5 -27t88 -74.5t57.5 -112t14 -139.5q-3 -40 -21.5 -70.5t-45.5 -51t-60 -30.5t-67 -10q-10 0 -20 1t-20 3q-27 7 -58.5 24t-61 38t-54 44t-38.5 41q-12 -15 -21.5 -29.5t-23.5 -30.5q-32 -38 -76.5 -63.5t-92.5 -25.5
q-21 0 -42.5 6t-42.5 20q-24 16 -48.5 37.5t-47 46.5t-41 52t-30.5 52q-18 38 -20.5 79t8 80t32.5 73t55 58q26 20 55.5 29t58.5 9q36 0 70.5 -12.5t65.5 -38.5q11 -10 23.5 -21.5t26.5 -22.5v152zM652 437q6 7 0 14v-14zM458 237q14 23 31.5 50.5t31.5 53.5q-70 32 -140 32
q-48 0 -89.5 -16t-68.5 -50q-27 -33 -41.5 -78.5t-6.5 -95.5q2 -11 11.5 -18t21.5 -10.5t25.5 -4.5t22.5 -1q65 0 113.5 37t88.5 101zM792 113q25 3 47 19t39 39t28 50.5t15.5 52t1.5 43t-15 24.5q-5 6 -14 9l-15 5q-16 5 -38 9t-41 -1q-33 -8 -63 -20.5t-50 -35.5
q-32 -38 -57.5 -78.5t-51.5 -80.5q14 -4 33 -12t44.5 -14.5t59.5 -9.5t77 1z" />
    <glyph glyph-name="uniA997.sub.short" 
d="M1052 -55q-62 0 -104 11t-74 28.5t-59 40t-60 45.5l-86 58l-42 30l-8 5q-28 15 -56.5 27t-59.5 19q2 -12 3 -23.5t1 -23.5q0 -15 -2.5 -45t-10 -59t-20.5 -51t-35 -22q-28 0 -50.5 13.5t-43 32.5t-39 40.5t-38.5 36.5q-30 24 -55 49q-10 12 -17.5 26.5t-7.5 30.5
q0 14 12.5 25t30 18t35.5 10.5t29 3.5q14 0 26 -3l-1 166q-27 0 -59 -2t-64 0.5t-61.5 12.5t-50.5 34q-21 23 -44 45.5t-41 48.5h1120q6 -9 26.5 -31t43.5 -46t44 -43.5t28 -21.5h-266l16 -145q-1 5 -11 8t-25 6t-32 5.5t-31.5 5.5t-24.5 6.5t-11 7.5l-10 106h-130l18 -143
q-2 5 -20 8t-40.5 7t-43.5 9.5t-29 14.5l-9 105l-115 2l1 -122q47 -34 101 -75t112 -76.5t118.5 -59.5t120.5 -24q28 0 55.5 9.5t51.5 9.5q8 0 21 -18.5t27 -42t27.5 -45t23.5 -27.5q-51 -18 -105 -18z" />
    <glyph glyph-name="jha.sub.short" 
d="M517 -207q-6 0 -36 15t-73 37.5t-92 49.5t-93 52t-77.5 44t-45.5 25h286v400h-213q-10 0 -34 20t-50 45.5t-49 50t-31 33.5l1178 2l-133 -151h-105q3 -10 5 -18t3 -15.5t1.5 -16t0.5 -19.5q0 -24 -3 -51q-3 -26 -17 -51.5t-35 -45.5t-47 -32t-54 -12q-31 0 -65 17t-66 42
t-59.5 53.5t-46.5 50.5v-481q0 -21 -14.5 -32.5t-34.5 -11.5zM716 233q41 0 70.5 16t48 42t27.5 58.5t9 66.5h-305v-48q0 -7 4.5 -13t8.5 -11q14 -21 25.5 -40.5t26.5 -35.5t35 -25.5t50 -9.5z" />
    <glyph glyph-name="uniA99A.sub.short" 
d="M587 -225l-175 90l2 555l-151 2l-200 150l1078 -2l199 -150h-372l17 -131q48 -7 99.5 -20.5t100 -32.5t92 -42.5t75.5 -50.5q27 -23 42.5 -42.5t21 -37.5t3 -37t-10.5 -40q-9 -25 -53.5 -54.5t-107.5 -58t-137 -54t-144 -42.5q-35 5 -54.5 21.5t-19.5 30.5q0 10 1 15
q1 9 22.5 20.5t55 25.5t74 30t79 35.5t70.5 41.5t49 48t8 51.5t-33 42.5q-22 12 -57.5 20.5t-67.5 8.5q-46 0 -95 -11q3 -13 3.5 -27.5t0.5 -28.5q0 -20 -10 -32t-39 -12q-12 0 -26 6.5t-27.5 15.5t-26.5 18.5t-22 15.5q-13 8 -31.5 21t-36 28t-29.5 30.5t-12 28.5
q0 12 9.5 21.5t24 16.5t30 12t27.5 8l-18 141h-220q0 -76 -1 -157.5t-2.5 -165t-3 -165t-1.5 -157.5z" />
    <glyph glyph-name="uniA99B.sub.short" 
d="M790 -216h-7q-173 0 -304 96q-47 35 -103 84q-41 34 -79 73q-76 77 -90 185q-6 50 -7 104l-11 93h-39q-15 0 -63 41q-11 10 -14.5 15t-12.5 20t-21 32q-29 42 -39 42h1053q16 0 62 -71q9 -14 13 -19l36 -49l13 -11h-242l-81 -156q-7 -13 -17 -23q-15 -15 -38 -15
q-16 0 -33 10t-32 26l-135 158h-237q6 -8 9 -60t5 -112l3 -90l1 -30v16t1 16l1 -13l1 -40v-17q0 -30 6 -60.5t31 -52.5q30 -18 80 -23q42 -5 79 -5h31q112 0 222 16q7 0 21.5 -11.5t30.5 -27.5t26.5 -27t15 -15t16.5 -17.5t27.5 -28.5t29 -25.5t18.5 -10.5
q-112 -17 -227 -17z" />
    <glyph glyph-name="ttha.sub.short" 
d="M243 -5q-59 34 -107 89t-73 112l-12 28q-18 42 -30.5 82t-12.5 77v6q0 55 27 101q21 36 61 59q59 33 122 33q36 0 73 -11q39 -11 71 -31q58 -35 102 -93q18 -29 23 -63q3 -14 7 -28l14 -32l-1 1q11 -21 16 -45q12 -53 12 -110q0 -10 -1.5 -49.5t-31.5 -92.5
q-1 -2 -18 -30t-93 -40q-10 -1 -19 -1q-59 0 -116 31zM205 115q47 -29 77.5 -33t40.5 -4q40 0 75 22q40 25 67 69q1 2 15 26.5t17 73.5v8q0 50 -34 92q-29 30 -64 52q-14 8 -29 15q-55 25 -109 25q-45 0 -89 -18q-42 -16 -70 -45q-15 -17 -26 -36q-10 -17 -17 -35
q-9 -23 -9 -44q0 -11 4.5 -31t35.5 -51q49 -45 107 -81z" />
    <glyph glyph-name="uniA99D.sub.short" 
d="M582 257q27 -18 59.5 -35.5t60 -37t44.5 -41.5t12 -49q0 -2 -2.5 -12t-3.5 -12q-7 -24 -14 -36.5t-21 -24.5t-40 -29t-72 -50q-7 -5 -28 6.5t-44.5 27.5t-44.5 30t-28 12q41 16 66 29.5t38 27t16.5 28.5t0.5 33q-1 7 -3 14.5t-4 16.5q-2 5 -3 10t-3 10q-4 12 -7 24.5
t-7 25.5q-4 14 -13 29.5t-24 23.5q-29 16 -64.5 21.5t-72.5 9.5q-14 1 -24.5 0t-20 -3.5t-20 -5.5t-25.5 -5q1 -6 1.5 -11t1.5 -10q1 -11 6.5 -32.5t5.5 -42t-9 -35t-37 -11.5q-31 3 -56.5 17t-52.5 31q-14 9 -37 21t-46.5 26.5t-44 31t-32 33.5t-9.5 34t25 33t41 24.5
t47 11.5l-1 156h180v-160l16.5 -1.5t9.5 -1l8 -1t11 -3.5q40 -15 74.5 -32t66 -36t62 -39t61.5 -41z" />
    <glyph glyph-name="ddha.sub.short" 
d="M851 571q33 0 63 -9.5t57.5 -25t52.5 -35.5t48 -41q30 -28 67 -59t71 -65.5t60 -72.5t34 -80q2 -12 3.5 -24.5t1.5 -24.5q0 -42 -15 -69.5t-40.5 -44t-59 -23t-69.5 -6.5q-66 0 -147.5 17t-165 44t-162.5 60t-140 65q-33 17 -68 36t-72 27q0 -19 3 -37.5t3 -37.5
q0 -14 -5 -37.5t-14 -46t-22 -38.5t-30 -16q-14 0 -37 14.5t-50 37t-55.5 50t-54 54t-46 49t-31.5 34.5q-13 14 -22 31.5t-9 37.5q0 26 13.5 46.5t34 35.5t45.5 23t47 8q9 0 18 -1t18 -4v129h180l4 -229l50 -27q18 -10 41.5 -17.5t45.5 -15.5q78 -29 156.5 -51.5
t161.5 -33.5q-8 9 -23.5 24.5t-31.5 33t-30 33t-19 24.5l2 -1q-19 26 -31 56t-12 62q0 35 16.5 61.5t43 44t58.5 26.5t63 9zM956 205q31 2 66.5 11.5t66 28.5t50.5 46.5t20 63.5v13q-7 1 -13 1h-13q-34 0 -67 -11t-58.5 -31t-41 -49.5t-15.5 -67.5z" />
    <glyph glyph-name="nna.sub.short" 
d="M824 378q17 21 29.5 36.5t27.5 26t34.5 16t48.5 5.5q45 0 81 -25t66 -61.5t56 -76.5t51 -70q23 -28 44 -60t21 -71q0 -21 -8 -42.5t-22 -39t-33 -28.5t-42 -11q-31 0 -60.5 20t-57 47.5t-52.5 56.5t-48 47l-40 34l-40 34q-61 -49 -89.5 -117.5t-38.5 -143.5
q-15 13 -38 34.5t-46 45.5t-42.5 47t-25.5 40q-8 20 -14.5 38.5t-15.5 37.5q-19 3 -38 3q-42 0 -75.5 -16.5t-57 -44t-35.5 -64t-12 -76.5q0 -66 29.5 -126.5t71.5 -110.5q2 -2 4 -4.5t3 -4.5q-13 7 -31.5 26.5t-38 42t-38 45t-30.5 35.5q-22 24 -43.5 51t-39 57t-28 62.5
t-10.5 66.5q0 41 14 78t39 65t60 44.5t77 16.5q39 0 69.5 -11.5t55.5 -30.5t47 -44.5t44 -54.5q6 -7 12 -11q11 29 18 68t7 70v242h180v-194zM889 230q15 -15 31 -29t33 -25t36.5 -17.5t41.5 -6.5q28 0 48.5 10.5t34 28.5t20 41t6.5 48q0 11 -1 20.5t-3 19.5
q-14 8 -28.5 13.5t-30.5 5.5q-32 0 -57 -10.5t-47 -26t-42 -35t-42 -37.5z" />
    <glyph glyph-name="uniA9A0.sub.short" 
d="M341 571q50 -44 95 -95.5t88 -102.5q26 -30 47 -64t23 -76v-6q0 -47 -19 -87t-50.5 -69t-73 -45.5t-86.5 -16.5q-52 0 -102 13.5t-96.5 37t-89.5 53.5t-81 63q-7 5 -11 12q0 2 2.5 2.5t4.5 0.5q14 0 38 -5t51.5 -11t54 -12t44.5 -8q24 -3 47 -3q62 0 118.5 24.5
t89.5 79.5q14 24 23.5 50.5t9.5 55.5q0 8 -2 12.5t-5 8t-7.5 7.5t-9.5 10q-12 15 -32.5 27t-44.5 19.5t-48.5 11.5t-44.5 4q-11 0 -46.5 -1t-75.5 -1.5t-73.5 -1.5t-40.5 -1v115z" />
    <glyph glyph-name="tha.sub.short" 
d="M71 1436q-1 2 -1.5 3.5t-1.5 3.5q1 -2 1.5 -3.5t1.5 -3.5zM77 1424l-6 12zM68 1443q-7 17 -8 23q2 -6 4 -11.5t4 -11.5zM998 43q3 -3 14 -11t23 -17t21 -17t8 -12q-9 -30 -34.5 -44.5t-57 -16.5t-64.5 7.5t-57 26.5q-26 18 -56 39.5t-57.5 45t-48 49t-27.5 52.5
q-8 33 -4.5 68.5t8 71.5t4 71.5t-15.5 67.5q-12 4 -23.5 7.5t-25.5 5.5q-32 4 -61 3t-61 -7q12 -10 21 -21.5t16 -22.5q21 -34 40 -74t27 -80.5t0.5 -80t-40.5 -73.5q-27 -29 -67.5 -48t-85.5 -25.5t-91.5 1t-85.5 31.5q-28 17 -59 36t-61 41t-55.5 46t-41.5 51
q16 -22 41 -47t68 -39q26 -8 54.5 -14t57.5 -4q54 5 104.5 24t77.5 54q34 43 41 88.5t-8 90.5l-12 36t-14 36q-12 10 -26 24t-28 25q-14 20 -24 24q-2 1 -9.5 6t-16.5 15h-1l1 1q-13 10 -26 21t-19 10q24 2 43 -4.5t36 -13.5q69 11 137 -1.5t122 -54.5q24 -19 55 -41
t59.5 -45.5t50.5 -49.5t30 -54q9 -32 6.5 -65.5t-6.5 -67.5t-5 -67.5t9 -65.5q23 -3 45 1q33 7 55.5 22t30.5 42q-1 -3 9 -11.5t22.5 -18t23.5 -17.5t14 -10z" />
    <glyph glyph-name="uniA9A2.sub.short" 
d="M823 475q13 -30 47 -60.5t70 -63.5t63.5 -70t27.5 -80q0 -33 -14.5 -60t-38.5 -46t-54 -29.5t-61 -10.5q-49 0 -103.5 17t-110 41t-108 51t-97.5 47q-8 4 -12 5v2q-23 8 -42.5 13.5t-39.5 8.5q1 -23 -5.5 -52t-20 -54.5t-34.5 -43t-49 -17.5t-54 16t-50 38.5t-45 47.5
t-38 44q-14 15 -30 33t-29 37.5t-21.5 41t-8.5 43.5q0 26 9.5 44.5t26 30.5t37.5 17.5t44 5.5q17 0 34 -2.5t34 -6.5v109h180v-182q42 -19 87 -39l14 -6q54 -26 108 -45t108 -19q30 0 63 9t60.5 26.5t45.5 44t18 61.5q0 26 -11 53z" />
    <glyph glyph-name="dha.sub.short" 
d="M994 3q-68 45 -134 87.5t-133 85.5q-29 19 -59 40t-61 41q-16 -32 -32 -62t-33 -60q-12 -20 -26 -42t-31 -41.5t-37.5 -33t-44.5 -15.5q-22 -2 -41.5 3.5t-37.5 16t-35 24.5t-34 29q-45 32 -50 44q-23 22 -42 49.5t-25 63.5q-8 54 15 101t68 67q54 24 111.5 16.5
t112.5 -36.5q9 -5 19 -9.5t19 -10.5l4 101h180q-3 -38 -5 -59.5t-6.5 -39t-13.5 -35.5t-25 -48q65 -42 129.5 -87t130.5 -87q15 -9 30.5 -23.5t31 -29.5t30 -28.5t25.5 -21.5zM322 123q26 17 45 39t36 50q14 23 28 47.5t27 50.5q-51 5 -99 -8.5t-77 -61.5
q-19 -32 -24.5 -65.5t3.5 -66.5h5q16 1 30 4t26 11z" />
    <glyph glyph-name="uniA9A4.sub.short" 
d="M676 572v-555l-180 117v137h-341l-155 191h496v110h180z" />
    <glyph glyph-name="uniA9A5.sub.short" 
d="M846 -76q-42 19 -90 36t-89 41q-1 22 -1 43.5v43.5q-32 -17 -68.5 -23t-74.5 -6q-30 0 -64 4t-60 15q-100 43 -150 106t-50 154v24t-0.5 42t-0.5 51t-0.5 51t-0.5 42v24h180l-3 -154q-5 -85 -12 -166q-1 -13 -1 -30t5 -33t18 -27t38 -11q34 0 76 16.5t78.5 43t62.5 60.5
t27 68q2 58 1.5 115t-0.5 114q1 -4 15 -12t33.5 -17.5t42.5 -20t42 -20t32 -17.5t13 -13v-499v-11l1 -23v-11z" />
    <glyph glyph-name="pha.sub.short" 
d="M937 328q11 -13 23.5 -26.5t23.5 -28t19.5 -30.5t11.5 -34q7 -39 0 -69.5t-23.5 -51.5t-41 -32.5t-52.5 -11.5q-23 0 -47.5 8.5t-47.5 25.5q-23 18 -47 40t-47 47q-14 13 -27 27t-18 24l-12 15q-16 -18 -29.5 -38t-27 -41t-27.5 -41.5t-31 -38.5q-45 -48 -79 -74t-69 -26
q-29 0 -61 19.5t-72 61.5q-44 47 -82 94t-64 99t-36.5 112.5t0.5 133.5l5 24q2 14 2.5 28t2.5 28l180 1v-88q0 -23 -7.5 -38.5t-14.5 -38.5q-7 -29 -10.5 -55t-4 -51t3 -50.5t11.5 -55.5q10 -37 23 -52.5t29 -15.5q17 0 35.5 16t36.5 40.5t35 53t30 54t21.5 43.5t10.5 20
q22 30 48.5 57t56 47.5t62 32.5t66.5 12q56 0 110 -38q36 -26 68.5 -65t62.5 -73zM833 243q17 23 24.5 46.5t8.5 47.5q-9 0 -17.5 1t-17.5 -1q-52 -8 -93 -30.5t-75 -62.5q8 -7 14.5 -13t14.5 -14q13 -5 27 -10t28 -3q25 2 48 9.5t38 29.5z" />
    <glyph glyph-name="uniA9A7.sub.short" 
d="M657 572q1 -64 2 -99.5t2 -57t2 -37t2 -39.5t2 -64.5t2 -112.5q0 -22 -1.5 -49t-10.5 -53t-28 -48t-54 -34q-61 -22 -121 -22q-79 0 -153 39q-24 13 -49.5 31t-51 38.5t-50.5 42.5t-47 43q-17 17 -37 35.5t-36 39t-24.5 43t-2.5 45.5q9 40 37.5 73.5t70 58t93 38
t106.5 13.5q42 0 84 -8.5t83 -25.5q1 0 1 -0.5t1 -0.5l3 -2l1 -1l-6 114h180zM317 104q58 9 92 31.5t51.5 52t22.5 62.5t5 63q0 21 -6 29t-37 6q-37 -2 -71.5 -9t-65 -21t-56 -36.5t-46.5 -57.5q-7 -11 -15.5 -26.5t-11.5 -31.5t3 -30.5t28 -23.5q16 -6 33 -8.5t34 -2.5
q24 0 40 3z" />
    <glyph glyph-name="bha.sub.short" 
d="M280 370q33 -1 65 -6.5t60.5 -13.5t52.5 -17.5t40 -18.5q42 -23 82.5 -41.5t65.5 -39.5q30 -26 69.5 -55t80.5 -74q11 -12 22 -28t19.5 -34.5t14 -38.5t5.5 -39q0 -31 -19 -57.5t-49.5 -45.5t-69.5 -30t-80 -11q-66 0 -131.5 23t-127 56.5t-117.5 71.5t-103 69q8 0 15 -3
l3 -1l36 -20t32 -16q13 -5 23 -9.5t16 -9.5q20 -11 45 -20.5t52 -17t54.5 -11.5t51.5 -4q47 0 85 12.5t64.5 33t41 47.5t14.5 56q0 20 -2.5 40t-8.5 39t-16.5 35.5t-27.5 28.5q-20 15 -48 23.5t-59 13.5t-62.5 6.5t-58.5 1.5q-18 0 -37.5 -1t-37.5 -3.5t-34 -5.5t-26 -7
q2 -27 4 -51t3 -37l1.5 -22.5t0.5 -15.5q0 -25 -13 -29.5t-30 -4.5q-26 0 -39 2.5t-28 9.5q-24 11 -41.5 23t-33.5 25.5t-33.5 27.5t-40.5 28v-2q-7 14 -16 30.5t-9 32.5q0 14 10 28t25 25.5t33 20.5t33 14l-1 109h180v-92z" />
    <glyph glyph-name="uniA9A9.sub.short" 
d="M627 572h180l2 -770l-179 134l-1 202l-253 1q1 -6 1 -12v-12q0 -40 -11 -77t-45 -62q-13 -9 -27 -15.5t-30 -6.5q-13 0 -34.5 10t-46.5 26.5t-51.5 36.5t-50 39.5t-41 37.5t-24.5 29q-16 24 -16 51q0 37 18 59t45.5 33t60 15t60.5 5v276h180v-278h263v278z" />
    <glyph glyph-name="uni044F.sub.short" 
d="M589 572q0 -33 0.5 -66t0.5 -66q0 -27 -12 -51.5t-31.5 -42.5t-44.5 -28.5t-52 -10.5q-31 0 -61.5 5t-61.5 5q-34 0 -71.5 -0.5t-68.5 -9.5t-51 -31t-20 -64t14.5 -60t40.5 -18h314q38 0 78.5 0.5t78.5 7.5l149 -141q-38 -1 -72.5 -2t-70.5 1q-59 4 -123.5 3.5t-128 4.5
t-124.5 20t-112 49q-37 25 -75.5 51.5t-60.5 66.5q-7 11 -13 22t-11 40q0 50 16 85t43 58t62.5 35.5t75.5 18.5t81 7.5t78 1.5h51l2 109h180z" />
    <glyph glyph-name="uni044F.sub.short.alt" 
d="M589 572q0 -33 0.5 -66t0.5 -66q0 -27 -17.5 -43.5t-41.5 -26t-49 -15t-40 -10.5q-29 -10 -56.5 -19t-58.5 -9q-34 0 -71.5 -0.5t-68.5 -9.5t-51 -31t-20 -64t14.5 -60t40.5 -18h314q38 0 78.5 0.5t78.5 7.5l149 -141q-38 -1 -72.5 -2t-70.5 1q-59 4 -123.5 3.5t-128 4.5
t-124.5 20t-112 49q-37 25 -75.5 51.5t-60.5 66.5q-7 11 -13 22t-11 40q0 75 28 117t76.5 61.5t113.5 23.5t138 4h51l104 -1z" />
    <glyph glyph-name="uniA9AD.sub.short" horiz-adv-x="1" 
d="M1116 572l1 -575l-181 137v269q0 4 -1 7q-22 8 -43 8q-42 0 -77 -27q-32 -25 -52 -62t-27.5 -79t-1.5 -86.5t26 -85.5q-2 4 -5 7t-5 6l-20 26q-2 3 -5 6.5t-5 6.5q-5 6 -9 11l-8 10q-12 17 -27.5 35t-25.5 41q-22 57 -51 111v1q-13 8 -22.5 15t-20.5 13
q-22 11 -45.5 17.5t-47.5 6.5q-21 0 -42 -5.5t-41 -18.5q-48 -30 -74.5 -89t-21.5 -134q3 -44 6.5 -76t11 -59.5t21 -53t36.5 -56.5q4 -5 10 -13.5l12 -17t10.5 -15t5.5 -7.5q-18 21 -34.5 43.5t-33.5 45.5q-27 37 -51.5 70t-44 68.5t-33 77.5t-20.5 97q-6 51 0.5 100
t24.5 88.5t48 66t72 32.5q36 6 69 -2t62.5 -26.5t56.5 -45.5t52 -60q17 -23 32 -44t29 -43q-4 47 5.5 92.5t30 81.5t49.5 58.5t65 22.5q24 0 45 -9.5t39.5 -24.5t34.5 -33.5t28 -36.5q6 -1 13 -10v117h180z" />
    <glyph glyph-name="uni1020.sub.short" 
d="M881 317v-4q-4 -26 -6.5 -52.5t-6.5 -52.5q-2 -16 -3.5 -34t-14.5 -31q-11 -11 -24 -15t-28 -4q-36 0 -78 21.5t-82.5 52.5t-75.5 64t-58 55l-221 4v-35l16.5 -1.5t9.5 -1l8 -1t11 -3.5q40 -15 74.5 -32t66 -36t62 -39t61.5 -41q27 -18 59.5 -35.5t60 -37t44.5 -41.5
t12 -49q0 -2 -2.5 -12t-3.5 -12q-7 -24 -14 -36.5t-21 -24.5t-40 -29t-72 -50q-7 -5 -28 6.5t-44.5 27.5t-44.5 29.5t-28 12.5q41 16 66 29.5t38 27t16.5 28.5t0.5 33q-1 7 -3 14.5t-4 16.5q-2 5 -3 10t-3 10q-4 12 -7 24.5t-7 25.5q-4 14 -13 29.5t-24 23.5
q-29 16 -64.5 21.5t-72.5 9.5q-14 1 -24.5 0t-20 -3.5t-20 -5.5t-25.5 -5q1 -6 1.5 -11t1.5 -10q1 -11 6.5 -32.5t5.5 -42t-9 -35t-37 -11.5q-31 3 -56.5 17t-52.5 31q-14 9 -37 21t-46.5 26.5t-44 31t-32 33.5t-9 34t24.5 33q23 16 41 24.5t47 11.5l-1 172h95l-1 1
q194 -2 379.5 -0.5t344.5 1.5l69 -142zM768 314q-61 0 -121.5 1t-121.5 2q13 -8 25 -16t22 -20q8 -9 14.5 -26t13.5 -23t19.5 -12t26 -11t26.5 -8t22 -3q21 0 41 18t32.5 40t14 40t-13.5 18z" />
    <glyph glyph-name="va.sub.short" 
d="M870 0l-180 57v63q-56 14 -110.5 29.5t-105.5 35.5q-54 21 -95 52t-81 62q-18 14 -33 29.5t-15 35.5t11.5 32.5t31.5 25.5q15 10 44.5 22.5t67 27t79.5 29.5t81 28.5t72 24.5t53 18h180v-572zM676 208v236l-172 -64q-41 -15 -73.5 -35t-47.5 -53q14 -4 39 -10.5t55 -14.5
t62 -16.5t60 -17t49 -15t28 -10.5z" />
    <glyph glyph-name="uni0448.sub.short" 
d="M844 -203l-180 114v167h-263v-148l-383 314h204v173h-104q-21 0 -45 41l-23 39q-42 71 -44 71h273q0 1 -1 1h696q6 0 27 -71l11 -38q13 -43 24 -43h1h-193v-620zM401 244h263v173h-263v-173z" />
    <glyph glyph-name="ssa.sub.short" 
d="M649 -76q-42 19 -90 36t-89 41q-1 22 -1 43.5v43.5q-32 -17 -68.5 -23t-74.5 -6q-30 0 -64 4t-60 15q-100 43 -150 106t-50 154v24t-0.5 42t-0.5 51t-0.5 51t-0.5 42v24h180l-3 -154q-1 -24 -2 -41.5t-2 -32.5l296 -10v5q2 58 1.5 115t-0.5 114q1 -4 15 -12t33.5 -17.5
t42.5 -20t42 -20t32 -17.5t13 -13v-499v-11l1 -23v-11zM169 295q-1 -7 -1.5 -15.5t-2.5 -27.5q-1 -13 -1 -30t5 -33t18 -27t38 -11q30 0 64 12t65.5 31t57.5 43t40 49z" />
    <glyph glyph-name="uniA9B1.sub.short" 
d="M899 -200l-180 114v167h-324v-148l-383 314h201v325l180 -1l2 -94v-230h324v173h-72q-15 0 -27 41l-11 39q-20 72 -25 72h445q6 0 27 -71l11 -38q13 -43 24 -43h1h-193v-620z" />
    <glyph glyph-name="uni0445.sub.short.1" 
d="M741 353q28 -15 60.5 -31t63 -35t56.5 -40.5t41 -48.5q17 -30 16.5 -70t-12 -81t-31.5 -79t-42 -65h-1l-153 122q29 40 50.5 84.5t22.5 89.5q0 15 -0.5 35t-6 38.5t-18 32t-37.5 15.5q-28 3 -58.5 -2t-56.5 -13q-45 -13 -80.5 -37t-64.5 -53q-2 -2 -15 -15.5t-26 -28.5
t-22 -27.5t-4 -13.5q-30 8 -59.5 21.5t-56.5 27.5l-309 111l10 8v7l130 157h180l-168 -208l119 -49q-3 4 -2 6q10 32 31.5 65t51.5 61t67 48t79 25q71 8 129 -9t116 -48z" />
    <glyph glyph-name="kssa.sub.short" 
d="M448 266q-167 0 -335 3q-4 0 -14 11t-22.5 27t-25.5 34.5t-24 35t-18.5 28.5t-8.5 13l449 -8l-1 162h180v-165q22 -1 47.5 -3.5t52.5 -8t55 -14.5t55 -24q32 -18 62.5 -42.5t59.5 -53t55.5 -59.5t48.5 -63q20 -27 30.5 -46.5t14.5 -39.5t2 -46.5t-8 -68.5l-150 73l10 48
q9 42 -3.5 76t-39.5 58.5t-65.5 39.5t-81.5 19q-32 3 -68 5.5t-77 4.5v-262l-2 1v33q0 6 -18 16.5t-43.5 22.5t-52.5 24.5t-44 21.5l-20 15v132zM627 -510q-42 19 -90 36t-89 41q-1 22 -1 43.5v43.5q-32 -17 -68.5 -23t-74.5 -6q-30 0 -64 4t-60 15q-100 43 -150 106
t-50 154q0 18 2 35.5t2 36.5t-2 36.5t-8 35.5q-15 2 -29.5 2h-29.5q-9 0 -26.5 13t-37.5 29.5t-39 31t-31 18.5q5 1 10 1h11q22 0 43 -3.5t41 -12.5q22 -10 56 -29.5t68 -43t60.5 -47t33.5 -42.5q9 -25 11 -54l332 -11v5q2 58 1.5 115t-0.5 114q1 -4 20 -15l158 -118v-466
v-11l1 -23v-11zM114 -138q-1 -12 -2.5 -24.5t-1.5 -26.5q0 -15 0.5 -32t6.5 -31t19.5 -23.5t38.5 -9.5q36 0 73.5 10t72 28t63 43t46.5 56z" />
    <glyph glyph-name="jnya.sub.short" 
d="M1101 0q24 15 50 27q22 10 49 18t53 8q20 0 36 -6q36 -13 78.5 -35.5t83 -52t72.5 -65t47 -73.5q13 -34 25.5 -66.5t12.5 -71.5q0 -21 -8 -42.5t-22 -39t-33 -28.5t-42 -11q-31 0 -60.5 20t-57 47.5t-52.5 56.5t-48 47l-40 34l-40 34q-61 -49 -89.5 -117.5t-38.5 -143.5
q-15 13 -38 34.5t-46 45.5t-42.5 47t-25.5 40q-8 20 -14.5 38.5t-15.5 37.5q-19 3 -38 3q-42 0 -75.5 -16.5t-57 -44t-35.5 -64t-12 -76.5q0 -66 29.5 -126.5t71.5 -110.5q2 -2 4 -4.5t3 -4.5q-13 7 -31.5 26.5t-38 42t-38 45t-30.5 35.5q-22 24 -43.5 51t-39 57t-28 62.5
t-10.5 66.5q0 41 14 78t39 65t60 44.5t77 16.5q39 0 69.5 -11.5t55.5 -30.5t47 -45t44 -54q6 -7 12 -11q18 33 27 49t13.5 24.5t7.5 15t10 20.5l-523 299q1 -6 5.5 -8t9.5 -3.5t9 -3.5t4 -8q0 -15 -2.5 -45t-10 -59t-20.5 -51t-35 -22q-28 0 -50.5 13.5t-43 32.5t-39 40.5
t-38.5 36.5q-30 24 -55 49q-10 12 -17.5 26.5t-7.5 30.5q0 14 12.5 25t30 18t35.5 10.5t29 3.5q14 0 26 -3l-1 166q-27 0 -59 -2t-64 0.5t-61.5 12.5t-50.5 34q-21 23 -44 45.5t-41 48.5h1120q6 -9 26.5 -31t43.5 -46t44 -43.5t28 -21.5h-266l16 -145q-1 5 -11 8t-25 6
t-32 5.5t-31.5 5.5t-24.5 6.5t-11 7.5l-10 106h-130l18 -143q-2 5 -20 8t-40.5 7t-43.5 9.5t-29 14.5l-9 105l-115 2l1 -157l540 -341zM1214 -185q15 -15 31 -29t33 -25t36.5 -17.5t41.5 -6.5q28 0 48.5 10.5t34 28.5t20 41t6.5 48q0 11 1.5 21.5t-5.5 18.5q-11 12 -27 15.5
t-32 3.5q-32 0 -57 -10.5t-47 -26t-42 -35t-42 -37.5z" />
    <glyph glyph-name="uniA992.sub.half" 
d="M891 0l-180 134v424h-188l-1 -379l-352 191h194v186h-210q-8 0 -21.5 11.5t-29 28.5t-32 37t-31 37t-25 28.5t-15.5 11.5l950 2l142 -151l-201 -3v-558z" />
    <glyph glyph-name="uni0445.sub.half" 
d="M1267 417h-122v-719l-181 97v95q-29 -25 -61.5 -32.5t-67.5 -7.5q-26 0 -56.5 5.5t-54.5 20.5q-37 23 -68.5 55.5t-57.5 70.5q-30 45 -42 106t-12 118q0 23 2.5 47t2.5 47v22t-1 27t-1.5 26.5t-2.5 21.5h-194v-719l-146 97v622l-61 1l-131 151l1123 -1zM603 417
q10 -11 19 -26.5t15.5 -31t11.5 -29.5t7 -23q6 -25 8 -53t2 -54t-2 -50t-2 -50q0 -21 0.5 -43.5t5.5 -41.5t17 -31.5t35 -12.5q18 0 44.5 5.5t43.5 14.5q26 15 53.5 40t50 56t37 67t15.5 74q0 20 0.5 44.5t0.5 49.5v49.5v45.5h-362z" />
    <glyph glyph-name="uniA99B.sub.half" 
d="M790 -13h-7q-173 0 -304 85q-47 31 -103 75q-40 28 -79 63q-76 68 -90 165q-6 44 -7 91l-11 89h-39q-15 0 -63 44q-11 10 -14.5 15t-12.5 20t-21 32q-29 42 -39 42h1053q16 0 62 -71q9 -14 13 -19l36 -49q8 -10 16 -14h21q-5 -2 -11 -2q-5 0 -10 2h-245l-81 -145
q-5 -9 -17 -19q-15 -14 -38 -14q-16 0 -33 9t-32 22l-135 147h-237q6 -9 9 -57.5t5 -101t3 -79l1 -26.5v14t1 14l1 -11l1 -36v-15q0 -27 6 -54.5t31 -45.5q30 -16 80 -21q42 -4 79 -4h31q112 0 222 15q7 0 21.5 -10.5t30.5 -25t26.5 -24.5t15 -13t16.5 -14.5t27.5 -25.5
t29 -23.5t18.5 -9.5q-112 -14 -227 -14z" />
    <glyph glyph-name="xka" horiz-adv-x="1475" 
d="M424 70q20 -38 44 -62.5t50.5 -39t54.5 -20.5t54 -6q27 0 51 4.5t43 10t32 11t17 7.5v288q-111 -29 -178.5 -62.5t-105.5 -62.5q-43 -34 -62 -68zM947 -13l24 -3t39 -2q29 0 63.5 6t68 23t62 49t45.5 84q-8 43 -43 76q-15 14 -37 27t-53.5 22.5t-73 14.5t-95.5 3v-300z
M749 671v298l-203 -89q-18 -8 -28 -11.5t-23.5 -9t-35 -15t-63.5 -29.5q29 -10 54 -21t48 -21.5l46 -21t48 -20.5l36 -13.5t41.5 -15.5t42 -15.5t37.5 -15.5zM948 439q3 -1 28.5 -10.5t64.5 -26t86.5 -40t94.5 -54t89 -67t71 -79.5t39.5 -92t-6.5 -104q-14 -47 -37.5 -77.5
t-53 -49t-63 -26t-68.5 -7.5q-41 0 -81 8t-73.5 18.5t-57.5 20.5t-33 14v-281l-180 117l-1 67q-14 0 -47.5 3.5t-79.5 17t-100 41t-109 75.5t-106.5 120.5t-91.5 175.5q19 50 82 98q27 21 66.5 43t94 44t126.5 42.5t165 37.5l1 105l-384 166q-26 17 -51 35t-51 36
q-8 6 -18 13t-19 16t-15 19.5t-6 21.5q0 26 16.5 40t36.5 26q23 13 48 23.5t51 18.5q15 5 48.5 16.5t76 25.5t88.5 29t84.5 27.5t64.5 20t29 6.5v140h-581q-7 0 -18 13t-24.5 33t-28 43t-27 43t-23 34t-15.5 14h899v-861h-1v-133zM671 -565q0 2 -2 2q2 0 2 -2z" />
    <glyph glyph-name="xka.alt" horiz-adv-x="1481" 
d="M749 671v298l-203 -89q-18 -8 -28 -11.5t-23.5 -9t-35 -15t-63.5 -29.5q29 -10 54 -21t48 -21.5l46 -21t48 -20.5l36 -13.5t41.5 -15.5t42 -15.5t37.5 -15.5zM767 -190v400q-32 0 -64.5 0.5t-64.5 0.5q-23 0 -50 -0.5t-54.5 -0.5t-53.5 0.5t-48 2.5q-7 1 -23.5 21
t-34.5 45.5t-33.5 49.5t-21.5 33l449 -8l-1 219l-383 166q-26 17 -51 35t-51 36q-8 6 -18 13t-19 16t-15 19.5t-6 21.5q0 26 16.5 40t36.5 26q23 13 48 23.5t51 18.5q15 5 48.5 16.5t76 25.5t88.5 29t84.5 27.5t64.5 20t29 6.5v140h-581q-7 0 -18 13t-24.5 33t-28 43t-27 43
t-23 34t-15.5 14h899v-861h-2v-221q54 -2 108 -13t102 -37q22 -12 51 -34.5t59.5 -50.5t60 -60.5t52.5 -65.5t37 -64.5t14 -57.5q0 -22 -3 -43.5t-6 -42.5l-150 73q4 20 8.5 40t4.5 40q0 42 -17 70t-45 46.5t-63.5 29t-73 15.5t-74 6.5t-65.5 3.5v-506zM671 -565q0 2 -2 2
q2 0 2 -2zM670 -562q0 2 -2 2q2 0 2 -2zM671 -565q0 2 -2 2q2 0 2 -2zM670 -562q0 2 -2 2q2 0 2 -2z" />
    <glyph glyph-name="xkha" horiz-adv-x="1253" 
d="M565 420q10 -11 19 -26.5t15.5 -31t11.5 -29.5t7 -23q6 -25 8 -53t2 -54t-2 -50t-2 -50q0 -21 0.5 -43.5t5.5 -41.5t17 -31.5t35 -12.5q18 0 44.5 5.5t43.5 14.5q26 15 53.5 40t50 56t37 67t15.5 74q0 20 0.5 44.5t0.5 49.5v49.5v45.5h-362zM904 671v298l-203 -89
q-18 -8 -28 -11.5t-23.5 -9t-35 -15t-63.5 -29.5q29 -10 54 -21t48 -21.5l46 -21t48 -20.5l36 -13.5t41.5 -15.5t42 -15.5t37.5 -15.5zM1203 420h-96v-719l-181 97v95q-29 -25 -61.5 -32.5t-67.5 -7.5q-26 0 -56.5 5.5t-54.5 20.5q-37 23 -68.5 55.5t-57.5 70.5
q-30 45 -42 106t-12 118q0 23 2.5 47t2.5 47v22t-1 27t-1.5 26.5t-2.5 21.5h-154v-719l-146 97v622l-25 1l-131 151h874l-385 167q-26 17 -51 35t-51 36q-8 6 -18 13t-19 16t-15 19.5t-6 21.5q0 26 16.5 40t36.5 26q23 13 48 23.5t51 18.5q15 5 48.5 16.5t76 25.5t88.5 29
t84.5 27.5t64.5 20t29 6.5v140h-736q-7 0 -18 13t-24.5 33t-28 43t-27 43t-23 34t-15.5 14h1054v-861zM826 -565q0 2 -2 2q2 0 2 -2zM825 -562q0 2 -2 2q2 0 2 -2z" />
    <glyph glyph-name="uniA9A5.backup" horiz-adv-x="1173" 
d="M1051 -11q-1 5 -12.5 15.5t-29 23t-29.5 21.5q-17 12 -21 15q-5 5 -19 14q-22 15 -45 34t-24 30v351q0 88 1 176v1v2v8q-34 -23 -72 -33q-48 -12 -105 -12q-13 0 -55.5 2t-97.5 28q-102 57 -172 143q-34 41 -50 94.5t-21 103.5q-3 28 -3 55q0 28 3 56q2 25 2 51
q0 31 -3 62v4q-4 23 -10 46q-22 4 -47 4q-13 0 -26 -1q-5 0 -18.5 9.5t-28 23t-25.5 24.5q-8 9 -12 12t-14 13q-11 12 -25.5 25.5t-26 23t-15.5 9.5q13 1 25 1q60 0 110 -27t99 -71q16 -13 36 -28q40 -30 76.5 -66.5t52.5 -78.5q14 -60 14 -121q0 -29 -3 -59q-3 -27 -3 -54
q0 -51 10 -101q4 -20 20 -33q23 -13 50 -13q9 0 19 1q4 1 8 1q51 4 93 21q119 60 182 162q28 49 33 106q1 174 1 348q1 -5 12.5 -15.5t29 -23t29.5 -21.5q16 -12 21 -15q4 -4 19 -14q21 -14 44.5 -33.5t24.5 -30.5z" />
    <glyph glyph-name="uni0448.backup" horiz-adv-x="1118" 
d="M1088 -31q0 8 -41 35l-51 34l-48 50q-33 34 -43 37v640q-8 -6 -18 -13q-77 -54 -172 -76q-39 -9 -81 -9q-57 0 -114 16q-92 32 -160 92l-38 33l-55 43l-35 32q-30 25 -54 51q-74 77 -105 169q-22 66 -22 133v11q2 71 19 141l24 -25q26 -28 55.5 -68t52.5 -80t23 -70
l-1 -15l654 -17q19 50 27 97v228q0 -5 12 -14t61 -42l57 -39h3l2 -2q48 -31 48 -43v-1329zM225 1081q10 -137 71 -236q77 -36 171 -36h10q144 10 238 82.5t145 173.5z" />
    <glyph glyph-name="va.sub.1" 
d="M770 260l-89 -126l89 123l-7 -675l-177 126l1 87q-25 8 -78 24t-118.5 37t-134.5 46t-126 52.5t-93.5 56.5t-36.5 57q0 9 8 26.5t19 36.5t23 35t20 23q5 4 29.5 17.5t62 32.5t83.5 41.5t93.5 45.5t92.5 45t80 39t56.5 27l21.5 10q0 32 -3 62.5t-3 62.5h180zM581 347
q-59 -38 -115 -71t-116 -71q-24 -16 -54 -27.5t-57.5 -25t-49.5 -33.5t-31 -52q65 -23 127.5 -51t125.5 -55q44 -20 90 -39t86 -44z" />
    <glyph glyph-name="va.sub.2" 
d="M725 -410l-180 109l-1 150q-141 30 -268 73q-62 22 -116 56t-102 71q-58 38 -58 70q0 5 5 23t48 42.5t99 42.5q49 16 97 31.5t97 32t98 31.5l96 30h3v222l182 1v-985zM525 -53v261l-212 -69q-52 -17 -91.5 -39.5t-57.5 -58.5l48 -12q56 -14 162 -41q140 -36 151 -41z" />
    <glyph glyph-name="shrd-kha.1" horiz-adv-x="1533" 
d="M553 0q-2 0 -20 14.5t-34.5 27.5t-30.5 24q-66 51 -95 74v1113h-138q-13 0 -36 24t-42 46q-10 13 -15.5 18t-17.5 20q-61 72 -74 72h1248q21 0 78 -70q12 -13 17 -18t18 -21q59 -71 72 -71l-160 -1l-1 -1244v0v0q0 1 -90 63.5l-90 62.5v588q-15 -2 -25 -2q-24 0 -73 24
l-33 14q-85 32 -147.5 89t-86.5 178l-18 91q-15 68 -26 137h-186q4 -6 6 -11v-1242zM1019 926q25 0 47 20q38 39 55 92q26 91 26 185v30h-238q11 -81 26 -159l20 -114q9 -40 44 -51q11 -3 20 -3z" />
    <glyph glyph-name="uni0445.top.1.1" horiz-adv-x="1533" 
d="M553 462q-2 0 -180 110v681h-138q-13 0 -36 24t-42 46q-10 13 -15.5 18t-17.5 20q-61 72 -74 72h1248q21 0 78 -70q12 -13 17 -18t18 -21q59 -71 72 -71l-160 -1l-1 -791l-180 111v150q-15 -2 -25 -2q-24 0 -73 24l-33 14q-85 32 -147.5 89t-86.5 178l-18 91
q-15 68 -26 137h-186q4 -6 6 -11v-780zM1019 926q25 0 47 20q38 39 55 92q26 91 26 185v30h-238q11 -81 26 -159l20 -114q9 -40 44 -51q11 -3 20 -3z" />
    <glyph glyph-name="uni0445.sub.half.1" 
d="M505 30q-45 17 -90 34.5t-90 34.5l-2 453h-172l-151 153h1191l93 -90q4 -4 16.5 -14t27.5 -21t28.5 -19.5t19.5 -8.5l-160 -1l-1 -528l-180 69v131q-6 -1 -12.5 -1.5t-12.5 -0.5q-24 0 -54 8.5t-52 13.5q-73 19 -116 38t-68.5 43t-39 55.5t-28.5 75.5q-8 25 -14.5 49
t-11.5 48h-129q3 -3 4.5 -11t1.5 -11zM912 343q39 0 64 21.5t39.5 50.5t19.5 58.5t5 45.5v33h-238q8 -45 20 -88.5t26 -88.5q5 -14 22.5 -23t41.5 -9z" />
    <glyph glyph-name="uni0445.sub.half.2" 
d="M1268 800h-143v-798l-181 132v139q-29 -25 -61.5 -32.5t-67.5 -7.5q-26 0 -56.5 5.5t-54.5 20.5q-37 23 -68.5 55.5t-57.5 70.5q-30 45 -42 106t-12 118q0 23 2.5 47t2.5 47v22t-1 27t-1.5 26.5t-2.5 21.5h-181v-798l-146 132v666h-71l-131 151h1141zM583 800
q10 -11 19 -26.5t15.5 -31t11.5 -29.5t7 -23q6 -25 8 -53t2 -54t-2 -50t-2 -50q0 -21 0.5 -43.5t5.5 -41.5t17 -31.5t35 -12.5q18 0 44.5 5.5t43.5 14.5q26 15 53.5 40t50 56t37 67t15.5 74q0 20 0.5 44.5t0.5 49.5v49.5v45.5h-362z" />
    <glyph glyph-name="u111A1.1" horiz-adv-x="1643" 
d="M1339 0q0 13 -75 75q-11 9 -15.5 14t-18.5 15q-70 48 -70 74v430q-58 -61 -136 -97q-65 -31 -135 -31q-53 0 -107 22q-91 42 -157 118q-90 99 -101 111q-2 0 -3 2t-17 21q-30 34 -57 71q-63 88 -94 192t-31 211v25h-93q-15 0 -74 70l-59 70q-33 40 -45 40h-1h1364
q17 0 74 -70l29 -33q62 -77 76 -77h-254v-1253zM1101 966q43 106 59 215v72h-721q53 -101 53 -152l-1 -54q0 -30 2 -61zM723 670l18 1q115 6 197.5 73t134.5 165l-574 19q14 -111 64 -211q86 -47 160 -47z" />
    <glyph glyph-name="shrd-ka.1" horiz-adv-x="1800" 
d="M1043 0q0 10 -71 53l-38 25q-71 47 -71 57l1 249q-48 -29 -105 -29q-75 0 -139.5 43t-122.5 102l-34 31q-71 65 -101 135q-10 24 -10 47v4q2 51 35 104q60 84 159 109q35 9 71 9h7q116 -1 240 -100l-1 414h-567q-28 0 -106 76q-15 14 -21.5 18.5t-22.5 19.5t-35 31
l-48 35h1447q23 0 100 -69q15 -13 22 -18t23 -19.5t36 -32.5q45 -40 59 -40l-707 -1l1 -312q45 16 93 16q23 0 48 -3q90 -18 163 -76.5t135 -122.5l27 -27q75 -75 76 -169q0 -76 -71 -132q-70 -52 -142 -52q-17 0 -69.5 9t-128.5 74q-67 57 -131 117zM1215 515q69 0 129 40
q92 69 92 154q0 30 -9 61q-37 7 -72 7q-63 0 -139 -31t-131 -111l-20 -29v-4q25 -24 28 -33l25 -35q20 -10 44 -13q27 -6 53 -6zM567 495q106 0 172 71t113 160q4 9 19 30q-28 6 -56 6q-126 0 -210 -84q-33 -39 -53 -85q-13 -29 -13 -62q0 -16 5 -33l2 -1z" />
    <glyph glyph-name="shrd-cha.1" horiz-adv-x="1504" 
d="M600 327q-41 0 -77 13.5t-68.5 35.5t-61.5 49.5t-56 55.5q-24 24 -50 50.5t-47.5 55t-35.5 60.5t-14 66q0 46 23 88.5t61 75.5t86.5 52.5t99.5 19.5q54 0 102.5 -20.5t90.5 -49.5q-1 2 -1.5 28t-1 65t0 85t0.5 87v71.5v37.5h-427q-9 0 -24 13t-32.5 33t-35.5 43t-34 43
t-29 33.5t-19 14.5q136 0 270 0.5t271 0.5h298q100 0 197.5 -0.5t197.5 -0.5q6 0 18.5 -13t28 -32.5t33.5 -42.5t34.5 -43t31.5 -34t24 -15h-637q5 -5 9.5 -11t4.5 -12v-307q64 44 145 44q60 0 112.5 -24t98.5 -60t86 -79t74 -81q36 -41 55 -83.5t19 -95.5q0 -37 -17 -72.5
t-45.5 -63t-67 -44t-81.5 -16.5q-17 0 -34.5 3t-33.5 6q-31 6 -70.5 32.5t-78.5 61t-73 70t-55 58.5q-18 -36 -42 -80t-56 -82.5t-73 -64t-94 -25.5zM1022 517q51 0 91 19t68 49.5t42.5 70.5t14.5 82q0 21 -3 45q-16 2 -32 3.5t-32 1.5q-103 0 -174 -48.5t-116 -128.5
q19 -19 30.5 -36t24.5 -30t32.5 -20.5t53.5 -7.5zM403 500q60 0 104.5 27t78 67t59 87.5t47.5 87.5q-17 4 -34.5 5t-34.5 1q-51 0 -96.5 -21t-80 -55t-55 -77t-20.5 -87q0 -17 3 -34q8 0 15 -0.5t14 -0.5z" />
    <glyph glyph-name="chha.top.1" horiz-adv-x="1504" 
d="M600 489q-41 0 -77 13.5t-68.5 35.5t-61.5 49.5t-56 55.5q-24 24 -50 50.5t-47.5 55t-35.5 60.5t-14 66q0 46 23 88.5t61 75.5t86.5 52.5t99.5 19.5q54 0 102.5 -20.5t90.5 -49.5q-1 2 -1.5 16t-1 35t0 46t0.5 48v41.5v25.5h-427q-9 0 -24 13t-32.5 33t-35.5 43t-34 43
t-29 33.5t-19 14.5q136 0 270 0.5t271 0.5h298q100 0 197.5 -0.5t197.5 -0.5q6 0 18.5 -13t28 -32.5t33.5 -42.5t34.5 -43t31.5 -34t24 -15h-637q5 -5 9.5 -11t4.5 -12v-145q64 44 145 44q60 0 112.5 -24t98.5 -60t86 -79t74 -81q36 -41 55 -83.5t19 -95.5q0 -37 -17 -72.5
t-45.5 -63t-67 -44t-81.5 -16.5q-17 0 -34.5 3t-33.5 6q-31 6 -70.5 32.5t-78.5 61t-73 70t-55 58.5q-18 -36 -42 -80t-56 -82.5t-73 -64t-94 -25.5zM1022 679q51 0 91 19t68 49.5t42.5 70.5t14.5 82q0 21 -3 45q-16 2 -32 3.5t-32 1.5q-103 0 -174 -48.5t-116 -128.5
q19 -19 30.5 -36t24.5 -30t32.5 -20.5t53.5 -7.5zM403 662q60 0 104.5 27t78 67t59 87.5t47.5 87.5q-17 4 -34.5 5t-34.5 1q-51 0 -96.5 -21t-80 -55t-55 -77t-20.5 -87q0 -17 3 -34q8 0 15 -0.5t14 -0.5z" />
    <glyph glyph-name="chha.sub.1" horiz-adv-x="2" 
d="M851 411q51 -10 96.5 -38.5t85.5 -67t75.5 -82t68.5 -82.5q32 -38 52 -85t23 -96t-13.5 -96t-57.5 -84q-35 -32 -70.5 -46.5t-71.5 -14.5q-53 0 -103.5 27t-95.5 72q-77 77 -148 160q-21 -44 -44 -91t-51.5 -87t-64.5 -67.5t-83 -33.5q-53 -6 -97.5 11.5t-83.5 48.5
t-74 70.5t-68 75.5t-61 76.5t-41.5 84t-9.5 90.5t34 96q42 67 104.5 104.5t132.5 37.5q54 0 103 -22.5t90 -55.5v256h174q2 -6 4 -9t2 -7v-191q32 23 68 36.5t78 13.5q11 0 23 -1t24 -3zM983 -43q30 27 47.5 55t26.5 59t10 64.5t-2 71.5q-33 6 -64 6q-86 0 -157 -41.5
t-116 -121.5q-5 -8 -10 -16.5t-8 -18.5q6 -9 12 -17t11 -17q20 -37 46 -55t71 -17q34 0 70.5 12t62.5 36zM505 165q1 2 1.5 3.5t2.5 3.5l6 14q2 2 2.5 3.5t1.5 3.5q-17 2 -34.5 4.5t-35.5 0.5q-54 -5 -104.5 -27.5t-85.5 -70.5q-31 -43 -51 -98t-10 -111q2 0 3 -1
q62 -7 107.5 16.5t81 64.5t63 93t52.5 101z" />
    <glyph glyph-name="uni043A.sub.alt.1" 
d="M830 483q50 -9 94.5 -36t84 -62.5t75.5 -75.5t69 -77q31 -34 50 -77.5t21.5 -89t-13.5 -89t-56 -77.5q-34 -29 -69.5 -42t-70.5 -13q-52 0 -101.5 24.5t-93.5 66.5q-34 32 -66.5 63t-63.5 65v-481l-180 117v153q-17 -11 -36.5 -19.5t-40.5 -10.5q-53 -6 -97 10.5
t-82.5 46t-72.5 66t-67 70.5q-32 34 -59.5 71.5t-41 78t-9.5 83.5t34 89q40 62 102 96.5t131 34.5q35 0 67 -9t61.5 -24.5t57 -35.5t53.5 -43v216l180 -103q42 18 93 18q11 0 23 -1t24 -3zM959 63q20 17 37 37.5t29.5 43.5t19 48.5t4.5 51.5q-1 13 -3 25.5t-5 26.5
q-37 8 -69 8q-80 0 -150 -41t-114 -113q-5 -8 -9 -15.5t-9 -15.5v-4q7 -7 12.5 -14.5t10.5 -15.5q7 -11 13.5 -22t14.5 -22q20 -11 47 -15.5t49 -4.5q33 0 64.5 9.5t57.5 32.5zM487 255q4 7 7.5 13.5t6.5 11.5q-17 4 -34 6.5t-34 0.5q-54 -5 -103.5 -26.5t-83.5 -65.5
q-15 -20 -28.5 -42.5t-22.5 -47.5t-12 -51t2 -52q1 -1 3 -1q61 -7 106.5 15t80.5 60t61.5 86t50.5 93z" />
    <glyph glyph-name="uni043A.sub.short.1" 
d="M641 520q37 -6 69 -21.5t61 -36.5t55 -44.5t50 -45.5q23 -21 37 -47t16 -52.5t-10 -52t-41 -45.5q-25 -17 -50.5 -25t-51.5 -8q-38 0 -74 14.5t-68 39.5q-25 20 -48.5 37.5t-45.5 37.5v-284l-119 38l-61 32v90q-12 -6 -26 -10.5t-30 -6.5q-38 -3 -70.5 6.5t-60.5 27
t-53 39t-49 41.5q-23 20 -42.5 41.5t-29.5 45.5t-7 49.5t25 52.5q29 37 73.5 57t95.5 20t91.5 -18.5t82.5 -46.5v127h180v-61q44 17 101 9zM736 271q29 20 48.5 48t17.5 60q-1 7 -3 14.5t-4 15.5q-28 5 -51 5q-57 0 -108.5 -24t-83.5 -67l-12 -18v-3q5 -3 8.5 -7.5t7.5 -9.5
q5 -7 10 -13t11 -13q5 -3 15 -5t20.5 -3.5t20.5 -2.5t16 -1q23 0 45.5 5.5t41.5 18.5zM343 386q3 4 5.5 7.5t5.5 5.5q-13 3 -25 5t-25 1q-38 -3 -74.5 -16t-61.5 -39q-22 -23 -37 -53t-7 -62h1q45 -4 78 9t58 35.5t44.5 51t37.5 55.5z" />
    <glyph glyph-name="uni043A.alt.1.2" horiz-adv-x="1378" 
d="M655 134v681h-32l-65 1h-32q-20 0 -48 -0.5t-57 -0.5t-56 0.5t-45 2.5q-7 1 -23.5 21t-34.5 45.5t-33.5 49.5t-21.5 33l449 -8l-1 293h-425l-180 180l1049 1l181 -181h-444v-296q22 -1 56.5 0t75 1.5t84 0t82.5 -2.5t71 -7.5t49 -14.5q32 -17 64 -42t62 -54t55.5 -60.5
t44.5 -61.5q16 -25 20.5 -57t4 -66t-3.5 -67.5t-3 -63.5q0 -15 0.5 -51t1 -82.5t0.5 -97.5t-0.5 -97.5t-1.5 -82t-3 -50.5l-155 134v23v51.5v65v65v51.5v23q5 37 3.5 79.5t-1.5 79.5q0 100 -43.5 159.5t-147.5 69.5q-75 8 -151.5 7t-152.5 3l-11 -809z" />
    <glyph glyph-name="jhaa.top.half" horiz-adv-x="705" 
 />
    <glyph glyph-name="ngaa.top.half" horiz-adv-x="683" 
 />
    <glyph glyph-name="kssa.sub.short.1" horiz-adv-x="683" 
 />
    <glyph glyph-name="kssa.new" horiz-adv-x="752" 
 />
    <glyph glyph-name="ksssa" horiz-adv-x="683" 
d="M690 1253l38 -126q66 -20 121.5 -60.5t96.5 -95t65.5 -119t29.5 -132.5q3 -51 3 -101q0 -72 -3 -142.5t-3 -142.5q0 -24 3 -55.5t9.5 -64t17 -61.5t25.5 -48q9 -11 26.5 -17.5t37.5 -11t39.5 -8t32.5 -6.5q20 -5 30.5 -19t18 -30t15 -30t22.5 -18q-61 7 -127 33
t-124.5 66t-103.5 93t-64 114q-14 45 -19 91.5t-5 93.5q0 34 -0.5 63.5t-1 58.5t-1 58.5t-0.5 63.5q0 41 -5 86.5t-19.5 88t-40.5 76.5t-69 52q-20 8 -38 15.5t-40 8.5q-72 3 -144 -24.5t-127 -84.5q96 -81 188 -163t185 -166q0 -24 -17 -41.5t-41.5 -29t-51 -16.5t-45.5 -5
q-47 0 -98.5 18.5t-100 48.5t-90 67.5t-68.5 74.5q-24 34 -37.5 72.5t-13.5 80.5q0 64 30 110t76 78.5t101.5 54t106.5 36.5v115h-377l-133 179l1191 1l166 -180h-667zM366 893q-21 -27 -32.5 -59t-11.5 -67q0 -15 3.5 -35.5t9.5 -41t14.5 -39t17.5 -30.5q6 -8 21.5 -13
t33.5 -8t35.5 -4t27.5 -1q32 0 64.5 8.5t54.5 33.5z" />
    <glyph glyph-name="kssa.alt.1" horiz-adv-x="1378" 
d="M234 857q41 60 84 105.5t93.5 76.5t110.5 47t133 17l1 -24v43l-1 87v43h-425l-180 180l1049 1l181 -181h-445v-149q54 -2 108 -13t102 -37q28 -15 61.5 -40.5t65 -55.5t58 -62t41.5 -60q23 -43 26.5 -90.5t3.5 -95.5q0 -165 -25.5 -329t-61.5 -320q-7 4 -32 20t-52 35.5
t-48.5 37t-21.5 24.5t1.5 14t2.5 14q17 110 41.5 217t42.5 217q7 44 14.5 87.5t7.5 88.5q0 46 -15 78.5t-40.5 55t-59 35.5t-71 20.5t-76 10t-73.5 3.5l-175 3v-2q-40 -1 -85 -3.5t-88 -12t-80 -29.5t-63 -58h-26q10 -10 22.5 -24.5t24 -30.5t19.5 -32.5t8 -31.5l-1 -4v-2
l430 -10q10 25 14 47.5t5 45.5t0 47t-1 52q1 -3 14 -11.5t28 -18t28 -17t14 -8.5h2q2 -2 7.5 -5.5t11 -7.5t10 -8t4.5 -7v-455q-12 14 -29 22t-31 19q-16 11 -29.5 25t-29.5 26v48q-8 -3 -13 -7q-37 -23 -82.5 -37t-88.5 -14q-60 0 -106.5 25t-92.5 59q-31 23 -63 48
t-57.5 54.5t-41.5 65t-16 79.5q0 17 2 34.5t5 34.5h-51zM392 702q3 -37 14 -72.5t32 -67.5q27 -11 55.5 -15.5t57.5 -4.5q40 0 78 10.5t71.5 30t61.5 47.5t47 63z" />
    <glyph glyph-name="uniA9A0.sub.short.1" 
d="M341 571q50 -44 95 -95.5t88 -102.5q26 -30 47 -64t23 -76v-6q0 -47 -19 -87t-50.5 -69t-73 -45.5t-86.5 -16.5q-52 0 -102 13.5t-96.5 37t-89.5 53.5t-81 63q-7 5 -11 12q0 2 2.5 2.5t4.5 0.5q14 0 38 -5t51.5 -11t54 -12t44.5 -8q24 -3 47 -3q62 0 118.5 24.5
t89.5 79.5q14 24 23.5 50.5t9.5 55.5q0 8 -2 12.5t-5 8t-7.5 7.5t-9.5 10q-12 15 -32.5 27t-44.5 19.5t-48.5 11.5t-44.5 4q-11 0 -46.5 -1t-75.5 -1.5t-73.5 -1.5t-40.5 -1v115z" />
    <glyph glyph-name="uniA9A0.sub.short.2" 
d="M360 572v-47t0.5 -41t0.5 -29v-11q44 -42 84.5 -88.5t78.5 -91.5q26 -30 47 -64t23 -76v-6q0 -47 -19 -87t-50.5 -69t-73 -45.5t-86.5 -16.5q-52 0 -102 13.5t-96.5 37t-89.5 53.5t-81 63q-7 5 -11 12q0 2 2.5 2.5t4.5 0.5q14 0 38 -5t51.5 -11t54 -12t44.5 -8
q24 -3 47 -3q62 0 118.5 24.5t89.5 79.5q14 24 27 51t6 55q-4 16 -9 20.5t-15 17.5q-12 15 -32.5 27t-44.5 19.5t-48.5 11.5t-44.5 4q-11 0 -46.5 -1t-75.5 -1.5t-73.5 -1.5t-40.5 -1v115h142v109h180z" />
    <glyph glyph-name="uniA9A5.sub.1" 
d="M1023 -418q-25 14 -47.5 27.5t-43.5 27.5t-43 29t-47 33q-1 34 -1 67v67q-39 -26 -84 -35.5t-92 -9.5q-37 0 -79 6.5t-75 23.5q-124 66 -185 161.5t-61 234.5q0 27 2.5 53.5t2.5 53.5q0 29 -2.5 56.5t-10.5 55.5q-19 4 -36.5 3.5t-36.5 -0.5q-11 0 -33 19.5t-46.5 44.5
t-47.5 47.5t-38 28.5q6 1 12 1h13q27 0 54 -5.5t51 -19.5q27 -15 69 -44t83.5 -64.5t74.5 -72t42 -65.5q8 -28 11 -60t3 -61q0 -28 -3 -56t-3 -57q0 -23 0.5 -49t8 -48t24 -36.5t47.5 -14.5q12 0 28.5 2t33 5t32 7.5t26.5 9.5q36 17 73.5 45t68.5 63t51.5 76t21.5 84
q2 88 1.5 174t-0.5 174q2 -7 16 -19t34 -26.5t42.5 -30.5t42 -30.5t32.5 -27t13 -19.5v-760v-17l1 -35v-17z" />
    <glyph glyph-name="uniA9A5.sub.short.1" 
d="M846 -76q-42 19 -90 36t-89 41q-1 22 -1 43.5v43.5q-32 -17 -68.5 -23t-74.5 -6q-30 0 -64 4t-60 15q-100 43 -150 106t-50 154q0 18 2 35.5t2 36.5t-2 36.5t-8 35.5q-15 2 -29.5 2h-29.5q-9 0 -26.5 13t-37.5 29.5t-39 31t-31 18.5q5 1 10 1h11q22 0 43 -3.5t41 -12.5
q22 -10 56 -29.5t68 -43t60.5 -47t33.5 -42.5q7 -18 9.5 -38.5t2.5 -40.5q0 -18 -3 -36.5t-3 -38.5q0 -15 0.5 -32t6.5 -31t19.5 -23.5t38.5 -9.5q10 0 23 1t26.5 3.5t26 5.5t21.5 6q30 11 60.5 29t55.5 41t41.5 49.5t17.5 54.5q2 58 1.5 115t-0.5 114q1 -4 15 -12
t33.5 -17.5t42.5 -20t42 -20t32 -17.5t13 -13v-499v-11l1 -23v-11z" />
    </font>
</defs>
</svg>
